<svg id="Capa_1" enable-background="new 0 0 512.002 512.002" height="512" viewBox="0 0 512.002 512.002" width="512" xmlns="http://www.w3.org/2000/svg"><g><path d="m262.221 240h107.56l-53.78-53.79z"/><circle cx="166.001" cy="165" r="15"/><path d="m301.001 15c0-8.27-6.73-15-15-15h-60c-8.27 0-15 6.73-15 15v30h90z"/><path d="m436.001 30h-105v30c0 8.28-6.72 15-15 15h-120c-8.28 0-15-6.72-15-15v-30h-105c-8.28 0-15 6.72-15 15v195h158.78l85.61-85.61c5.86-5.85 15.36-5.85 21.22 0l85.61 85.61h38.78v-195c0-8.28-6.72-15-15-15zm-270 180c-24.81 0-45-20.19-45-45s20.19-45 45-45 45 20.19 45 45-20.19 45-45 45z"/><path d="m61.001 315c0 8.28 6.72 15 15 15h72.325l-27.125 164.561c-1.501 9.107 5.516 17.442 14.818 17.442 7.211 0 13.571-5.215 14.782-12.563l12.765-77.44h77.435v45c0 8.284 6.716 15 15 15s15-6.716 15-15v-45h77.435l12.765 77.439c1.211 7.349 7.571 12.563 14.782 12.563 9.306 0 16.319-8.338 14.818-17.442l-27.125-164.56h72.325c8.28 0 15-6.72 15-15v-45h-390zm107.51 77 10.22-62h62.27v62zm174.98 0h-72.49v-62h62.27z"/></g></svg>