<?xml version="1.0" encoding="iso-8859-1"?>
<!-- Generator: Adobe Illustrator 16.0.0, SVG Export Plug-In . SVG Version: 6.00 Build 0)  -->
<!DOCTYPE svg PUBLIC "-//W3C//DTD SVG 1.1//EN" "http://www.w3.org/Graphics/SVG/1.1/DTD/svg11.dtd">
<svg version="1.1" id="Capa_1" xmlns="http://www.w3.org/2000/svg" xmlns:xlink="http://www.w3.org/1999/xlink" x="0px" y="0px"
	 width="155.377px" height="155.377px" viewBox="0 0 155.377 155.377" style="enable-background:new 0 0 155.377 155.377;"
	 xml:space="preserve">
<g>
	<g>
		<path d="M52.653,155.377h86.755c0,0-25.173-20.233-24.637-42.41c0.299-12.367,24.637-28.096,24.503-62.441
			c-0.062-17.272-16.812-45.979-45.261-49.557c-28.445-3.58-49.733,2.679-59.043,20.213c-9.301,17.534-10.014,32.915-9.301,35.777
			c0.722,2.862,3.757,8.233,3.757,8.233s-14.31,21.994-13.417,25.574c0.898,3.586,10.726,5.517,10.726,5.517s0.88,2.484-0.91,7.319
			c-1.784,4.828,3.334,10.443,4.856,12.392c1.528,1.96-2.143,8.05-0.898,11.447c1.254,3.397,7.158,7.515,13.956,6.625
			c6.796-0.901,15.537-2.503,18.569-3.044C69.146,147.133,52.653,155.377,52.653,155.377z M74.614,53.311l4.056-1.489
			c0.548-0.207,1.017-1.471,1.054-1.885c0.012-0.411-0.402-0.965-0.944-1.202l-3.903-1.814c-0.542-0.25-0.785-0.898-0.535-1.428
			l4.073-8.854c0.256-0.542,0.907-0.779,1.438-0.535l3.915,1.814c0.542,0.243,1.766-0.332,2.082-0.594
			c0.317-0.262,0.402-0.947,0.195-1.501l-1.492-4.053c-0.207-0.563,0.079-1.184,0.646-1.397L94.331,27
			c0.555-0.201,1.182,0.085,1.395,0.643l1.492,4.052c0.207,0.561,1.485,1.029,1.905,1.048c0.402,0.024,0.938-0.393,1.2-0.929
			l1.809-3.916c0.249-0.536,0.9-0.779,1.437-0.524l8.848,4.071c0.529,0.255,0.773,0.892,0.529,1.439l-1.802,3.903
			c-0.262,0.536,0.311,1.772,0.572,2.076c0.273,0.32,0.956,0.417,1.528,0.213l4.031-1.504c0.566-0.21,1.188,0.088,1.395,0.648
			l3.373,9.137c0.213,0.56-0.073,1.184-0.646,1.388l-4.043,1.504c-0.561,0.21-1.011,0.71-1.011,1.13c0,0.417,0.353,1.72,0.895,1.97
			l3.916,1.809c0.542,0.256,0.779,0.892,0.523,1.434l-4.074,8.841c-0.255,0.542-0.895,0.779-1.442,0.536l-3.903-1.814
			c-0.548-0.25-1.772,0.316-2.095,0.59c-0.311,0.268-0.396,0.95-0.195,1.51l1.492,4.046c0.207,0.563-0.079,1.185-0.64,1.397
			l-9.134,3.374c-0.572,0.207-1.199-0.098-1.4-0.649l-1.498-4.046c-0.2-0.56-1.467-1.029-1.881-1.047
			c-0.414-0.024-0.956,0.393-1.206,0.928l-1.809,3.916c-0.243,0.536-0.895,0.776-1.437,0.523l-8.854-4.077
			c-0.536-0.255-0.78-0.898-0.524-1.434l1.814-3.903c0.25-0.551-0.316-1.771-0.59-2.082c-0.263-0.326-0.95-0.42-1.511-0.213
			l-4.055,1.501c-0.549,0.213-1.179-0.085-1.392-0.633l-3.374-9.155C73.774,54.143,74.06,53.518,74.614,53.311z"/>
		<path d="M98.008,40.213c5.979,0,10.827,4.844,10.827,10.824c0,5.977-4.848,10.823-10.827,10.823
			c-5.974,0-10.82-4.847-10.82-10.823C87.188,45.058,92.035,40.213,98.008,40.213z"/>
	</g>
</g>
<g>
</g>
<g>
</g>
<g>
</g>
<g>
</g>
<g>
</g>
<g>
</g>
<g>
</g>
<g>
</g>
<g>
</g>
<g>
</g>
<g>
</g>
<g>
</g>
<g>
</g>
<g>
</g>
<g>
</g>
</svg>
