<svg height="512" viewBox="0 0 16 16" width="512" xmlns="http://www.w3.org/2000/svg"><path d="m8 0c-4.41113 0-8 3.58887-8 8s3.58887 8 8 8 8-3.58887 8-8-3.58887-8-8-8zm-1.41406 9.41406c.755859.755859 2.07227.755859 2.82812 0l1.41406 1.41406c-.755371.755859-1.75977 1.17188-2.82812 1.17188-1.06836 0-2.07275-.416016-2.82812-1.17188-.755859-.755371-1.17188-1.75977-1.17188-2.82812 0-1.06836.416016-2.07275 1.17188-2.82812 1.51074-1.51172 4.14551-1.51172 5.65625 0l-1.41406 1.41406c-.755859-.755859-2.07227-.755859-2.82812 0-.37793.37793-.585938.879883-.585938 1.41406 0 .53418.208008 1.03613.585938 1.41406z"/></svg>