<svg id="Capa_1" enable-background="new 0 0 512 512" height="512" viewBox="0 0 512 512" width="512" xmlns="http://www.w3.org/2000/svg"><g><path d="m401.518 5.802v29.963h59.332l-71.958 71.957c-20.39-15.177-47.032-23.512-78.457-23.512-26.637 0-51.326 8.497-71.503 22.92 23.353 26.896 37.505 61.985 37.505 100.317s-14.152 73.42-37.505 100.317c20.177 14.423 44.866 22.92 71.503 22.92 67.953 0 123.237-55.284 123.237-123.237 0-31.473-8.36-58.149-23.58-78.551l71.946-71.945v59.332h29.962v-110.481z"/><path d="m194.74 307.764c-23.353-26.896-37.505-61.985-37.505-100.317s14.152-73.42 37.505-100.317c-20.177-14.423-44.866-22.92-71.503-22.92-67.954 0-123.237 55.284-123.237 123.238 0 62.882 47.342 114.909 108.255 122.325v96.299h-40.408v29.963h40.408v50.164h29.963v-50.164h40.408v-29.963h-40.408v-96.297c20.891-2.544 40.186-10.333 56.522-22.011z"/><ellipse cx="216.836" cy="207.448" rx="29.638" ry="80.073"/></g></svg>