<svg id="Capa_1" enable-background="new 0 0 512 512" height="512" viewBox="0 0 512 512" width="512" xmlns="http://www.w3.org/2000/svg"><g><path d="m238.532 8.115-8.555-8.115-205.62 133.466 13.14 13.14c5.083 5.082 125.493 124.394 220.605 124.394h4.541l225-150h-49.541c-82.852 0-198.413-111.771-199.57-112.885z"/><path d="m381.689 347.69-109.964 73.31h-13.623c-63.691 0-133.422-43.456-181.842-80.971l-51.903 33.437 13.14 13.14c5.083 5.082 125.493 125.394 220.605 125.394h4.541l225-151h-49.541c-17.781 0-37.071-5.284-56.413-13.31z"/><path d="m381.689 227.69-109.964 73.31h-13.623c-63.691 0-133.422-43.456-181.842-80.971l-51.903 33.437 13.14 13.14c5.083 5.082 125.493 124.394 220.605 124.394h4.541l225-150h-49.541c-17.781 0-37.071-5.284-56.413-13.31z"/></g></svg>