<?xml version="1.0" encoding="iso-8859-1"?>
<!-- Generator: Adobe Illustrator 19.0.0, SVG Export Plug-In . SVG Version: 6.00 Build 0)  -->
<svg version="1.1" id="Capa_1" xmlns="http://www.w3.org/2000/svg" xmlns:xlink="http://www.w3.org/1999/xlink" x="0px" y="0px"
	 viewBox="0 0 512 512" style="enable-background:new 0 0 512 512;" xml:space="preserve">
<g>
	<g>
		<path d="M260.999,41H76V15c0-8.284-6.716-15-15-15S46,6.716,46,15v482c0,8.284,6.716,15,15,15s15-6.716,15-15V271h184.999
			c8.284,0,15-6.716,15-15V56C275.999,47.716,269.283,41,260.999,41z"/>
	</g>
</g>
<g>
	<g>
		<path d="M464.928,300.43L427.158,206l37.77-94.43c1.85-4.62,1.28-9.86-1.51-13.98c-2.79-4.12-7.44-6.59-12.42-6.59H305.999v165
			c0,24.81-20.19,45-45,45c-22.493,0-42.5,0-65,0v5c0,8.299,6.719,15,15,15h239.999c4.98,0,9.63-2.47,12.42-6.59
			C466.208,310.29,466.778,305.05,464.928,300.43z"/>
	</g>
</g>
<g>
</g>
<g>
</g>
<g>
</g>
<g>
</g>
<g>
</g>
<g>
</g>
<g>
</g>
<g>
</g>
<g>
</g>
<g>
</g>
<g>
</g>
<g>
</g>
<g>
</g>
<g>
</g>
<g>
</g>
</svg>
