<svg id="Capa_1" enable-background="new 0 0 512 512" height="512" viewBox="0 0 512 512" width="512" xmlns="http://www.w3.org/2000/svg"><path d="m259.626 0h-239c-11.046 0-20 8.954-20 20v159c0 11.046 8.954 20 20 20h99.739l69.7 60.601c1.963 1.707 4.259 2.473 6.505 2.473 5.159 0 10.057-4.044 10.057-10.019v-53.055h53c11.046 0 20-8.954 20-20v-159c-.001-11.046-8.956-20-20.001-20zm-199 55h82c8.284 0 15 6.716 15 15s-6.716 15-15 15h-82c-8.284 0-15-6.716-15-15s6.716-15 15-15zm159 90h-159c-8.284 0-15-6.716-15-15s6.716-15 15-15h159c8.284 0 15 6.716 15 15s-6.716 15-15 15z"/><circle cx="388.582" cy="280.702" r="58.347"/><path d="m511.304 500.825-6.453-54.539c-5.212-44.051-42.556-77.237-86.915-77.237h-60.62c-44.358 0-81.703 33.186-86.915 77.237l-6.453 54.539c-.704 5.947 3.942 11.175 9.931 11.175h227.494c5.988 0 10.634-5.228 9.931-11.175z"/></svg>