<svg width="342" height="342" viewBox="0 0 342 342" fill="none" xmlns="http://www.w3.org/2000/svg">
<g clip-path="url(#clip0)">
<path d="M168.563 164.742C191.196 164.742 210.794 156.625 226.807 140.609C242.82 124.597 250.937 105.004 250.937 82.3686C250.937 59.7412 242.82 40.1458 226.804 24.1277C210.789 8.11735 191.193 0 168.563 0C145.928 0 126.335 8.11735 110.322 24.1303C94.309 40.1432 86.189 59.7386 86.189 82.3686C86.189 105.004 94.309 124.599 110.325 140.612C126.34 156.622 145.936 164.742 168.563 164.742V164.742Z" fill="black"/>
<path d="M312.695 262.98C312.234 256.316 311.3 249.047 309.924 241.371C308.536 233.637 306.749 226.326 304.609 219.643C302.399 212.737 299.394 205.916 295.678 199.38C291.821 192.596 287.292 186.689 282.209 181.828C276.894 176.742 270.386 172.654 262.861 169.671C255.362 166.705 247.052 165.202 238.162 165.202C234.671 165.202 231.295 166.634 224.774 170.879C220.761 173.496 216.067 176.523 210.828 179.871C206.348 182.725 200.278 185.4 192.782 187.821C185.468 190.188 178.042 191.388 170.713 191.388C163.384 191.388 155.96 190.188 148.639 187.821C141.15 185.402 135.081 182.728 130.606 179.873C125.416 176.557 120.72 173.53 116.647 170.877C110.134 166.631 106.755 165.199 103.264 165.199C94.3715 165.199 86.0636 166.705 78.5672 169.674C71.0473 172.651 64.5373 176.74 59.217 181.83C54.1368 186.694 49.6045 192.599 45.7533 199.38C42.0403 205.916 39.0344 212.734 36.8218 219.646C34.6848 226.328 32.8975 233.637 31.5093 241.371C30.1343 249.037 29.2001 256.309 28.7383 262.988C28.2843 269.532 28.0547 276.324 28.0547 283.184C28.0547 301.036 33.7298 315.489 44.9209 326.148C55.9737 336.665 70.5986 342.001 88.3832 342.001H253.058C270.843 342.001 285.463 336.668 296.518 326.148C307.712 315.497 313.387 301.041 313.387 283.181C313.384 276.29 313.152 269.493 312.695 262.98V262.98Z" fill="black"/>
</g>
<defs>
<clipPath id="clip0">
<rect width="342" height="342" fill="white"/>
</clipPath>
</defs>
</svg>
