<svg height="511pt" viewBox="-39 0 511 511.98946" width="511pt" xmlns="http://www.w3.org/2000/svg"><path d="m237.539062 46.257812c0 25.550782-20.710937 46.261719-46.261718 46.261719-25.546875 0-46.257813-20.710937-46.257813-46.261719 0-25.546874 20.710938-46.257812 46.257813-46.257812 25.550781 0 46.261718 20.710938 46.261718 46.257812zm0 0"/><path d="m426.230469 192.417969h-50.246094c-.601563-3.570313-3.699219-6.292969-7.4375-6.292969h-21.824219v-2.855469c0-6.914062-5.605468-12.515625-12.515625-12.515625h-29v-7.710937c0-2.613281-2.117187-4.730469-4.730469-4.730469h-10.230468c-2.613282 0-4.730469 2.117188-4.730469 4.730469v7.710937h-4.621094c-6.914062 0-12.515625 5.601563-12.515625 12.515625v.671875l2.460938 1.078125c19.347656 8.480469 28.15625 31.042969 19.675781 50.390625-4.152344 9.472656-11.6875 16.410156-20.558594 20.039063 2.136719 3.835937 6.230469 6.4375 10.933594 6.4375h7.300781l-76.035156 233.777343c-2.128906 6.546876 1.449219 13.578126 7.996094 15.707032s13.578125-1.453125 15.707031-8l59.917969-184.222656v180.371093c0 6.882813 5.582031 12.464844 12.464844 12.464844 6.882812 0 12.464843-5.582031 12.464843-12.464844v-180.367187l59.914063 184.222656c2.128906 6.535156 9.15625 10.128906 15.707031 7.996094 6.546875-2.128906 10.128906-9.160156 8-15.707032l-76.035156-233.777343h5.910156c6.910156 0 12.515625-5.605469 12.515625-12.515625v-2.855469h21.824219c3.742187 0 6.835937-2.722656 7.441406-6.292969h50.242187c4.316407 0 7.8125-3.496094 7.8125-7.808594v-32.1875c0-4.3125-3.496093-7.808593-7.808593-7.808593zm0 0"/><path d="m274.679688 228.46875c4.648437-10.601562-.179688-22.960938-10.78125-27.609375l-76.046876-33.339844-50.535156-53.683593 53.5625 36.128906 34.296875 15.039062 59.234375-15.511718c10.992188-2.878907 18.117188-13.878907 15.632813-24.96875-2.613281-11.644532-14.324219-18.703126-25.765625-15.710938l-77.972656 20.417969-24.199219-13.1875c-2.101563-10.210938-9.019531-19.253907-19.351563-23.621094l-17.757812-7.503906c-35.707032-15.089844-76.773438 3.449219-89.035156 40.269531l-37.488282 112.082031c-3.410156 10.1875-4.441406 21.019531-3.019531 31.667969l12.859375 96.210938-17.539062 117.988281c-2.042969 13.738281 7.4375 26.53125 21.175781 28.574219 13.859375 2.054687 26.550781-7.550782 28.578125-21.179688l18.039062-121.339844c.332032-2.226562.363282-4.488281.089844-6.726562l-9.410156-77.65625 15.519531 1.886718 21.914063 80.320313-17.265626 116.121094c-2.042968 13.738281 7.441407 26.53125 21.179688 28.574219 13.824219 2.054687 26.546875-7.527344 28.574219-21.175782l18.042969-121.34375c.511718-3.445312.300781-6.957031-.613282-10.320312l-27.796875-101.890625 23.347657-55.246094-31.574219-55.152344 49.6875 52.785157c1.933593 2.054687 4.261719 3.695312 6.847656 4.828124l79.960937 35.054688c10.644532 4.664062 22.980469-.222656 27.609376-10.78125zm0 0"/></svg>