<svg width="612" height="612" viewBox="0 0 612 612" fill="none" xmlns="http://www.w3.org/2000/svg">
<g clip-path="url(#clip0)">
<path d="M537.009 52.103C495.661 52.103 462.018 85.744 462.018 127.094C462.018 149.892 472.256 170.331 488.365 184.097L417.899 317.978C411.685 316.306 405.163 315.4 398.429 315.4C382.337 315.4 367.423 320.513 355.196 329.174L301.571 280.805C307.701 269.943 311.219 257.417 311.219 244.082C311.219 202.731 277.576 169.091 236.225 169.091C194.877 169.091 161.234 202.732 161.234 244.082C161.234 264.043 169.088 282.191 181.85 295.642L101.968 414.955C93.59 411.713 84.499 409.915 74.99 409.915C33.64 409.915 0 443.556 0 484.906C0 526.256 33.64 559.897 74.991 559.897C116.339 559.897 149.982 526.256 149.982 484.906C149.982 464.945 142.128 446.795 129.366 433.344L209.248 314.031C217.626 317.273 226.717 319.071 236.226 319.071C252.321 319.071 267.232 313.958 279.462 305.296L333.084 353.665C326.957 364.527 323.438 377.052 323.438 390.388C323.438 431.738 357.081 465.379 398.429 465.379C439.78 465.379 473.423 431.738 473.423 390.388C473.423 367.59 463.182 347.151 447.076 333.386L517.54 199.506C523.754 201.178 530.276 202.085 537.01 202.085C578.361 202.085 612.001 168.444 612.001 127.094C612 85.744 578.36 52.103 537.009 52.103ZM74.991 526.902C51.834 526.902 32.995 508.063 32.995 484.906C32.995 461.749 51.834 442.91 74.991 442.91C98.148 442.91 116.987 461.749 116.987 484.906C116.987 508.063 98.148 526.902 74.991 526.902ZM236.225 286.077C213.068 286.077 194.229 267.238 194.229 244.083C194.229 220.926 213.068 202.087 236.225 202.087C259.382 202.087 278.224 220.926 278.224 244.083C278.224 267.238 259.382 286.077 236.225 286.077ZM356.434 390.389C356.434 367.235 375.273 348.396 398.43 348.396C421.587 348.396 440.429 367.235 440.429 390.389C440.429 413.546 421.587 432.385 398.43 432.385C375.273 432.385 356.434 413.546 356.434 390.389ZM537.009 169.09C513.852 169.09 495.013 150.251 495.013 127.094C495.013 103.937 513.852 85.098 537.009 85.098C560.166 85.098 579.005 103.937 579.005 127.094C579.005 150.252 560.166 169.09 537.009 169.09Z" fill="black"/>
<rect x="521" y="279.526" width="91" height="18.3838" rx="4" fill="black"/>
<rect x="576.151" y="240" width="96.5152" height="19.303" rx="4" transform="rotate(90 576.151 240)" fill="black"/>
</g>
<defs>
<clipPath id="clip0">
<rect width="612" height="612" fill="white"/>
</clipPath>
</defs>
</svg>
