<svg id="Capa_1" enable-background="new 0 0 510 510" height="512" viewBox="0 0 510 510" width="512" xmlns="http://www.w3.org/2000/svg"><g><path d="m510 446v34c0 16.54-13.46 30-30 30h-450c-16.54 0-30-13.46-30-30v-34c0-16.54 13.46-30 30-30h450c16.54 0 30 13.46 30 30z"/><path d="m48 196v190h414c0-8.576 0-180.633 0-190h-94v156h-66v-156h-94v156h-66v-156z"/><path d="m15 166h480c15.338 0 20.771-20.471 7.395-28.05l-240-136c-4.587-2.6-10.203-2.6-14.79 0l-240 136c-13.344 7.561-7.98 28.05 7.395 28.05z"/></g></svg>