<svg id="Capa_1" enable-background="new 0 0 512 512" height="512" viewBox="0 0 512 512" width="512" xmlns="http://www.w3.org/2000/svg"><g><path d="m110 402h108.091l-108.091-108.2z"/><path d="m397.899 432.4-10.799 10.5c-5.7 6-15.3 6-21 0-6-5.7-6-15.3 0-21l10.501-10.8-21.301-21.301-10.499 10.801c-6 5.7-15.3 5.7-21.301 0-5.7-6-5.7-15.3 0-21.301l10.8-10.499-21.299-21.3-10.501 10.499c-6 6-15.599 6-21.299 0-6-5.7-6-15.298 0-20.999l10.499-10.801-21-20.999-10.8 10.5c-5.7 6-15.3 6-21.301 0-5.7-6-5.7-15.3 0-21.301l10.801-10.499-21.3-21.301-10.501 10.8c-5.999 5.7-15.298 5.7-21.299 0-6-5.999-6-15.599 0-21.299l10.499-10.8-21-21-10.799 10.499c-5.7 6-15.3 6-21 0-5.999-5.7-5.999-15.3 0-21.299l10.501-10.501-21.301-21.298-10.5 10.799c-6 5.7-15.3 5.7-21.301 0-5.7-6-5.7-15.3 0-21.301l10.8-10.499-21.298-21.3-10.801 10.499c-5.698 6-15.298 6-20.999 0-6-5.698-6-15.298 0-20.999l10.499-10.801-54.101-53.099c-4.198-4.2-10.499-5.4-16.199-3.001-5.7 2.1-9.3 7.8-9.3 13.801v425.2c0 4.2 1.8 7.8 4.501 10.499 2.699 2.701 6.299 4.501 10.499 4.501h425.2c6 0 11.7-3.6 13.799-9.3 2.401-5.7 1.201-12-2.999-16.201zm-129.8-9.7c-2.399 5.7-7.8 9.3-13.799 9.3h-159.3c-4.2 0-8.101-1.5-10.801-4.2-2.699-2.699-4.199-6.599-4.199-10.8v-159.3c0-6 3.6-11.4 9.3-13.801 5.4-2.399 11.999-1.199 16.199 3.301l159.3 159.3c4.501 4.201 5.7 10.801 3.3 16.2z"/><path d="m155.704 75.377h60v120h-60z" transform="matrix(.707 -.707 .707 .707 -41.334 170.964)"/><path d="m217.524 18.705-31.82 31.82 84.853 84.853 31.82-31.82c5.863-5.863 5.863-15.352 0-21.215l-63.64-63.638c-5.863-5.863-15.35-5.863-21.213 0z"/><path d="m342.229 255.689h89.999v120h-89.999z" transform="matrix(.707 -.707 .707 .707 -109.809 366.275)"/><path d="m492.369 191.656-90.483 32.623 76.754 76.754 32.704-90.402c3.583-10.792-8.183-22.558-18.975-18.975z"/><path d="m237.982 154.017h150.001v89.999h-150.001z" transform="matrix(.707 -.707 .707 .707 -49.057 279.598)"/><path d="m494.096.255-120.414 35.561c-5.283 1.057-9.582 4.858-11.29 9.965l-13.539 40.613 27.77 27.77 31.82-31.82c5.863-5.861 15.35-5.861 21.213 0 5.863 5.863 5.863 15.352 0 21.215l-31.82 31.82 27.77 27.77 40.615-13.539c5.107-1.708 8.908-6.008 9.965-11.29l35.561-120.414c1.967-9.842-7.811-19.62-17.651-17.651z"/></g></svg>