<?xml version="1.0" encoding="utf-8"?>
<!-- Generator: Adobe Illustrator 27.0.0, SVG Export Plug-In . SVG Version: 6.00 Build 0)  -->
<svg version="1.1" id="Livello_1" xmlns="http://www.w3.org/2000/svg" xmlns:xlink="http://www.w3.org/1999/xlink" x="0px" y="0px"
	 viewBox="0 0 309.3 66.7" style="enable-background:new 0 0 309.3 66.7;" xml:space="preserve">
<style type="text/css">
	.st0{fill:#2F2A17;}
	.st1{fill:none;stroke:#2F2A17;stroke-width:0.3;stroke-miterlimit:10;}
	.st2{fill-rule:evenodd;clip-rule:evenodd;fill:#2F2A17;}
	.st3{fill:#8E1C15;}
</style>
<g>
	<g>
		<path class="st0" d="M275.4,7.9c-14,0-25.4,11.4-25.4,25.4c0,14,11.4,25.4,25.4,25.4c14,0,25.4-11.4,25.4-25.4
			C300.8,19.3,289.4,7.9,275.4,7.9 M275.4,58c-13.6,0-24.7-11.1-24.7-24.7c0-13.6,11.1-24.7,24.7-24.7c13.6,0,24.7,11.1,24.7,24.7
			C300.1,46.9,289,58,275.4,58"/>
		<path class="st0" d="M290.3,31.4c-0.4-0.7-0.1-1.2-0.2-1.8c-0.1-0.4-0.7-1.7-1-2.6c-0.2-0.4,0.9-0.3,0.1-1.9c0,0,1.1-0.5,0-1.3
			c-0.6-0.5-1.1-1.1-1.4-1.6c0-0.1-0.1-0.2,0-0.3c0.6-0.6,0.7-1.4,0-1.8c-0.5-0.3-1.1,0-1.6,0.4c-0.2,0.1-0.3,0.2-0.4,0.1
			c-0.1,0-0.3-0.2-0.4-0.3c0.7-0.6,0.8-1.3,0.7-1.4c0-0.1-1.1-0.3-2.5,0.2c0,0-0.1,0-0.1-0.1c0.6-1,0.2-1.6,0.2-1.7c0,0,0,0,0,0
			c1-1.4,2-2.3,3-3.2l0,0c0.1-0.1,0.1-0.1,0-0.2c-0.1-0.1-0.1-0.1-0.3-0.1c-3.3-1.8-7-2.8-10.8-2.8c-12.3,0-22.3,10-22.3,22.3
			c0,7.1,3.6,14,9.5,18.3c0.4,0.3,0.7,0.4,0.7,0.4c0.1,0,0.2,0,0.3,0l0.1-0.1c0.1-0.1,0.1-0.1,0.1-0.2c0-0.2-0.2-0.3-0.5-0.7
			c-0.8-1.2-1.2-2.5-1.2-3.7c0-1.2,0.4-2.4,1.1-3.3c0.9,0.9,2.8,2.6,2.8,4.2c0,1.7-1.7,1.7-1.3,3c0.2,0.8,0.8,0.5,0.9,1.1
			c0.2,1.1,1.6,1.8,2.3,1.7c0.2,0,0.3,0.1,0.6,0.4c0.4,0.4,1.5,0.4,2,0.3c0.4-0.1,1,0.3,1.9,0.2c1.2-0.1,1.5-0.2,2-0.2
			c0.8,0,5.4-0.1,8.7,0.4c0.6,0.1,0.7-0.2,0.5-0.6c-1.2-2.1-1.4-3.8-0.7-6c1.2,0.1,2.9,0.4,5.2-1c0.8-0.5,1.3-1.5,1.2-2.3
			c0-0.5-0.2-1.1-0.1-1.6c0.2-0.7,0.3-0.6,0.5-0.8c0.9-0.6,0.2-1.1,0.1-1.2c0.3-0.1,0.6-0.7,0.2-1.1c-0.2-0.2-0.6-1.5-0.1-1.8
			c0.6-0.3,1.3-0.4,1.9-0.7c0.5-0.2,0.8-0.7,0.6-1.5C292.2,35.6,290.4,31.5,290.3,31.4 M265.7,51.2c-0.2,0-0.7,0.1-0.6-0.7
			c0.1-0.4,0.6-0.6,0.8-0.4C265.9,50.5,265.7,50.9,265.7,51.2 M286.7,20.8c0.3-0.2,0.6-0.3,0.8-0.1c0.6,0.6-0.7,1-0.4,1.5
			c0.5,0.8,1.2,1.5,1.8,2c0.3,0.2,0.3,0.7-0.8,1c-1.1,0.2-5.7,1.4-8.1,4c-3,3.2-4.9,7.3-5.2,6.8c-0.3-0.6-0.9-0.7-0.8-0.8
			C278.3,27.7,285.1,21.8,286.7,20.8 M288.7,26c-0.2,0.7-2.2,1.3-2.1,0.8c0-0.2,0-0.5,0.2-0.5c0.2,0,0.8-0.3,1.8-0.5
			C288.6,25.8,288.8,25.9,288.7,26 M283.7,27.3c0-0.3,2.1-1,2.1-0.8c0.1,0.4-0.4,1.4-1.1,1.7c-0.8,0.3-1.1,0.2-1.1,0.1
			C283.7,28.1,283.8,27.6,283.7,27.3 M278.8,38.3c-1,0.6-1.5-0.5-1.6-0.7c-0.1-0.1-0.2-0.3-0.1-0.8c0.1-0.3,0.1-0.8-0.1-2.2
			c-0.1-0.6,1.2-2.2,1.5-2.5c0.3-0.3,0.8,0.1,0.8,0.6c0.1,0.9-0.4,1.4-1,1.7c-0.6,0.5-0.7,1.1-0.6,1.2c0,0.1,0.3,0.1,0.5-0.2
			c0.4-0.8,1.5-1.2,1.6-1.6c0.3-0.7,0.1-1.1,0-1.4c0-0.2,0.2-0.3,0.4-0.3c0.2,0,0.3,0.3,0.4,0.6c0.7,1.8-1.1,2.9-1.3,3.3
			C279.2,36.4,279.6,37.9,278.8,38.3 M280.3,31.3c-0.5,0.4-1.3-0.1-1.1-0.3c1-1.4,2.3-2.3,2.8-2.7c0.8-0.5,0.9-0.6,1-0.3
			c0,0.2,0,1.1-0.6,1.8c-0.6,0.6-1.1,0.6-1.4,0.6C280.7,30.5,280.7,31,280.3,31.3 M275.6,37.5c-0.2-0.1-0.3-0.5-0.3-0.7
			c0.1-0.4,0.7-1.3,1-1.6c0.1-0.1,0.2,0,0.2,0.1C276.6,36.3,276.5,37.7,275.6,37.5 M283.4,19.6c0.9-0.4,1.7-0.4,1.8-0.4
			c0.2,0-0.4,1.2-1.6,1.6c-1.2,0.5-2.1,0.6-2.2,0.5C281.3,21.3,282.5,20,283.4,19.6 M263.3,38.5c-0.3-0.4-0.7-0.6-0.7-0.6
			c-0.1,0.1-0.7,1-0.9,2.2c-1.1-2.1-1.7-4.2-1.8-6.7c-0.3-8.6,6.8-15.4,15.6-15.4c2,0,3.6,0.4,5.4,1.1c-0.4,0.5-0.7,1.1-0.9,1.6
			c0-0.5-0.1-0.8-0.1-1.1c0-0.2-1.2,0.2-2.4,2c-0.3,0.4-0.4,0.9-0.5,1.3c0-0.7-0.2-1.2-0.2-1.2c-0.1,0-1.4,0.6-2.1,2.1
			c-0.1,0.3-0.2,0.6-0.3,0.8c-0.1-0.5-0.2-0.8-0.2-0.8c-0.1,0-1.4,0.6-2.1,2.2c-0.2,0.4-0.2,0.8-0.3,1.1c-0.1-0.6-0.3-0.9-0.4-0.8
			c-0.5,0.6-1.4,0.8-1.8,2.3c-0.1,0.3-0.2,0.7-0.2,1c-0.2-0.5-0.5-0.8-0.5-0.8c-0.1,0-1.5,1.3-1.7,2.6c-0.1,0.5,0,1,0,1.4
			c-0.3-0.4-0.6-0.7-0.7-1.2c-0.2,0.1-1.4,1.2-1.4,2.6c0,0.5,0.1,1,0.2,1.5c-0.4-0.7-0.9-1-1-1c-0.1,0.1-1,1-1.2,2.7
			C263.1,37.8,263.2,38.2,263.3,38.5 M281.2,19.2c0.7-0.8,1.9-1.5,2-1.4c0.1,0.1-0.2,1.3-1,2.1c-0.8,0.7-1.9,1.5-2.1,1.5
			C280,21.4,280.6,20,281.2,19.2 M278.9,22.4c-0.7,0.5-1,0.9-1.4,1.5c-0.1,0.2-0.5-1.2,0.4-2.6c0.5-0.8,1.6-1.6,1.6-1.5
			C279.5,20.2,280.1,21.5,278.9,22.4 M276.5,24.2c-0.8,1.2-0.9,0.8-1.8,2c0,0.1-0.1-1.6,0.3-2.3c0.5-1.1,1.4-1.8,1.5-1.8
			C276.6,22.1,276.9,23.5,276.5,24.2 M273.8,26.6c-0.4,0.7-0.8,0.6-1.5,1.6c-0.1,0.1-0.3-0.9,0.2-2.2c0.3-1,1.3-1.6,1.4-1.7
			C274.1,24.4,274.3,25.8,273.8,26.6 M271.3,29.2c-0.4,0.9-0.7,1-1.2,1.5c-0.1,0.1-0.5-0.9-0.1-2.1c0.3-1,1-1.4,1.3-1.7
			C271.4,26.8,271.8,28.2,271.3,29.2 M269.3,30.8c0,0.3,0,0.4-0.1,0.7c-0.3,1-0.9,1.5-1.3,2c-0.1-0.3-0.4-0.7-0.4-1.4
			c0-1.3,0.8-2.3,1.3-2.7C269,29.4,269.3,30.2,269.3,30.8 M267.2,33.9c0,1.5-1,2.3-1.2,2.6c-0.2-0.3-0.5-1-0.5-1.8
			c0-1.5,0.6-2.1,0.9-2.4C266.5,32.8,267.2,33.1,267.2,33.9 M264.3,35.4c0.4,0.2,0.9,0.8,1,2c0,1.2-0.8,2.1-1.1,2.3
			c-0.2-0.9-0.6-1.1-0.6-1.9C263.6,36.8,264.1,35.8,264.3,35.4 M266.1,38.5c1.1-0.5,2.3-0.4,2.4-0.4c0.1,0-0.4,1.4-1.4,2
			c-1.1,0.6-2.3,0.6-2.4,0.5C264.6,40.5,265,38.9,266.1,38.5 M266,37.6c0.1-0.4,0.7-1.6,1.7-2c1-0.4,2.1-0.4,2.3-0.4
			c0.1,0.1-0.4,1.3-1.4,1.8C267.4,37.6,267,37.3,266,37.6 M267.6,34.8c0-0.1,0.9-1.6,1.8-2c0.9-0.4,2.1-0.3,2.1-0.3
			c0.1,0-0.4,1.3-1.5,1.8C269,34.8,267.6,34.9,267.6,34.8 M269.8,31.9c-0.1-0.1,1.1-1.6,2-2c0.8-0.4,1.9-0.3,2-0.2
			c0.1,0.1-0.4,1.3-1.6,1.8C271.2,31.9,269.9,32,269.8,31.9 M272.4,29.1c-0.1,0,0.8-1.5,1.8-1.9c0.9-0.4,1.9,0,2.1,0
			c0.2,0-0.3,1.1-1.6,1.6C273.6,29.1,272.6,29.1,272.4,29.1 M275.3,26.3c0-0.1,1-1.4,2-1.8c0.9-0.3,2.1-0.1,2.2-0.1
			c0.1,0.1-0.7,1.2-1.9,1.6C276.5,26.4,275.3,26.4,275.3,26.3 M278.2,23.9c-0.1-0.1,1-1.4,2-1.7c0.9-0.4,1.9-0.3,2-0.2
			c0.1,0-0.6,1.2-1.7,1.6C279.4,24,278.3,24,278.2,23.9 M262.2,50.3c-5.2-4.2-8.4-10.4-8.4-17c0-11.9,9.7-21.6,21.6-21.6
			c3.5,0,7,0.9,10,2.5c0.1,0,0.1,0.1,0,0.2c-0.9,0.8-2.1,2.3-2.5,2.8c-2.4-1.1-4.9-1.7-7.6-1.7c-9.9,0-17.9,8-17.9,17.9
			c0,4.4,1.5,8.4,4.3,11.6c-0.2,0.4-0.4,1.2-0.4,2.3C261.4,48.1,261.6,49.2,262.2,50.3 M262.2,44.3
			C262.2,44.3,262.2,44.3,262.2,44.3c-2.6-3.1-4-6.8-4-11c0-9.5,7.7-17.2,17.2-17.2c2.5,0,4.9,0.5,7.2,1.6c-0.3,0.1-0.6,0.3-1,0.6
			c-2-0.8-4-1.2-6.2-1.2c-9,0-16.2,7.3-16.2,16.2c0,3.9,1.2,7.3,3.6,10.2C262.6,43.7,262.4,44,262.2,44.3 M263.1,43
			c-0.3-0.3-1-1-1.1-2c0,0,0-0.1,0-0.1c0-1,0.5-2.1,0.6-2.2c0.1-0.1,1.3,0.8,1.3,2.1C263.9,41.9,263.4,42.5,263.1,43 M265,41.2
			c0.9-0.4,2.3-0.3,2.2-0.3c-0.1,0.1-0.4,1.4-1.5,1.9c-1,0.5-1.7,0.4-2.1,0.3C264.2,42.6,264.1,41.7,265,41.2 M266.3,52.4
			c-0.2-0.6-0.1-1.5,0.1-1.7c0.4-0.2,1.2-0.3,1.2,0c0,0.4-0.3,1.3,0.1,2.5C267.6,53.3,266.5,53.2,266.3,52.4 M266.3,49.8
			c-0.1-0.5,0.4-0.9,0.4-2c0-1.3-1.6-3-2.7-4.2c0.5,0,1.2-0.1,1.9-0.5c1.6-0.7,1.9-2.4,2-2.5c0,0-0.4-0.1-0.9-0.1
			c0.1,0,0.1-0.1,0.2-0.1c1.6-0.8,2-2.6,1.9-2.7c0,0-0.4-0.1-1-0.1c0.2-0.1,0.3-0.1,0.5-0.2c1.7-0.7,2.1-2.5,2.1-2.6
			c0,0-0.4-0.1-0.8-0.1c0.1-0.1,0.3-0.1,0.4-0.2c1.5-0.7,2-2.4,2-2.5c0,0-0.3-0.1-0.8-0.1c0.3-0.1,0.7-0.2,1.1-0.4
			c1.6-0.7,2.1-2.3,2.1-2.3c0,0-0.3-0.1-0.7-0.1c0.3-0.1,0.7-0.2,1-0.3c1.6-0.5,2.2-2.1,2.1-2.1c-0.2,0-0.5-0.1-0.9-0.2
			c0.4,0,0.9-0.1,1.6-0.3c1.7-0.6,2.3-1.6,2.4-2.1c0,0-0.2-0.1-0.5-0.2c0.4-0.1,0.8-0.2,1.1-0.3c1.6-0.7,2.3-2.2,2.3-2.4
			c0.3-0.1,0.6-0.2,0.9-0.4c0.2-0.1,0.3-0.2,0.5-0.2c0.1,0.1,0.2,0.1,0.4,0.3c0.2,0.2,0.3,0.2,0.2,0.3c-5.5,4.7-9.6,10.6-11.4,13.4
			c-0.1,0.1-0.1,0.1-0.3,0.1c-1.9-0.1-3,2.2-2.1,4.3c-0.1,0.4-1,1.3-1.1,1.3c-0.1,0.1-0.3,0.3,0.1,0.3c0.4,0,1-0.8,1.3-1.1
			c0.1,0.1,0.5,0.5,0.3,0.7c-1.6,1.6-3.2,2.5-3.4,2.5c-0.6,0.3,1,0.5,3.8-2c0.2-0.1,0.4,0.6,0.6,0.9c-0.5,1.6,0.7,4.6,0.5,5.6
			c0,0.2-0.1,0.6-0.7,0.6c-2.8,0.1-3-0.1-4.4,0.3c-0.7,0.2-0.5,0.6,0,0.5c0.5-0.1,1.1-0.4,4.1-0.2c0.7,0,1.6-0.1,1.6-1.4
			c0-1.1-0.9-4.4-0.6-4.9c0.4,0.3,0.7,0.3,0.8,0.3c0,1.1,1.7,4.6,0.9,6.5c-0.3,0.7-1.6,0.7-3.7,0.4
			C267.6,49.4,266.4,50.2,266.3,49.8 M274.8,52.2c-1.4,0.5-2-1.2-1.8-1.5c0.1-0.2,1,0.2,1.8-0.2C275.4,50.1,275.7,51.9,274.8,52.2
			 M268.3,53.2c-0.2-0.9-0.3-2.4,0.1-2.8c0.1-0.1,1.2-0.2,1.2,0c-0.1,1.1-0.5,2.2,0.3,3.4C270.2,54.3,268.6,54.4,268.3,53.2
			 M271.1,54.2c-0.4-0.1-1.4-1.8-0.6-3.8c0.1-0.2,1.4-0.1,1.6,0c0.2,0.1-0.2,1.7,1.6,2.4C273.9,52.8,273.7,54.9,271.1,54.2
			 M282.5,48.6c-0.6,2.1-0.9,3,0,5.3c0.1,0.3,0.2,0.5-0.1,0.5c-1.9-0.3-2.3-0.6-8.1-0.1c-0.4,0,0.1-0.8,0.1-1.4
			c0.5-0.1,1.4-0.3,1.6-1.2c0.2-1.1-0.5-1.8-0.4-2c0.8-1.6-0.1-3.4-0.8-6.4c-0.1-0.3,0.1-0.4,0.2-0.3c3.8,4.1,6.2,4.9,7.5,5.3
			C282.5,48.3,282.5,48.4,282.5,48.6 M292.1,37.4c-0.8,0.7-2,0.8-2.5,1.2c-0.3,0.2-0.4,0.6-0.1,1.2c0.2,0.4,0.3,0.4-0.3,0.6
			c-0.9,0.2-1,1.4-2.1,1.2c-0.4-0.1-0.1,0.2,0,0.2c0.6,0.1,0.9-0.1,1.1-0.3c0.2-0.2,0.5-0.6,0.9-0.7c0.4-0.1,0.7-0.1,0.7,0.1
			c0,0.2-0.4,0.5-0.6,0.6c0.2,0.1,0.9,0.5,0.3,0.9c-0.5,0.3-1.1-0.1-1.2-0.2c-0.1-0.1-0.4,0-0.3,0.1c0.3,0.4,1.3,0.3,1.1,0.5
			c-0.9,1.1-0.2,1.8-0.4,3c-0.3,1.2-1.9,1.8-3.1,2c-4.2,0.8-8.3-2.8-10.7-5.5c0.2-0.5,0.2-1.2,0-0.9c-0.2,0.2-0.2,0.6-0.7,0.7
			c-1,0.2-1.4-1.4-1.7-1.7c-1.2-1.1-1.6-2.8-0.9-4.2c0.7-1.4,2.2-1.1,2.8-0.3c0.7,1.1,0.4,1.7,0.8,2c0.6,0.5,1.2,0,1.3,0
			c0.4-0.1,0.4,1,1.9,1c1.6-0.1,1.4-2.6,1.7-2.8c2.1-2,1-3.8,0.6-4.3c-0.1-0.1,0.2-0.9,0.4-0.9c1.2-0.3,1.9-1.1,2.3-1.9
			c0,0,2,0,2.8-1.5c0.2-0.4,0.8,0.4,2.1-0.7c0.2-0.1,0.3-0.1,0.4,0.1c0.9,2.1,1.2,2.7,1.2,3.8c0,0.8,2.1,5.2,2.3,5.6
			C292.3,36.8,292.3,37.3,292.1,37.4"/>
		<path class="st0" d="M287.2,29.7c-1.2,0-2.6,1.5-3,1.7c-0.5,0.2-0.3,0.3,0,0.2c0.6-0.2,1.4-1.1,2.6-1.5c0.9-0.3,0.9,0.4,1.2,0.4
			C288.1,30.5,287.9,29.7,287.2,29.7"/>
		<path class="st0" d="M287.5,30.9c-0.1,0,0.1,0.5-0.4,0.6c-1.1,0.1-2,1.1-2.7,1.4c-0.7,0.3-0.8,0.3-0.9,0.3c-0.1,0-0.1,0.1,0,0.2
			c2.8,0.4,3.9,0.3,3.9,0.2c0-0.2-0.2-0.3-0.1-0.4c0.1-0.3,0.2-0.9,0-1.3c-0.1-0.2,0.4-0.1,0.4-0.3
			C287.8,31.3,287.6,30.8,287.5,30.9 M287,33.1c-0.1,0.2-1.3,0.1-2,0.1c-0.2,0-0.4,0,0.1-0.4c0.4-0.2,1-0.7,1.7-0.8
			c0.1,0,0.2,0,0.2,0.1C287.1,32.5,287.1,32.9,287,33.1"/>
		<path class="st0" d="M290.7,37.1c-0.2,0-1.1,0.4-1.4,0.6c-0.2,0.1-1.1,0.7-1-0.2c0-0.3,0.2-1.1,0.2-1.3c0-0.3-0.3-0.2-0.3,0
			c0,0.4-0.1,0.8-0.2,1.3c-0.1,0.4,0.3,1,0.9,0.7c0.5-0.3,1.2-0.7,1.7-0.8C290.9,37.4,290.9,37.1,290.7,37.1"/>
		<path class="st0" d="M274.3,40.2c-0.2-0.1-0.1,0.3-0.3,0.2c-0.3-0.1,0-0.3-0.4-0.7c-0.2-0.2-0.7-0.3-1-0.9
			c-0.6-0.9-0.1-2.9,0.7-2.6c0.5,0.2,0.4,1.2,0.2,1.9c-0.1,0.4,0.6,0.7,0.7,0.5c0.1-0.3-0.3-0.2-0.3-0.5c-0.1-0.4,0.8-1.8-0.4-2.3
			c-0.9-0.3-1.5,0.9-1.4,2.2c0.1,1.1,0.8,1.5,1.2,1.7c0.6,0.2,0.1,1,0.9,1C274.5,40.8,274.5,40.3,274.3,40.2"/>
		<path class="st0" d="M281.8,16c0,0,0.1,0,0.1,0l1.6-2c0-0.1,0-0.1,0-0.2c-0.1,0-0.2-0.1-0.3-0.1c0,0-0.1,0-0.1,0l-1.6,2
			c0,0.1,0,0.1,0,0.2C281.6,15.9,281.7,16,281.8,16"/>
		<path class="st0" d="M278.9,15.2c0.1,0,0.2,0,0.3,0.1c0,0,0.1,0,0.1-0.1l0.9-2.3c0-0.1,0-0.1-0.1-0.1c-0.1,0-0.2,0-0.3-0.1
			c0,0-0.1,0-0.1,0c-0.1,0.3-0.8,1.9-0.9,2.3C278.8,15.1,278.8,15.2,278.9,15.2"/>
		<path class="st0" d="M275.6,14.9c0.1,0,0.2,0,0.3,0c0.1,0,0.1,0,0.1-0.1l0.2-2.4c0-0.1,0-0.1-0.1-0.1l-0.3,0c-0.1,0-0.1,0-0.1,0.1
			l-0.2,2.4C275.5,14.8,275.6,14.9,275.6,14.9"/>
		<path class="st0" d="M272.5,15.1c0.1,0,0.2,0,0.3,0c0.1,0,0.1-0.1,0.1-0.1l-0.5-2.4c0-0.1-0.1-0.1-0.1-0.1c-0.1,0-0.2,0-0.3,0
			c-0.1,0-0.1,0.1-0.1,0.1l0.5,2.4C272.4,15.1,272.4,15.1,272.5,15.1"/>
		<path class="st0" d="M269.3,15.9c0,0,0.1,0.1,0.1,0c0.1,0,0.2-0.1,0.3-0.1c0.1,0,0.1-0.1,0.1-0.1l-1.1-2.2c0,0-0.1-0.1-0.1,0
			c-0.1,0-0.2,0.1-0.3,0.1c-0.1,0-0.1,0.1-0.1,0.1L269.3,15.9z"/>
		<path class="st0" d="M266.2,17.2c0,0,0.1,0,0.1,0c0.1,0,0.2-0.1,0.2-0.1c0.1,0,0.1-0.1,0-0.1l-1.6-1.9c0,0-0.1,0-0.1,0
			c-0.1,0-0.2,0.1-0.2,0.1c-0.1,0-0.1,0.1,0,0.1L266.2,17.2z"/>
		<path class="st0" d="M263.5,19.2c0,0,0.1,0,0.1,0c0.1-0.1,0.1-0.1,0.2-0.2c0.1,0,0-0.1,0-0.2l-2.1-1.4c0,0-0.1,0-0.1,0
			c-0.1,0.1-0.1,0.1-0.2,0.2c0,0,0,0.1,0,0.2L263.5,19.2z"/>
		<path class="st0" d="M261,21.7c0,0,0.1,0,0.1,0c0.1-0.1,0.1-0.1,0.2-0.2c0-0.1,0-0.1,0-0.2l-2.4-0.9c0,0-0.1,0-0.1,0
			c-0.1,0.1-0.1,0.2-0.2,0.2c0,0.1,0,0.1,0,0.2L261,21.7z"/>
		<path class="st0" d="M256.5,24.3l2.5,0.4c0,0,0.1,0,0.1-0.1c0-0.1,0.1-0.2,0.1-0.3c0-0.1,0-0.1-0.1-0.1l-2.6-0.4
			c0,0-0.1,0-0.1,0.1c0,0.1-0.1,0.2-0.1,0.3C256.4,24.2,256.5,24.3,256.5,24.3"/>
		<path class="st0" d="M255.1,28.2l2.6-0.2c0,0,0.1,0,0.1-0.1c0-0.1,0.1-0.2,0.1-0.3c0-0.1,0-0.1-0.1-0.1l-2.6,0.2
			c0,0-0.1,0-0.1,0.1c0,0.1-0.1,0.2-0.1,0.3C255,28.1,255.1,28.2,255.1,28.2"/>
		<path class="st0" d="M257.1,31.3c0-0.1,0-0.2,0-0.3c0-0.1-0.1-0.1-0.1-0.1l-2.5,0.9c0,0-0.1,0-0.1,0.1c0,0.1,0,0.2,0,0.3
			c0,0.1,0.1,0.1,0.1,0.1L257.1,31.3C257.1,31.3,257.1,31.3,257.1,31.3"/>
		<path class="st0" d="M257,34.7c0-0.1,0-0.2,0-0.3c0-0.1-0.1-0.1-0.2-0.1l-2.3,1.5c0,0,0,0.1,0,0.1c0,0.1,0,0.2,0,0.3
			c0,0.1,0.1,0.1,0.2,0.1L257,34.7C257,34.8,257.1,34.7,257,34.7"/>
		<path class="st0" d="M257.6,38.2c0-0.1-0.1-0.2-0.1-0.3c0-0.1-0.1-0.1-0.2,0l-1.9,2c0,0,0,0.1,0,0.1c0,0.1,0.1,0.2,0.1,0.3
			c0,0.1,0.1,0.1,0.2,0L257.6,38.2C257.6,38.2,257.6,38.2,257.6,38.2"/>
		<path class="st0" d="M258.6,41.2l-1.3,2.5c0,0,0,0.1,0,0.1c0.1,0.1,0.1,0.2,0.2,0.3c0,0.1,0.1,0.1,0.2,0l1.3-2.5c0,0,0-0.1,0-0.1
			c0-0.1-0.1-0.2-0.1-0.3C258.7,41.1,258.6,41.1,258.6,41.2"/>
		<path class="st0" d="M260.4,44c0-0.1-0.2,0-0.2,0l-0.7,2.9c0,0,0,0.1,0,0.1c0.1,0.1,0.1,0.2,0.2,0.3c0.1,0.1,0.2,0,0.2,0l0.7-2.9
			c0,0,0-0.1,0-0.1C260.6,44.2,260.5,44.1,260.4,44"/>
	</g>
	<line class="st1" x1="241.3" y1="7.9" x2="241.3" y2="58.8"/>
	<g>
		<g>
			<path class="st0" d="M232.6,30.9c0-0.2,0-0.5-0.1-0.7c0-0.2,0-0.5-0.1-0.7l0-0.1c-0.1-0.6-0.1-1.1-0.2-1.7
				c-0.1-0.7-0.3-1.5-0.5-2.4c-0.2-0.8-0.4-1.5-0.6-2.3c-0.1-0.2-0.1-0.4-0.2-0.5c-0.1-0.3-0.2-0.6-0.3-0.9
				c-0.1-0.2-0.2-0.5-0.3-0.7l-0.1-0.2c-0.1-0.2-0.2-0.5-0.3-0.7c-0.1-0.2-0.2-0.4-0.3-0.7c-0.2-0.3-0.3-0.7-0.5-1
				c-0.2-0.4-0.4-0.7-0.6-1l-0.1-0.1c-0.2-0.3-0.3-0.5-0.5-0.8l-0.1-0.2c-0.3-0.5-0.6-0.9-1-1.3c-0.1-0.1-0.2-0.2-0.3-0.4
				c-0.2-0.3-0.5-0.6-0.8-0.9c-0.2-0.2-0.4-0.4-0.6-0.6c-0.2-0.1-0.3-0.3-0.5-0.4c-0.3-0.3-0.5-0.5-0.8-0.7l-0.2-0.2
				c-0.3-0.3-0.7-0.6-1.1-0.8c-0.3-0.2-0.7-0.4-1-0.7l-0.4-0.2c-0.1-0.1-0.3-0.2-0.4-0.3c-0.4-0.2-0.9-0.4-1.4-0.7
				c-0.7-0.3-1.3-0.5-2-0.7c-0.6-0.2-1.2-0.3-1.7-0.3c-0.1,0-0.2,0-0.3,0c-0.1,0-0.3,0-0.4-0.1c-0.4,0-0.8,0-1.2,0
				c-0.5,0-1,0-1.4,0.1c-0.4,0-0.8,0.1-1.2,0.2l-0.2,0c-0.7,0.1-1.4,0.3-2.1,0.6c-0.5,0.2-1.1,0.4-1.7,0.7c-0.4,0.2-0.8,0.4-1.2,0.7
				c-0.3,0.2-0.7,0.4-1.1,0.7c-0.3,0.2-0.5,0.4-0.8,0.6c-0.3,0.2-0.6,0.5-0.9,0.7l-0.1,0.1c-0.2,0.2-0.4,0.3-0.6,0.5
				c-0.1,0.1-0.2,0.3-0.4,0.4c-0.2,0.2-0.4,0.4-0.5,0.6c-0.1,0.1-0.2,0.2-0.3,0.3c-0.1,0.1-0.2,0.2-0.3,0.3l-0.1,0.2
				c-0.3,0.4-0.7,0.8-1,1.3l-0.2,0.3c-0.2,0.3-0.3,0.5-0.5,0.8c-0.2,0.3-0.4,0.6-0.6,0.9c-0.2,0.4-0.4,0.7-0.6,1.1l-0.1,0.2
				c0,0.1-0.1,0.1-0.1,0.2c0,0.1-0.1,0.1-0.1,0.2c-0.3,0.5-0.5,1-0.7,1.7c-0.3,0.8-0.6,1.5-0.8,2.2c-0.2,0.8-0.4,1.5-0.6,2.2
				c-0.1,0.5-0.2,1-0.3,1.5l0,0.1c-0.1,0.3-0.1,0.7-0.2,1c-0.1,0.4-0.1,0.8-0.2,1.2c0,0.3-0.1,0.5-0.1,0.8l0,0.3
				c0,0.3,0,0.5-0.1,0.8c0,0.2,0,0.5,0,0.7c0,0.1,0,0.3,0,0.4l0,0.4c0,0.2,0,0.4,0,0.6l0,0.2c0,0.3,0,0.6,0,0.9
				c0,0.7,0.1,1.2,0.1,1.8c0.1,0.8,0.2,1.5,0.3,2.1c0.1,0.4,0.1,0.9,0.2,1.3l0,0.2c0.1,0.3,0.1,0.6,0.2,0.9l0.1,0.3
				c0.2,0.6,0.3,1.2,0.5,1.8c0.2,0.7,0.5,1.4,0.7,2c0.2,0.5,0.3,0.9,0.5,1.3c0.1,0.1,0.1,0.3,0.2,0.4c0.2,0.4,0.4,0.8,0.6,1.2
				c0.1,0.2,0.2,0.4,0.3,0.6c0.1,0.2,0.3,0.5,0.4,0.7c0.5,0.8,0.9,1.5,1.4,2c0.1,0.1,0.1,0.2,0.2,0.3c0.1,0.2,0.3,0.4,0.4,0.6
				c0.2,0.2,0.5,0.5,0.8,0.8c0.3,0.3,0.7,0.7,1.1,1.1l0.1,0.1c0.4,0.3,0.8,0.7,1.2,1c0.5,0.3,0.9,0.7,1.4,1c0.4,0.3,0.9,0.5,1.3,0.7
				c0.3,0.1,0.6,0.3,0.9,0.5c0.4,0.2,0.8,0.3,1.2,0.4c0.7,0.2,1.3,0.4,1.8,0.5c0.3,0.1,0.7,0.1,1,0.1l0.4,0c0.2,0,0.3,0,0.5,0
				c0.2,0,0.4,0,0.6,0l0.5,0c0.1,0,0.2,0,0.3,0c0.1,0,0.2,0,0.3,0c0.1,0,0.3,0,0.4,0c0.1,0,0.2,0,0.3,0c0.6,0,1.3-0.2,1.9-0.3
				c0.7-0.2,1.4-0.4,2.2-0.7c0.5-0.2,1-0.5,1.5-0.8c0.5-0.3,1-0.6,1.5-0.9c0.1,0,0.1-0.1,0.2-0.1c0.1,0,0.1-0.1,0.2-0.1l0.1-0.1
				c0.2-0.1,0.4-0.3,0.6-0.5c0.2-0.2,0.5-0.4,0.7-0.6l0.3-0.3c0.1-0.1,0.2-0.1,0.2-0.2c0.2-0.1,0.3-0.3,0.5-0.4
				c0.2-0.2,0.3-0.3,0.5-0.5l0.1-0.1c0.1-0.1,0.3-0.3,0.4-0.4c0.2-0.2,0.3-0.4,0.5-0.5c0.4-0.5,0.8-1,1.1-1.5l0.1-0.1
				c0.3-0.4,0.5-0.7,0.7-1.1l0.2-0.4c0,0,0.1-0.1,0.1-0.2l0.1-0.3c0.1-0.2,0.2-0.5,0.4-0.7c0.2-0.4,0.4-0.8,0.6-1.1
				c0.2-0.4,0.3-0.7,0.5-1.1l0.1-0.3c0.1-0.3,0.2-0.6,0.3-0.8c0.2-0.7,0.5-1.6,0.8-2.5c0.1-0.4,0.2-0.7,0.3-1.1
				c0-0.2,0.1-0.3,0.1-0.5c0.2-0.8,0.3-1.7,0.5-2.8c0.1-0.6,0.1-1.2,0.2-1.9c0-0.5,0.1-0.9,0.1-1.4c0-0.2,0-0.4,0-0.6
				C232.7,32.7,232.7,31.8,232.6,30.9z M232,35.1c0,0.1,0,0.1,0,0.1c0,0.3,0,0.5-0.1,0.8l-0.1,0.5c-0.1,0.6-0.1,1.1-0.2,1.7
				c0,0.3-0.1,0.7-0.2,1l-0.1,0.4c-0.1,0.5-0.2,1-0.3,1.5c-0.1,0.6-0.3,1.1-0.5,1.7c-0.1,0.4-0.3,1-0.5,1.5
				c-0.1,0.3-0.2,0.6-0.4,0.9l0,0.1c-0.2,0.5-0.4,0.9-0.6,1.4c-0.1,0.2-0.2,0.5-0.4,0.7c-0.1,0.2-0.2,0.4-0.3,0.6
				c-0.3,0.6-0.6,1.1-1,1.6c-0.1,0.1-0.2,0.3-0.3,0.4c-0.3,0.5-0.7,1.1-1.2,1.6c-0.1,0.1-0.3,0.3-0.4,0.4c-0.2,0.2-0.4,0.4-0.6,0.7
				c-0.3,0.3-0.5,0.5-0.8,0.8c-0.1,0.1-0.3,0.2-0.4,0.3c-0.1,0.1-0.3,0.2-0.4,0.4c-0.3,0.3-0.7,0.6-1.1,0.8l-0.1,0
				c-0.5,0.4-1,0.7-1.5,1c-0.6,0.4-1.1,0.6-1.6,0.8c-0.5,0.2-0.9,0.4-1.4,0.5c-0.6,0.2-1.4,0.4-2.2,0.5c-0.2,0-0.5,0.1-0.7,0.1
				l-0.2,0c-0.3,0-0.5,0-0.8,0l-0.3,0h-0.3c-0.8,0-1.7-0.1-2.3-0.3c-0.5-0.1-1-0.2-1.4-0.4l-0.1,0c-0.3-0.1-0.7-0.2-1-0.4
				c-0.4-0.2-0.9-0.4-1.4-0.7l-0.1-0.1c-0.5-0.3-1.1-0.6-1.6-1c-0.3-0.3-0.7-0.5-1-0.8c-0.4-0.3-0.7-0.6-1.1-0.9
				c-0.2-0.2-0.4-0.4-0.6-0.6l-0.1-0.1c-0.3-0.3-0.5-0.5-0.7-0.8c-0.1-0.1-0.2-0.2-0.2-0.3c-0.1-0.1-0.2-0.3-0.3-0.4
				c-0.3-0.3-0.5-0.6-0.7-1l-0.1-0.1c-0.4-0.6-0.8-1.1-1.1-1.7c-0.3-0.5-0.6-1-0.8-1.6c-0.3-0.7-0.6-1.5-1-2.3
				c-0.1-0.3-0.2-0.5-0.3-0.8l0-0.2c-0.1-0.3-0.2-0.7-0.3-1.1l0-0.1c-0.2-0.6-0.4-1.3-0.5-1.9c0-0.2-0.1-0.4-0.1-0.6
				c-0.1-0.5-0.2-1.1-0.3-1.6c-0.1-0.7-0.2-1.5-0.3-2.2c-0.1-0.6-0.1-1.2-0.1-1.9c0-0.1,0-0.2,0-0.3c0-0.2,0-0.4,0-0.6
				c0-0.1,0-0.2,0-0.3c0-0.1,0-0.2,0-0.2c0-0.2,0-0.4,0-0.6c0-0.2,0-0.4,0-0.5c0-0.2,0-0.4,0-0.6l0-0.3c0-0.3,0-0.6,0.1-0.9
				c0.1-0.9,0.3-1.9,0.4-2.9c0.1-0.8,0.4-1.7,0.6-2.5c0.2-0.7,0.4-1.4,0.6-2c0.2-0.6,0.4-1.2,0.7-1.9c0.2-0.4,0.4-0.9,0.6-1.2
				c0.3-0.6,0.6-1.1,0.8-1.5c0.3-0.4,0.5-0.9,0.7-1.2c0.3-0.5,0.6-0.9,0.8-1.2c0.2-0.3,0.4-0.5,0.7-0.8l0.2-0.2
				c0.3-0.3,0.6-0.7,0.9-1c0.3-0.3,0.6-0.6,0.9-0.8l0.2-0.2c0.3-0.3,0.7-0.6,1-0.9c0.3-0.2,0.6-0.4,0.9-0.6l0.3-0.2
				c0.4-0.2,0.7-0.5,1.1-0.7c0.4-0.2,1-0.5,1.5-0.7l0.8-0.3c0.6-0.2,1.1-0.4,1.6-0.5c0.5-0.1,1-0.2,1.5-0.2c0.4,0,0.8,0,1.3-0.1
				c0,0,0,0,0,0c0.5,0,1.1,0.1,1.6,0.1l0.1,0c0.7,0.1,1.4,0.2,2.2,0.5c0.7,0.2,1.5,0.5,2.2,0.9c0.3,0.2,0.7,0.4,1,0.6l0.3,0.2
				c0.2,0.1,0.3,0.2,0.5,0.3l0.2,0.1c0.2,0.2,0.5,0.3,0.7,0.5c0.4,0.3,0.8,0.6,1.1,0.9l0.2,0.1c0,0,0.1,0.1,0.1,0.1
				c0,0,0.1,0.1,0.1,0.1c0.1,0.1,0.2,0.2,0.3,0.3c0.2,0.2,0.4,0.4,0.7,0.7c0.3,0.3,0.5,0.6,0.7,0.8c0.3,0.4,0.6,0.7,0.8,1
				c0.1,0.2,0.3,0.4,0.4,0.6l0.1,0.1c0.1,0.2,0.3,0.5,0.4,0.7c0.2,0.3,0.3,0.5,0.5,0.8c0.4,0.6,0.7,1.3,1,1.9l0.2,0.4
				c0.3,0.6,0.5,1.2,0.8,1.8c0.2,0.5,0.3,1,0.5,1.5l0.1,0.2c0.1,0.4,0.2,0.9,0.4,1.4c0,0.2,0.1,0.4,0.1,0.5l0.1,0.5
				c0.1,0.3,0.1,0.6,0.2,0.8c0,0.2,0.1,0.4,0.1,0.5l0.1,0.5c0,0.2,0.1,0.4,0.1,0.6c0.1,0.4,0.1,0.8,0.1,1.3c0,0.3,0.1,0.6,0.1,0.9
				c0,0.3,0,0.6,0,0.9c0,0.3,0,0.7,0,1c0,0.3,0,0.6,0,1c0,0.3,0,0.6,0,0.9C232,35,232,35,232,35.1z"/>
			<path class="st0" d="M214.9,9.9c0.4,0,0.7,0.1,1.1,0.1c0.3,0,0.6,0.1,0.9,0.2c0.7,0.2,1.4,0.5,2.2,0.8c0.4,0.2,0.7,0.4,1,0.6
				l0.2,0.1c0.2,0.1,0.5,0.3,0.7,0.4c0.8,0.6,1.5,1.2,2.2,1.8c0.2,0.2,0.5,0.4,0.6,0.6c0.1,0.1,0.3,0.3,0.4,0.5
				c0.1,0.1,0.2,0.2,0.2,0.3c0,0,0.1,0.1,0.1,0.1c0,0,0.1,0.1,0.1,0.1c0.2,0.3,0.5,0.6,0.8,1l0.1,0.1c0.2,0.2,0.4,0.5,0.6,0.8
				c0.3,0.4,0.6,0.9,0.8,1.3l0,0c0.1,0.2,0.3,0.5,0.4,0.8c0.1,0.2,0.2,0.4,0.3,0.6c0.1,0.1,0.1,0.2,0.2,0.4c0.1,0.2,0.2,0.5,0.4,0.7
				l0.1,0.3c0.1,0.2,0.2,0.3,0.2,0.5c0.1,0.4,0.1,0.8,0,1.2c-0.1,0.1-0.1,0.3-0.2,0.4c-0.2,0.2-0.4,0.3-0.7,0.3
				c-0.3,0-0.5-0.1-0.7-0.4c-0.1-0.2-0.1-0.5,0.1-0.7c0.1-0.1,0.2-0.1,0.3-0.1c0.1,0.1,0.2,0.1,0.2,0.3c0,0,0,0.1,0,0.1l0,0.1l0.1,0
				c0.2,0,0.3,0,0.4-0.1c0.1-0.1,0.1-0.2,0.1-0.4c0-0.4-0.4-0.8-0.9-0.9c0,0,0,0,0,0c-0.4,0-0.8,0.3-0.9,0.7c-0.1,0.4,0,0.8,0.2,1.2
				c0.2,0.3,0.4,0.4,0.6,0.5c0.2,0.1,0.4,0.1,0.6,0l0.1,0c0.4,0,0.7-0.2,0.9-0.6c0.2-0.3,0.3-0.7,0.3-1.1c0-0.1,0-0.3,0-0.5
				c0-0.3-0.2-0.5-0.3-0.8l0-0.1c-0.3-0.5-0.5-1.1-0.8-1.6l-0.1-0.2c-0.1-0.2-0.2-0.4-0.4-0.7c-0.1-0.2-0.2-0.3-0.3-0.5
				c-0.3-0.6-0.7-1.2-1.1-1.7c-0.1-0.2-0.2-0.3-0.3-0.5c-0.1-0.2-0.3-0.4-0.4-0.6c-0.3-0.4-0.7-0.8-1-1.2c-0.4-0.4-0.9-0.9-1.5-1.3
				c-0.4-0.3-0.8-0.6-1.2-0.9l-0.1-0.1c-0.3-0.2-0.6-0.4-0.9-0.6c-0.3-0.2-0.6-0.4-0.9-0.5c-0.3-0.1-0.6-0.3-0.9-0.5
				c-0.5-0.2-0.9-0.4-1.4-0.5c-0.3-0.1-0.6-0.2-1-0.3l-0.1,0c-0.6-0.1-1.2-0.2-1.9-0.2c-0.1,0-0.2,0-0.2,0c-0.1,0-0.2,0-0.2,0
				c-0.2,0-0.4,0-0.5,0c-0.1,0-0.3,0-0.4,0c-0.3,0-0.7,0-1,0.1c-0.2,0-0.4,0.1-0.6,0.1c-0.3,0.1-0.7,0.1-1,0.2
				c-0.5,0.1-0.9,0.3-1.5,0.5c-0.7,0.3-1.3,0.6-1.8,0.9l-0.2,0.1c-0.2,0.1-0.5,0.3-0.7,0.5c-0.3,0.2-0.6,0.4-0.9,0.6l-0.1,0.1
				c-0.2,0.1-0.4,0.3-0.5,0.4c-0.1,0.1-0.2,0.2-0.4,0.3c-0.1,0.1-0.2,0.2-0.3,0.3c-0.1,0.1-0.2,0.1-0.2,0.2
				c-0.1,0.1-0.3,0.2-0.4,0.4c-0.3,0.3-0.6,0.6-1,1c-0.1,0.1-0.2,0.2-0.3,0.4c-0.1,0.1-0.2,0.2-0.3,0.3c-0.3,0.3-0.5,0.7-0.8,1.1
				c-0.1,0.1-0.2,0.3-0.3,0.4c-0.2,0.3-0.4,0.5-0.5,0.8c-0.2,0.3-0.3,0.5-0.5,0.8c-0.2,0.3-0.4,0.6-0.5,1c-0.1,0.1-0.1,0.2-0.2,0.3
				c-0.4,0.7-0.6,1.3-0.7,1.8c-0.1,0.3-0.1,0.7-0.1,1.1c0,0.3,0.1,0.6,0.3,0.9c0,0,0,0,0,0c0,0,0.1,0.1,0.1,0.1c0,0,0,0,0.1,0.1
				c0.1,0.1,0.2,0.1,0.3,0.2c0,0,0.1,0,0.1,0c0.1,0,0.2,0.1,0.3,0.1c0.1,0,0.1,0,0.2,0c0,0,0.1,0,0.1,0c0.1,0,0.2,0,0.3,0l0,0
				c0.1-0.1,0.2-0.1,0.4-0.2c0.1-0.1,0.3-0.2,0.4-0.4c0.2-0.3,0.1-0.6,0.1-0.9l0,0c0-0.5-0.4-0.8-0.9-0.8c-0.3,0-0.6,0.1-0.7,0.3
				c-0.2,0.2-0.3,0.5-0.2,0.9c0,0.1,0.1,0.2,0.2,0.2c0.1,0,0.2,0,0.3-0.1c0.1-0.1,0.1-0.2,0.1-0.3c0-0.1,0-0.2,0.1-0.2
				c0.1-0.1,0.2-0.1,0.2,0c0,0,0.1,0,0.1,0.1c0.2,0.1,0.2,0.3,0.2,0.5c0,0.3-0.2,0.5-0.4,0.5c-0.3,0.1-0.6,0.1-0.9-0.1
				c-0.3-0.2-0.4-0.5-0.4-0.8l0,0c0.1-0.5,0.1-0.9,0.3-1.4c0-0.1,0.1-0.2,0.1-0.2c0-0.1,0-0.2,0.1-0.3c0.3-0.6,0.6-1.1,0.9-1.7
				c0.1-0.1,0.1-0.2,0.2-0.3c0-0.1,0.1-0.1,0.1-0.2c0.1-0.1,0.1-0.2,0.2-0.3c0.1-0.2,0.2-0.4,0.4-0.6c0.3-0.4,0.6-0.9,0.9-1.3
				c0.3-0.4,0.6-0.8,1-1.3c0.1-0.2,0.3-0.4,0.5-0.5c0.3-0.3,0.6-0.6,0.9-0.9c0.2-0.2,0.5-0.4,0.7-0.6l0.2-0.1
				c0.2-0.2,0.4-0.4,0.6-0.5c0.4-0.3,0.7-0.5,1.1-0.8l0.2-0.1c0.2-0.1,0.5-0.3,0.7-0.4c0.5-0.3,1.1-0.5,1.6-0.7
				c0.8-0.3,1.6-0.5,2.3-0.7c0.3-0.1,0.6-0.1,0.9-0.1l0.2,0c0.2,0,0.4,0,0.7-0.1c0.1,0,0.3,0,0.4,0l0.3,0
				C214.4,9.9,214.7,9.9,214.9,9.9z"/>
			<path class="st0" d="M212.8,53.8c-0.5-0.3-0.9-0.3-1.4,0c-0.4,0.3-0.6,0.8-0.5,1.3c0.1,0.4,0.3,0.6,0.7,0.6
				c0.2,0,0.4-0.1,0.5-0.3c0.1-0.3,0.1-0.5,0-0.7c-0.1-0.1-0.2-0.2-0.4-0.1c-0.1,0-0.1,0.1-0.1,0.1c0-0.1,0.1-0.2,0.3-0.3
				c0.2-0.1,0.4-0.1,0.6,0c0.2,0.1,0.5,0.7,0.3,1.1l0,0.1c-0.1,0.2-0.2,0.4-0.3,0.4l-0.1,0c-0.2,0.1-0.3,0.1-0.5,0.2
				c-0.4,0.1-0.8,0.2-1.2,0.1l-0.1,0c-0.3,0-0.6-0.1-0.8-0.1c-0.4-0.1-0.8-0.3-1.2-0.5l-0.2-0.1c-0.3-0.1-0.5-0.2-0.7-0.4
				c-0.2-0.1-0.4-0.3-0.7-0.4c-0.2-0.1-0.3-0.2-0.5-0.3c-0.5-0.3-1-0.7-1.5-1.2c-0.2-0.1-0.3-0.3-0.5-0.5l-0.2-0.2
				c-0.1,0-0.1-0.1-0.2-0.1c-0.1-0.1-0.3-0.2-0.4-0.4c-0.1-0.1-0.2-0.2-0.3-0.3c0-0.1-0.1-0.1-0.1-0.2c-0.1-0.1-0.2-0.3-0.4-0.4
				c-0.2-0.3-0.5-0.6-0.7-0.9c-0.4-0.5-0.8-1-1.1-1.5l0-0.1c-0.3-0.5-0.7-1.1-0.9-1.6c-0.1-0.2-0.2-0.3-0.3-0.5
				c-0.1-0.2-0.2-0.4-0.3-0.6c-0.3-0.6-0.5-1.1-0.7-1.5c-0.2-0.4-0.3-0.9-0.5-1.3c-0.1-0.3-0.2-0.6-0.3-0.9l-0.1-0.5
				c-0.1-0.3-0.2-0.7-0.3-1c-0.1-0.6-0.2-1.2-0.4-1.8c-0.1-0.4-0.1-0.9-0.2-1.5c-0.1-0.4-0.1-0.8-0.1-1.3c0-0.5-0.1-1.1-0.1-1.6
				c0-0.2,0-0.5,0-0.7l0-0.4c0-0.2,0-0.4,0-0.6c0-0.4,0-0.8,0.1-1.2l0-0.3c0-0.2,0-0.3,0-0.5c0-0.1,0-0.1,0-0.2c0-0.1,0-0.2,0-0.3
				c0-0.1,0-0.1,0-0.2c0-0.1,0-0.1,0-0.2c0-0.1,0-0.2,0-0.3c0-0.1,0-0.2,0-0.3c0-0.5,0.1-1.2,0.3-1.8c0.1-0.4,0.3-0.9,0.4-1.4
				c0.1-0.3,0.3-0.6,0.6-0.8c0.3-0.3,0.7-0.3,1,0c0.1,0.1,0.2,0.2,0.2,0.3c0.1,0.4-0.1,0.7-0.3,0.9c-0.1,0.1-0.2,0.1-0.3,0.1
				c-0.1,0-0.2-0.1-0.2-0.2c0-0.1,0-0.1,0-0.2c0.1-0.1,0.2-0.3,0.1-0.4c-0.1-0.1-0.3-0.2-0.4-0.1c0,0,0,0-0.1,0
				c-0.2,0.1-0.2,0.2-0.3,0.4c0,0.1,0,0.1,0,0.2c0,0.1,0,0.1,0,0.1c0,0.3,0.1,0.5,0.4,0.7c0.3,0.2,0.9,0.2,1.2-0.2
				c0.1-0.1,0.2-0.3,0.3-0.5c0.1-0.3,0.1-0.6,0-0.9c0-0.2-0.1-0.3-0.2-0.5c-0.2-0.4-0.6-0.5-0.9-0.5c-0.2,0-0.4,0-0.7,0.1
				c-0.3,0.1-0.5,0.3-0.7,0.5c-0.1,0.1-0.2,0.3-0.3,0.4c-0.2,0.4-0.3,0.8-0.4,1.1c-0.1,0.5-0.3,1-0.4,1.5c-0.1,0.3-0.1,0.5-0.1,0.8
				l0,0.2c0,0.2,0,0.3-0.1,0.5c-0.1,0.5-0.1,1-0.1,1.5c0,0.7,0,1.4,0,2.1c0,0.4,0,0.8,0,1.2l0,0.3c0,0.2,0,0.5,0,0.8
				c0,0.2,0,0.3,0,0.5c0,0.1,0,0.3,0,0.4c0,0.1,0,0.2,0,0.3c0,0.2,0,0.3,0,0.5c0,0.2,0,0.3,0.1,0.5c0,0.2,0.1,0.3,0.1,0.5
				c0.1,0.8,0.3,1.6,0.4,2.2c0.2,0.8,0.4,1.6,0.6,2.4c0.2,0.6,0.4,1.2,0.6,1.6c0.2,0.4,0.4,0.9,0.6,1.3c0.1,0.2,0.2,0.4,0.2,0.5
				c0,0,0,0.1,0.1,0.1c0,0,0,0.1,0.1,0.1c0.3,0.6,0.6,1.1,0.8,1.5c0.1,0.2,0.2,0.4,0.4,0.6c0.2,0.3,0.3,0.5,0.5,0.8
				c0.2,0.3,0.5,0.7,0.7,1l0,0.1c0.1,0.2,0.3,0.4,0.4,0.5l0.2,0.2c0.2,0.3,0.5,0.5,0.7,0.8c0.2,0.2,0.4,0.4,0.6,0.5l0.1,0.1
				c0.3,0.2,0.5,0.5,0.8,0.7l0.1,0.1c0.2,0.2,0.4,0.3,0.6,0.5c0.3,0.3,0.8,0.6,1.3,0.9c0.4,0.3,0.8,0.5,1.3,0.7
				c0.4,0.2,0.8,0.4,1.3,0.6c0.3,0.1,0.6,0.2,0.9,0.2c0.3,0,0.6,0,0.8,0c0,0,0.1,0,0.1,0c0.5,0,1-0.1,1.5-0.3
				c0.2-0.1,0.4-0.2,0.6-0.4c0.3-0.4,0.4-0.8,0.3-1.4C213.2,54.3,213,54,212.8,53.8z"/>
			<path class="st0" d="M231.2,29.8c-0.1-0.7-0.2-1.4-0.3-2.1c-0.1-0.4-0.2-0.8-0.2-1.1l-0.1-0.4c0-0.1,0-0.2-0.1-0.2
				c-0.2-0.3-0.4-0.6-0.7-0.8c-0.3-0.2-0.6-0.4-1-0.3c-0.1,0-0.1,0-0.2,0c0,0-0.1,0-0.1,0c-0.5,0.1-0.9,0.5-1,1
				c-0.1,0.6,0,1,0.4,1.3c0.3,0.2,0.8,0.4,1.1,0.2c0.5-0.3,0.7-0.8,0.4-1.3c0-0.1-0.1-0.1-0.1-0.2c-0.1-0.1-0.2-0.1-0.3-0.1
				c-0.1,0-0.2,0-0.2,0.1c-0.1,0.1-0.1,0.2,0.1,0.4l0,0l0,0.1c0,0.1,0,0.2-0.1,0.3c-0.1,0.1-0.2,0.1-0.3,0.1
				c-0.2-0.1-0.4-0.2-0.5-0.6c0-0.1,0-0.2,0-0.3c0.1-0.2,0.3-0.4,0.5-0.5c0.2-0.1,0.3-0.1,0.5-0.1c0.4,0,0.7,0.2,1,0.6
				c0.2,0.2,0.2,0.5,0.3,0.8c0,0.2,0.1,0.4,0.1,0.7c0.1,0.3,0.1,0.5,0.2,0.8c0.1,0.5,0.1,1.1,0.2,1.6l0,0.3c0,0.3,0.1,0.6,0.1,0.9
				c0,0.1,0,0.2,0,0.3c0,0.2,0,0.5,0,0.7c0,0.2,0,0.4,0,0.6c0,0.1,0,0.2,0,0.2c0,0.1,0,0.1,0,0.2c0,0.1,0,0.2,0,0.3
				c0,0.1,0,0.3,0,0.4c0,0.1,0,0.3,0,0.4c0,0.2,0,0.4,0,0.6c0,0.3,0,0.6,0,0.8c0,0.2,0,0.4-0.1,0.6c0,0.2,0,0.4-0.1,0.7
				c0,0.4-0.1,0.9-0.2,1.3c0,0.2-0.1,0.5-0.1,0.7c0,0.3-0.1,0.6-0.2,0.9c0,0.1,0,0.2-0.1,0.3l0,0.2c-0.1,0.4-0.2,0.8-0.3,1.1
				c-0.1,0.4-0.2,0.7-0.3,1.1l-0.1,0.4c0,0.1,0,0.1-0.1,0.2l-0.2,0.5c-0.2,0.5-0.3,0.9-0.5,1.4c-0.2,0.4-0.3,0.8-0.5,1.1
				c-0.1,0.3-0.3,0.5-0.4,0.8l-0.1,0.3c-0.2,0.4-0.5,0.9-0.7,1.3c-0.1,0.3-0.3,0.5-0.5,0.7l-0.1,0.2c-0.2,0.3-0.4,0.6-0.6,0.8
				c-0.4,0.5-0.9,1-1.2,1.5c-0.3,0.3-0.5,0.5-0.7,0.7c-0.3,0.3-0.7,0.6-1,0.9l-0.1,0.1c-0.5,0.4-1,0.8-1.5,1.1
				c-0.4,0.3-0.8,0.5-1.3,0.8c-0.4,0.2-0.7,0.4-1.1,0.5l-0.1,0.1c-0.1,0.1-0.3,0.1-0.5,0.2c-0.2,0-0.3,0.1-0.5,0.1
				c-0.1,0-0.2,0.1-0.3,0.1c-0.4,0.1-0.7,0.1-1.1,0.1c-0.3,0-0.7-0.1-1-0.2c-0.3-0.1-0.5-0.3-0.6-0.6c-0.2-0.4,0.1-0.9,0.3-1.1
				c0.1-0.1,0.2-0.1,0.3-0.1c0.1,0,0.3,0.1,0.4,0.2c0,0,0.1,0.1,0.1,0.1c0,0,0,0-0.1-0.1c-0.1-0.1-0.3-0.1-0.4,0.1
				c-0.2,0.2-0.2,0.6,0,0.8c0.2,0.2,0.4,0.3,0.7,0.3c0.2-0.1,0.5-0.2,0.5-0.6c0-0.1,0-0.3,0-0.4c-0.1-0.3-0.2-0.6-0.4-0.8
				c-0.1-0.1-0.3-0.2-0.5-0.2c-0.5-0.1-0.9,0.1-1.2,0.4c-0.3,0.3-0.4,0.8-0.3,1.2c0,0,0,0,0,0.1c0,0.1,0,0.2,0.1,0.3
				c0.3,0.5,0.6,0.7,1,0.9l0.2,0c0.1,0,0.2,0.1,0.3,0.1c0.3,0.1,0.6,0.1,0.9,0.1c0.1,0,0.3,0,0.4,0c0.4-0.1,0.9-0.2,1.3-0.3
				c0.2,0,0.3-0.1,0.4-0.1c0.1-0.1,0.3-0.1,0.4-0.2c0.2-0.1,0.3-0.1,0.5-0.2c0.6-0.3,1.1-0.6,1.6-0.9c0.3-0.2,0.6-0.4,0.8-0.6
				c0.5-0.4,0.9-0.7,1.3-1.1c0.1-0.1,0.2-0.2,0.3-0.2c0.1-0.1,0.2-0.2,0.3-0.3c0.3-0.2,0.5-0.5,0.8-0.7c0.1-0.1,0.2-0.2,0.3-0.3
				c0.2-0.2,0.3-0.4,0.5-0.6c0.1-0.1,0.1-0.2,0.2-0.3c0.1-0.1,0.1-0.1,0.2-0.2c0.1-0.2,0.3-0.3,0.4-0.5c0.2-0.2,0.3-0.5,0.5-0.7
				l0.1-0.1c0.1-0.1,0.2-0.3,0.3-0.5c0.1-0.2,0.2-0.4,0.3-0.6l0.1-0.2c0.1-0.2,0.2-0.3,0.3-0.5c0.2-0.4,0.4-0.7,0.6-1.1
				c0.3-0.5,0.5-1.1,0.8-1.7c0.2-0.6,0.5-1.2,0.7-2c0.1-0.4,0.2-0.7,0.3-1.1l0-0.1c0.1-0.4,0.2-0.9,0.3-1.3c0.1-0.5,0.2-1,0.3-1.4
				c0-0.2,0-0.3,0.1-0.5c0-0.1,0-0.1,0-0.2l0-0.3c0-0.2,0.1-0.5,0.1-0.7c0-0.2,0-0.4,0.1-0.5c0-0.1,0-0.2,0-0.3c0-0.1,0-0.3,0-0.4
				c0-0.3,0.1-0.5,0.1-0.8c0-0.4,0-0.9,0-1.3v-0.1c0-0.8,0-1.7,0-2.6C231.3,30.8,231.2,30.2,231.2,29.8z M228.9,26.3
				C228.9,26.3,228.9,26.3,228.9,26.3L228.9,26.3L228.9,26.3L228.9,26.3z"/>
		</g>
		<g>
			<path class="st2" d="M201.4,37.6c0-0.1,0-0.2,0-0.2c0-0.2,0.1-0.5,0.2-0.7c0.2-0.3,0.4-0.3,0.7-0.4c0,0,0.1,0,0.1,0c0,0,0,0,0,0
				c0-0.1,0-0.1-0.1-0.2c-0.1-0.2-0.1-0.5,0-0.7c0.1-0.2,0.2-0.5,0.4-0.6c0.1-0.1,0.1-0.1,0.1-0.2c0-0.4,0.2-0.7,0.5-1
				c0.1-0.1,0.2-0.1,0.3-0.1c0.2-0.1,0.5-0.1,0.8-0.1c0.1,0,0.1,0.1,0.1,0.2c0,0.1,0,0.1-0.1,0.2c-0.2,0.2-0.2,0.5-0.3,0.8
				c-0.2,0.6-0.1,1.2,0.2,1.7c0.2,0.4,0.4,0.7,0.7,1c0.4,0.4,0.5,0.8,0.4,1.3c0,0.1,0,0.2-0.1,0.3c0.2,0,0.4,0.1,0.6,0.1
				c0.4,0.1,0.6,0.3,0.8,0.6c0.2,0.3,0.3,0.6,0.4,1c0,0.1,0,0.1,0.1,0.2c0.1-0.1,0.1-0.2,0.1-0.3c0.1-0.4,0.2-0.8,0.3-1.3
				c0.1-0.5,0.2-1,0.3-1.5c0.1-0.5,0.2-0.9,0.3-1.4c0.1-0.5,0.2-1,0.3-1.4c0-0.1,0-0.2,0.1-0.2c0.1-0.4,0.1-0.7,0-1.1
				c-0.1-0.3-0.3-0.6-0.4-0.9c0,0-0.1-0.1-0.1-0.1c-0.3,0.1-0.5,0.1-0.8,0.1c-0.3-0.1-0.4-0.2-0.5-0.5c0-0.1-0.1-0.3-0.1-0.4
				c0,0-0.1,0-0.1,0c-0.2,0.1-0.4,0.1-0.6,0.1c-0.2,0-0.4-0.1-0.6-0.2c-0.2-0.2-0.4-0.4-0.7-0.5c-0.4-0.1-0.7-0.2-1.1-0.1
				c-0.4,0.1-0.8,0.2-1.1,0.4c0,0-0.1,0-0.1,0.1c-0.1,0.1-0.2,0-0.2-0.1c0-0.4,0.1-0.8,0.3-1.2c0.1-0.2,0.3-0.3,0.4-0.4
				c0.1-0.1,0.2-0.1,0.2-0.3c0-0.6,0.6-1.1,1.1-1c0,0,0.1,0,0.1,0c0-0.2,0-0.4,0.1-0.5c0.1-0.4,0.2-0.7,0.4-1
				c0.3-0.4,0.7-0.6,1.1-0.8c0.2-0.1,0.3-0.1,0.5-0.1c0.1,0,0.2,0.1,0.1,0.2c-0.1,0.2-0.2,0.4-0.2,0.5c-0.2,0.6-0.2,1.2,0,1.8
				c0.1,0.2,0.2,0.5,0.3,0.7c0.1,0.1,0.2,0.3,0.3,0.4c0.3,0.3,0.4,0.5,0.4,0.9c0,0.1,0,0.2,0,0.3c0.1,0,0.1,0,0.2,0
				c0.4-0.1,0.8,0.1,1.1,0.5c0.1,0.2,0.2,0.4,0.3,0.6c0.1,0.2,0.1,0.3,0.1,0.5c0,0.1,0,0.1,0.1,0.2c0,0,0,0,0,0
				c0-0.1,0.1-0.1,0.1-0.2c0.1-0.4,0.2-0.9,0.3-1.3c0.1-0.6,0.3-1.2,0.4-1.8c0.1-0.5,0.2-0.9,0.4-1.4c0.1-0.2,0.1-0.5,0.2-0.7
				c0.1-0.3,0-0.5-0.1-0.8c0-0.1-0.1-0.3-0.2-0.4c0-0.1-0.1-0.1-0.2-0.1c-0.2,0-0.4,0-0.6-0.1c-0.1,0-0.1-0.1-0.2-0.1
				c-0.1-0.1-0.2-0.2-0.3-0.3c-0.1-0.2-0.1-0.4-0.1-0.7c0,0,0-0.1,0-0.2c-0.1,0-0.2,0-0.2,0c-0.3,0-0.6-0.1-0.9-0.3
				c-0.2-0.2-0.4-0.5-0.7-0.6c-0.2-0.1-0.4-0.2-0.6-0.2c-0.4-0.1-0.8-0.1-1.1,0.1c-0.2,0.1-0.4,0.2-0.6,0.4c0,0-0.1,0.1-0.1,0.1
				c-0.1,0.1-0.2,0-0.2-0.1c0-0.5,0.1-0.9,0.4-1.3c0.2-0.2,0.3-0.3,0.6-0.4c0.1,0,0.2-0.1,0.2-0.2c0-0.1,0.1-0.3,0.3-0.3
				c0.4-0.2,0.8-0.3,1.2-0.1c0,0,0.1,0,0.1,0c0-0.1,0-0.1,0-0.2c0-0.1-0.1-0.2-0.1-0.3c-0.1-0.4,0.1-0.8,0.4-1
				c0.1,0,0.1-0.1,0.2-0.1c0.1,0,0.2-0.1,0.2-0.2c0.1-0.5,0.5-0.6,1-0.7c0.2,0,0.3,0,0.3,0.2c-0.1,0.1-0.1,0.2-0.2,0.4
				c-0.2,0.4-0.3,0.8-0.3,1.2c0,0.3,0.1,0.7,0.2,1c0.2,0.4,0.3,0.7,0.5,1.1c0.1,0.3,0.1,0.6,0,0.9c0,0.1,0,0.1,0,0.2
				c0.1,0,0.1,0,0.1,0c0.4,0,0.6,0.2,0.8,0.5c0.2,0.4,0.4,0.8,0.4,1.3c0,0,0,0.1,0,0.1c0.1-0.1,0.2-0.2,0.2-0.3
				c0.2-0.4,0.3-0.7,0.6-1.1c0.3-0.4,0.5-0.8,0.9-1.2c0.2-0.2,0.3-0.5,0.5-0.6c0.2-0.1,0.2-0.3,0.2-0.5c0-0.4,0-0.8,0-1.2
				c0-0.1,0-0.2,0-0.2c-0.1,0-0.2-0.1-0.3-0.1c-0.3,0-0.5-0.2-0.7-0.4c-0.2-0.2-0.2-0.7,0-0.8c0.2-0.1,0.3-0.3,0.6-0.3
				c0.1,0,0.2-0.1,0.3-0.1c0,0-0.1-0.1-0.1-0.1c-0.3-0.2-0.5-0.4-0.6-0.8c-0.1-0.2-0.1-0.4-0.1-0.7c-0.1-0.6-0.4-1.1-0.9-1.4
				c-0.5-0.3-1-0.5-1.6-0.4c-0.1,0-0.1,0-0.2,0c-0.1,0-0.2-0.1-0.1-0.2c0.1-0.1,0.2-0.2,0.4-0.4c0.3-0.2,0.6-0.4,0.9-0.5
				c0.1,0,0.1,0,0.1-0.1c0.2-0.2,0.5-0.3,0.8-0.3c0.2,0,0.2,0,0.3-0.2c0.1-0.3,0.2-0.6,0.4-0.8c0.1-0.1,0.1-0.1,0.2-0.2
				c0.2-0.1,0.3-0.2,0.3-0.4c0-0.1,0.1-0.3,0.1-0.4c0.1-0.4,0.6-0.6,0.9-0.5c0.2,0,0.3,0.1,0.4,0.2c0.4,0.3,0.6,0.7,0.6,1.3
				c0,0.1,0,0.2,0.2,0.3c0.3,0.2,0.5,0.4,0.6,0.8c0,0.1,0,0.2,0.1,0.4c0.1,0,0.1,0,0.2,0c0.3-0.1,0.7-0.1,1,0
				c0.4,0.1,0.7,0.4,0.9,0.7c0.1,0.1,0,0.2-0.1,0.2c-0.2,0-0.3,0.1-0.5,0.1c-0.5,0.1-0.8,0.3-1.2,0.6c-0.4,0.4-0.6,0.9-0.7,1.5
				c0,0.4-0.2,0.8-0.5,1c-0.1,0.1-0.2,0.1-0.3,0.2c0.1,0.1,0.3,0.1,0.4,0.2c0.2,0.1,0.3,0.2,0.5,0.4c0.2,0.3,0.1,0.6-0.2,0.8
				c-0.2,0.1-0.4,0.2-0.6,0.3c-0.2,0-0.2,0.1-0.2,0.3c0,0.4,0,0.8,0,1.2c0,0.1,0,0.1,0,0.2c0,0.2,0,0.3,0.2,0.4c0,0,0.1,0,0.1,0.1
				c0.6,0.6,1.1,1.3,1.5,2.1c0.1,0.2,0.3,0.5,0.4,0.7c0,0.1,0.1,0.1,0.1,0.2c0-0.1,0.1-0.1,0.1-0.1c0-0.1,0.1-0.2,0.1-0.3
				c0.1-0.3,0.2-0.5,0.4-0.8c0.2-0.3,0.4-0.4,0.8-0.4c0,0,0,0,0.1,0c0,0,0,0,0,0c0-0.1-0.1-0.3-0.1-0.4c0-0.2,0-0.5,0.1-0.7
				c0.1-0.3,0.2-0.6,0.4-0.9c0.2-0.4,0.3-0.9,0.3-1.3c0-0.4-0.1-0.8-0.3-1.1c-0.1-0.1-0.1-0.2-0.1-0.2c0-0.1,0-0.2,0.1-0.2
				c0.3,0,0.6,0.1,0.8,0.3c0.2,0.1,0.3,0.3,0.4,0.5c0,0,0.1,0.1,0.1,0.1c0.2,0,0.4,0.1,0.5,0.3c0.1,0.2,0.2,0.5,0.1,0.7
				c0,0.1-0.1,0.2-0.1,0.4c0,0,0,0.1,0,0.1c0.1,0,0.1,0,0.2,0c0.4-0.1,0.8,0,1.1,0.1c0.2,0.1,0.3,0.2,0.3,0.4c0,0.1,0.1,0.1,0.2,0.2
				c0.3,0.1,0.6,0.3,0.8,0.6c0.2,0.2,0.3,0.4,0.3,0.6c0,0.1,0,0.3,0,0.4c0,0,0,0.1-0.1,0.1c0,0-0.1,0-0.2,0c-0.1,0-0.1-0.1-0.2-0.1
				c-0.4-0.4-0.9-0.5-1.5-0.4c-0.3,0.1-0.7,0.1-0.9,0.4c-0.1,0.1-0.2,0.2-0.3,0.3c-0.4,0.4-0.8,0.6-1.3,0.5c0,0,0,0-0.1,0
				c0,0.1,0,0.3-0.1,0.4c-0.1,0.4-0.5,0.6-0.8,0.5c-0.1,0-0.3-0.1-0.4-0.2c-0.1,0.1-0.2,0.3-0.3,0.5c-0.2,0.5,0,0.9,0.1,1.4
				c0.2,0.6,0.4,1.3,0.5,2c0.1,0.4,0.2,0.9,0.3,1.3c0.1,0.4,0.2,0.8,0.2,1.3c0,0.2,0.1,0.4,0.2,0.6c0.1-0.3,0.2-0.6,0.4-0.9
				c0.1-0.2,0.2-0.3,0.3-0.5c0.1-0.1,0.2-0.2,0.4-0.3c0.2,0,0.4-0.1,0.6-0.1c0,0,0,0,0-0.1c-0.2-0.6,0-1,0.5-1.4
				c0.3-0.3,0.5-0.6,0.6-0.9c0.2-0.5,0.3-0.9,0.2-1.4c0-0.3-0.2-0.6-0.3-1c-0.1-0.2,0-0.3,0.2-0.2c0.3,0,0.6,0.2,0.9,0.4
				c0.3,0.2,0.6,0.5,0.8,0.9c0.1,0.2,0.2,0.5,0.2,0.7c0,0.2,0,0.3,0,0.5c0,0,0,0,0.1,0c0.3,0,0.5,0.2,0.7,0.4
				c0.1,0.1,0.1,0.2,0.2,0.4c0,0,0,0.1,0,0.1c0,0.2,0.1,0.3,0.3,0.4c0.4,0.2,0.7,0.6,0.8,1.1c0,0.2,0,0.4,0,0.5
				c0,0.2-0.1,0.2-0.3,0.1c-0.2-0.1-0.3-0.2-0.5-0.3c-0.5-0.3-1-0.3-1.6-0.2c-0.3,0.1-0.6,0.2-0.8,0.4c-0.3,0.2-0.7,0.3-1.1,0.3
				c0,0-0.1,0-0.1,0c0,0,0,0-0.1,0c0.1,0.4,0,0.8-0.5,1.1c-0.4,0.2-0.8,0.1-1.1-0.2c0,0-0.1,0-0.1,0c-0.1,0.2-0.2,0.5-0.3,0.7
				c0,0.2-0.1,0.4-0.1,0.6c-0.1,0.3,0,0.7,0.1,1c0.1,0.4,0.2,0.9,0.2,1.3c0.1,0.4,0.1,0.7,0.2,1.1c0.1,0.5,0.2,1.1,0.3,1.6
				c0.1,0.5,0.2,0.9,0.3,1.4c0,0.1,0.1,0.2,0.1,0.3c0,0,0,0,0,0c0-0.1,0.1-0.2,0.1-0.3c0.2-0.6,0.6-1,1.1-1.2c0.2-0.1,0.3,0,0.5,0
				c0.1,0,0.1,0,0.2,0c0-0.1-0.1-0.1-0.1-0.1c-0.3-0.4-0.4-0.8-0.2-1.2c0.1-0.2,0.1-0.3,0.2-0.5c0.1-0.2,0.3-0.4,0.4-0.6
				c0.3-0.4,0.5-0.8,0.7-1.3c0.1-0.3,0.2-0.6,0.1-0.9c-0.1-0.3-0.2-0.7-0.3-1c0-0.2,0-0.2,0.2-0.2c0.2,0,0.3,0,0.5,0.1
				c0.7,0.2,1.1,0.8,1.3,1.5c0.1,0.3,0.1,0.5,0,0.8c0,0.3-0.1,0.5-0.3,0.8c0,0,0,0.1,0,0.1c0.1,0,0.1,0,0.2,0c0.2,0,0.5,0,0.7,0.1
				c0.4,0.1,0.6,0.4,0.6,0.7c0,0,0,0.1,0,0.2c0,0,0.1,0,0.1,0.1c0.2,0.1,0.4,0.2,0.5,0.3c0.2,0.2,0.3,0.4,0.4,0.7
				c0.1,0.3,0.1,0.5,0,0.7c-0.1,0.2-0.2,0.2-0.3,0.1c-0.2-0.2-0.3-0.4-0.6-0.5c-0.5-0.2-1-0.3-1.5-0.2c-0.3,0.1-0.5,0.3-0.8,0.5
				c-0.4,0.3-0.9,0.4-1.4,0.2c0,0-0.1,0-0.1,0c0,0.1,0.1,0.1,0.1,0.2c0.2,0.4,0,0.9-0.3,1.1c-0.3,0.3-0.8,0.2-1-0.2
				c0,0,0-0.1-0.1-0.1c-0.1,0-0.1,0-0.2,0.1c-0.3,0.2-0.4,0.5-0.5,0.8c-0.1,0.3-0.1,0.7-0.2,1c0,0.3,0,0.5,0.1,0.8
				c0.1,0.5,0.2,1,0.2,1.4c0.1,0.6,0.2,1.3,0.3,1.9c0.1,0.4,0.1,0.8,0.2,1.2c0.1,0.6,0.2,1.3,0.3,1.9c0,0.2,0,0.3,0,0.5
				c0,0.2-0.2,0.4-0.4,0.5c-0.2,0-0.4,0-0.6,0.1c-0.2,0-0.4,0-0.6,0.1c-0.5,0.1-1.1,0.1-1.6,0.2c-0.2,0-0.3,0-0.5,0
				c-0.6,0-1.1,0.1-1.7,0.1c-0.5,0-1,0-1.5,0c-0.5,0-1,0-1.4,0c-0.2,0-0.4,0-0.5,0c-0.5,0-1,0-1.5-0.1c-0.6,0-1.2-0.1-1.8-0.1
				c-0.5,0-0.9-0.1-1.4-0.1c-0.5-0.1-1-0.1-1.6-0.2c-0.1,0-0.1,0-0.2,0c-0.2,0-0.2-0.2-0.3-0.3c0-0.1,0-0.2,0-0.3
				c0.1-0.6,0.1-1.1,0.2-1.7c0.1-0.6,0.2-1.3,0.3-1.9c0.1-0.3,0.1-0.7,0.1-1c0.1-0.4,0.1-0.9,0.2-1.3c0-0.2,0.1-0.3,0.1-0.5
				c0-0.4,0-0.9-0.1-1.3c0-0.2-0.1-0.5-0.1-0.7c0-0.2-0.1-0.4-0.3-0.5c-0.1,0-0.2,0.1-0.2,0.1c-0.3,0.1-0.7,0.1-1-0.1
				c-0.3-0.2-0.4-0.5-0.4-0.9c0-0.1,0-0.2,0-0.3c0,0-0.1,0-0.1,0c-0.3,0.1-0.6,0-0.9-0.2c-0.4-0.2-0.8-0.4-1.3-0.4
				c-0.3,0-0.6,0-0.9,0.1c-0.5,0.1-0.9,0.4-1.2,0.7c-0.1,0.1-0.2,0.2-0.3,0.1c-0.1-0.5,0-1,0.2-1.5
				C200.5,37.9,200.9,37.6,201.4,37.6z M220.7,49.3c0-0.1,0-0.2,0-0.2c0-0.4-0.1-0.8-0.1-1.2c0-0.3-0.1-0.6-0.1-0.9
				c0-0.3-0.1-0.6-0.1-1c0-0.3-0.1-0.7-0.1-1c0-0.3-0.1-0.6-0.2-0.9c-0.1-0.7-0.2-1.4-0.3-2.1c-0.1-0.4-0.1-0.7-0.2-1.1
				c-0.1-0.3-0.1-0.7-0.2-1c-0.1-0.4-0.1-0.7-0.2-1.1c-0.1-0.3-0.1-0.6-0.2-0.9c-0.1-0.3-0.1-0.6-0.2-0.9c-0.1-0.4-0.1-0.8-0.2-1.3
				c-0.1-0.7-0.3-1.4-0.4-2c0-0.2-0.1-0.4-0.1-0.5c0-0.2-0.1-0.4-0.1-0.6c-0.1-0.3-0.1-0.5-0.2-0.8c-0.1-0.4-0.2-0.8-0.2-1.3
				c-0.1-0.6-0.2-1.1-0.4-1.7c-0.1-0.6-0.3-1.1-0.5-1.6c-0.3-0.8-0.7-1.6-1.1-2.3c-0.2-0.3-0.4-0.5-0.5-0.8
				c-0.2-0.3-0.4-0.6-0.6-0.8c-0.1-0.1-0.2-0.2-0.3-0.3c-0.1-0.1-0.2-0.1-0.2-0.2c0-0.5,0-1,0-1.5c0-0.1,0-0.1,0-0.2
				c0-0.1-0.1-0.1-0.2-0.1c-0.1,0-0.2,0-0.2,0.1c0,0.2,0,0.3,0,0.5c0,0.4,0,0.7,0,1.1c0,0.2,0,0.3-0.2,0.3c-0.1,0-0.2,0.1-0.2,0.2
				c-0.3,0.4-0.6,0.8-0.9,1.2c-0.1,0.2-0.3,0.4-0.4,0.6c-0.1,0.2-0.2,0.3-0.3,0.5c-0.3,0.5-0.6,1-0.8,1.6c-0.2,0.6-0.4,1.1-0.5,1.7
				c-0.2,0.8-0.4,1.6-0.6,2.4c-0.2,0.9-0.4,1.8-0.6,2.7c-0.1,0.3-0.2,0.7-0.2,1c-0.1,0.4-0.2,0.8-0.2,1.2c-0.1,0.6-0.2,1.1-0.3,1.7
				c-0.1,0.4-0.1,0.7-0.2,1.1c-0.1,0.7-0.3,1.4-0.4,2.2c-0.1,0.5-0.2,0.9-0.2,1.4c-0.1,0.3-0.1,0.7-0.2,1c-0.1,0.6-0.2,1.1-0.3,1.7
				c-0.1,0.4-0.1,0.7-0.2,1.1c-0.1,0.5-0.2,1.1-0.2,1.6c-0.1,0.4-0.1,0.8-0.2,1.2c0,0.2,0,0.2,0.2,0.2c0.8-0.1,1.5-0.2,2.3-0.3
				c0.7-0.1,1.3-0.1,2-0.2c0.2,0,0.5,0,0.7,0c0.3,0,0.7-0.1,1-0.1c0.6,0,1.2,0,1.7,0c0.6,0,1.2,0,1.7,0c0.4,0,0.8,0,1.2,0
				c0.3,0,0.5,0,0.8,0.1c0.1,0,0.2,0,0.2,0c0.1,0,0.1,0,0.2,0c0.2,0,0.3,0,0.5,0.1c0.4,0.1,0.9,0.1,1.3,0.2
				C220.4,49.3,220.5,49.3,220.7,49.3z M217.4,15.5C217.3,15.4,217.3,15.4,217.4,15.5c-0.5-0.4-1-0.5-1.5-0.2
				c-0.2,0.1-0.4,0.2-0.6,0.1c0,0-0.1,0-0.1,0c-0.5,0.1-0.9,0.3-1.2,0.8c-0.1,0.1-0.1,0.2,0,0.3c0.1,0.1,0.1,0.3,0.2,0.5
				c0.1,0.3,0,0.6-0.2,0.9c-0.1,0.1-0.2,0.1-0.3,0c-0.1-0.1-0.1-0.3-0.1-0.4c-0.1-0.3,0-0.5,0-0.8c0.1-0.2,0-0.3-0.1-0.5
				c0-0.1-0.1-0.1-0.1-0.2c-0.2-0.2-0.4-0.4-0.6-0.6c-0.4-0.3-0.8-0.4-1.3-0.4c-0.4,0-0.9,0.2-1.2,0.4c-0.1,0.1-0.2,0.1-0.3,0.3
				c0.1,0,0.2,0.1,0.4,0.1c0.6,0,1.1,0.3,1.6,0.7c0.4,0.4,0.5,0.8,0.6,1.3c0,0.3,0.1,0.5,0.3,0.8c0.3,0.5,0.9,0.9,1.6,0.6
				c0.3-0.1,0.5-0.3,0.6-0.6c0.1-0.2,0.1-0.4,0.1-0.7c0-0.4,0.1-0.8,0.4-1.2c0.2-0.3,0.4-0.5,0.6-0.7c0.2-0.1,0.3-0.2,0.5-0.3
				C216.8,15.5,217,15.5,217.4,15.5z M223.2,33.4c0,0.2,0.1,0.3,0.1,0.4c0.1,0.3,0.1,0.6,0.1,0.8c0,0.1,0,0.3,0,0.4
				c0,0.1,0,0.2-0.1,0.3c-0.1,0.2-0.2,0.5-0.3,0.7c-0.1,0.3-0.3,0.6-0.6,0.9c-0.4,0.5-0.4,0.9-0.2,1.4c0.2,0.5,0.9,0.6,1.2,0.5
				c0.2-0.1,0.4-0.2,0.6-0.3c0.2-0.1,0.4-0.2,0.6-0.3c0.3-0.1,0.7-0.1,1,0c0.4,0.1,0.7,0.2,0.9,0.5c0.1,0.1,0.2,0.2,0.3,0.3
				c0-0.1,0-0.2,0-0.2c0-0.2-0.1-0.4-0.2-0.6c-0.2-0.3-0.5-0.5-0.8-0.6c-0.2-0.1-0.2-0.1-0.1-0.3c0.1-0.2,0-0.4-0.2-0.5
				c-0.1,0-0.1-0.1-0.2-0.1c-0.4-0.1-0.9-0.1-1.3,0.2c-0.4,0.3-0.7,0.6-0.7,1.1c0,0.1,0,0.1-0.1,0.2c-0.1,0.1-0.2,0.2-0.4,0.1
				c-0.1,0-0.2-0.2-0.2-0.3c0-0.1,0-0.1,0.1-0.2c0.2-0.4,0.6-0.7,0.9-1c0.2-0.2,0.5-0.3,0.6-0.6c0.3-0.6,0.4-1.1,0.2-1.7
				c0-0.1-0.1-0.2-0.1-0.2c-0.2-0.4-0.5-0.6-0.9-0.8C223.5,33.4,223.4,33.3,223.2,33.4z M203,34.9c-0.2,0.2-0.3,0.5-0.4,0.7
				c0,0,0,0,0,0.1c0,0.4,0.2,0.6,0.5,0.8c0.2,0.1,0.4,0.3,0.6,0.4c0.3,0.3,0.6,0.6,0.7,1c0.1,0.2,0.1,0.4,0.2,0.5
				c0,0.1,0,0.3-0.1,0.3c-0.2,0.1-0.4,0-0.5-0.2c0-0.1,0-0.2-0.1-0.3c0-0.2-0.1-0.4-0.1-0.6c-0.1-0.2-0.1-0.4-0.3-0.6
				c-0.2-0.2-0.3-0.3-0.5-0.4c-0.2-0.1-0.3-0.2-0.5-0.2c-0.2,0-0.4,0-0.6,0.2c-0.2,0.2-0.4,0.4-0.3,0.7c0,0,0,0,0,0.1
				c0,0.2,0,0.3-0.2,0.3c-0.1,0-0.3,0.1-0.4,0.1c-0.4,0.2-0.7,0.5-0.8,0.8c-0.1,0.2-0.2,0.5-0.1,0.7c0.1-0.1,0.2-0.2,0.4-0.3
				c0.5-0.4,1-0.6,1.6-0.7c0.7-0.1,1.4,0.1,2,0.6c0.2,0.2,0.5,0.3,0.8,0.1c0.1,0,0.1-0.1,0.2-0.2c0.3-0.3,0.3-0.7,0.2-1.1
				c-0.1-0.3-0.2-0.5-0.5-0.7c-0.4-0.4-0.7-0.9-0.8-1.4c0-0.2-0.1-0.4-0.1-0.6c0-0.4,0-0.7,0.2-1c0.1-0.2,0.2-0.4,0.2-0.6
				c-0.3,0-0.5,0.1-0.7,0.3c-0.3,0.4-0.5,0.8-0.3,1.2C203.1,35.1,203,35.1,203,34.9z M223.4,28.6c0,0.1-0.1,0.2-0.1,0.3
				c0,0.1,0,0.1-0.1,0.2c-0.2,0.5-0.5,0.8-1.1,0.9c-0.1,0-0.1,0-0.2,0c-0.1-0.1,0-0.1,0-0.2c0.2-0.3,0.4-0.6,0.6-0.9
				c0.1-0.1,0.3-0.3,0.4-0.4c0,0,0.1-0.1,0.1-0.2c0-0.4-0.1-0.8-0.3-1.1c-0.2-0.4-0.6-0.7-1-0.9c-0.1,0-0.2-0.1-0.3-0.1
				c0.2,0.4,0.3,0.9,0.2,1.4c0,0.8-0.3,1.5-0.9,2c-0.4,0.4-0.4,0.6-0.2,1.1c0.1,0.3,0.3,0.4,0.6,0.4c0.2,0,0.4-0.1,0.6-0.2
				c0.2-0.1,0.3-0.2,0.5-0.3c0.3-0.1,0.7-0.2,1.1-0.3c0.5,0,0.9,0.1,1.3,0.3c0.1,0,0.1,0,0.2,0.1c-0.1-0.4-0.4-0.7-0.7-0.8
				c-0.2-0.1-0.3-0.2-0.3-0.4c0,0,0,0,0,0C224.1,29,223.9,28.8,223.4,28.6z M223.1,23.7c0-0.1,0-0.1,0-0.1c-0.2-0.3-0.5-0.6-0.8-0.7
				c-0.1,0-0.2-0.1-0.2-0.2c-0.1-0.2-0.2-0.3-0.4-0.3c-0.4-0.1-0.8-0.1-1.1,0.1c-0.1,0-0.1,0.1-0.2,0.2c-0.2,0.5-0.5,0.8-0.8,1.2
				c-0.1,0.1-0.1,0.1-0.2,0.1c-0.1,0-0.1-0.1-0.1-0.2c0.1-0.5,0.3-0.9,0.7-1.2c0.1-0.1,0.3-0.2,0.3-0.4c0-0.2,0.1-0.4,0.1-0.6
				c0-0.3-0.1-0.6-0.4-0.7c-0.1,0-0.1,0-0.2-0.1c-0.1,0-0.1-0.1-0.2-0.2c-0.1-0.3-0.3-0.4-0.5-0.6c-0.1,0-0.1-0.1-0.3-0.1
				c0,0.1,0,0.1,0,0.2c0.1,0.3,0.2,0.7,0.2,1.1c0,0.6-0.1,1.1-0.4,1.6c-0.2,0.3-0.3,0.7-0.4,1c-0.1,0.4,0.1,0.7,0.4,0.9
				c0.4,0.2,0.9,0.1,1.2-0.3c0.2-0.2,0.3-0.4,0.5-0.5c0.4-0.3,0.8-0.4,1.3-0.4c0.3,0,0.6,0,0.9,0.2C222.9,23.7,223,23.7,223.1,23.7z
				 M206.1,26.4c-0.5,0.1-0.8,0.3-1.1,0.6c-0.3,0.4-0.5,0.8-0.5,1.3c0,0.2,0,0.4,0.2,0.5c0.3,0.2,0.6,0.4,0.8,0.6
				c0.3,0.3,0.5,0.7,0.8,1c0,0.1,0.1,0.1,0,0.2c-0.1,0.1-0.1,0-0.2,0c-0.1,0-0.1-0.1-0.2-0.1c-0.4-0.2-0.7-0.5-1-0.8
				c-0.2-0.2-0.3-0.5-0.5-0.7c-0.1-0.1-0.2-0.2-0.4-0.2c-0.2,0-0.3,0.1-0.4,0.2c-0.3,0.2-0.4,0.5-0.3,0.8c0,0.1,0,0.2-0.1,0.2
				c-0.2,0.1-0.3,0.2-0.5,0.3c-0.2,0.1-0.2,0.4-0.3,0.6c0,0,0.1,0,0.1,0c0,0,0,0,0.1,0c0.3-0.2,0.6-0.2,1-0.3c0.3,0,0.6,0,0.9,0.1
				c0.4,0.1,0.7,0.3,1.1,0.5c0.5,0.3,0.9,0.3,1.3-0.2c0.2-0.3,0.2-0.7,0-1c-0.3-0.3-0.5-0.6-0.7-1c-0.2-0.4-0.3-0.8-0.2-1.2
				c0-0.1,0-0.2,0-0.3c0-0.2,0.1-0.4,0.2-0.6C206,26.7,206,26.6,206.1,26.4z M204.7,23.4C204.7,23.4,204.7,23.4,204.7,23.4
				c0.1,0,0.2,0,0.2,0c0.1,0,0.3-0.1,0.4-0.1c0.2,0,0.5,0,0.7,0c0.4,0,0.7,0.1,1,0.3c0.2,0.1,0.4,0.3,0.6,0.5
				c0.3,0.3,0.5,0.4,0.9,0.4c0.3,0,0.5-0.2,0.6-0.4c0.2-0.3,0.2-0.6,0.1-0.8c-0.2-0.5-0.4-1-0.6-1.5c-0.1-0.3-0.2-0.6-0.1-1
				c0-0.4,0.1-0.7,0.3-1.1c0,0,0-0.1,0-0.1c0,0-0.1,0-0.1,0c-0.3,0.1-0.5,0.2-0.6,0.6c0,0.2-0.1,0.3-0.3,0.3c-0.1,0-0.1,0.1-0.2,0.1
				c0,0-0.1,0-0.1,0.1c-0.1,0.2-0.2,0.4-0.1,0.6c0,0.1,0.1,0.3,0.1,0.4c0,0.2,0.1,0.3,0.3,0.4c0.4,0.3,0.6,0.7,0.7,1.2
				c0,0.1,0,0.1-0.1,0.2c-0.1,0-0.1,0-0.2,0c-0.3-0.3-0.6-0.7-0.8-1.2c0-0.1-0.1-0.1-0.1-0.2c-0.4-0.2-0.8-0.3-1.2-0.1
				c-0.2,0.1-0.3,0.2-0.3,0.4c0,0.1-0.1,0.2-0.2,0.2C205.1,22.7,204.8,23,204.7,23.4z M213.7,16c0,0,0.1-0.1,0.1-0.1
				c0.2-0.3,0.4-0.5,0.8-0.6c0.2-0.1,0.4-0.1,0.6-0.1c0.2,0,0.2-0.1,0.2-0.2c0-0.4-0.2-0.7-0.6-0.9c0,0-0.1,0-0.1,0
				c0,0-0.1-0.1-0.1-0.2c0-0.1-0.1-0.3-0.1-0.4c0-0.4-0.2-0.7-0.5-1c-0.3-0.2-0.5-0.2-0.8,0c-0.1,0.1-0.2,0.3-0.2,0.4
				c-0.1,0.3-0.2,0.5-0.5,0.7c-0.3,0.2-0.4,0.4-0.5,0.7c-0.1,0.2,0,0.2,0.1,0.2c0.3,0.1,0.6,0.3,0.8,0.5c0.2,0.1,0.3,0.3,0.3,0.5
				C213.5,15.8,213.6,15.9,213.7,16z M215.3,20.2c0-0.1,0-0.2-0.1-0.2c-0.3-0.2-0.6-0.3-0.9-0.4c-0.4-0.1-0.7,0-1.1,0
				c-0.3,0-0.6,0.2-0.8,0.3c-0.1,0.1-0.2,0.1-0.2,0.2C213.1,20.8,214.4,20.8,215.3,20.2z M207,42.1C207,42.1,207.1,42.1,207,42.1
				c0.1-0.1,0.1-0.3,0.1-0.4c0-0.3,0-0.7-0.1-1c-0.1-0.4-0.2-0.7-0.4-1.1c-0.2-0.4-0.5-0.5-0.9-0.6c-0.4,0-0.6,0.1-0.7,0.6
				c0,0.2,0,0.4,0.2,0.5c0.2,0.2,0.4,0.2,0.7,0.1c0.1-0.1,0.2,0,0.3,0c0.2,0.2,0.3,0.4,0.5,0.6c0.1,0.3,0.2,0.6,0.2,0.9
				C207,41.8,207,42,207,42.1z M210.5,26.3c0-0.1,0-0.1,0-0.2c-0.1-0.5-0.2-1-0.5-1.4c-0.1-0.2-0.3-0.3-0.5-0.3
				c-0.3,0-0.6,0.2-0.6,0.5c0,0.3,0.3,0.7,0.6,0.7c0.1,0,0.2,0,0.2,0c0.2-0.1,0.3,0,0.4,0.1C210.2,25.9,210.4,26.1,210.5,26.3z
				 M208.7,33c0-0.1,0-0.1,0-0.1c-0.1-0.4-0.2-0.9-0.5-1.3c-0.1-0.2-0.2-0.3-0.4-0.4c-0.4-0.2-0.7,0-0.9,0.4
				c-0.1,0.4,0.2,0.7,0.5,0.7c0.1,0,0.2-0.1,0.3-0.2c0.1-0.1,0.2-0.1,0.3,0c0.1,0.2,0.3,0.4,0.4,0.6C208.5,32.8,208.6,32.9,208.7,33
				z M220.4,40.8c0.1-0.2,0.2-0.4,0.4-0.5c0.2-0.2,0.4-0.3,0.6-0.4c0.3-0.1,0.3-0.1,0.4,0.2c0,0,0,0,0,0.1c0.1,0.1,0.2,0.2,0.3,0.1
				c0.1,0,0.2-0.1,0.2-0.2c0.1-0.2,0-0.5-0.2-0.6c-0.2-0.2-0.5-0.2-0.7-0.1C220.9,39.5,220.5,40,220.4,40.8z M219.1,32.7
				c0-0.1,0.1-0.2,0.1-0.2c0.2-0.3,0.5-0.3,0.7-0.1c0.1,0,0.1,0.1,0.2,0.1c0.2,0,0.4-0.1,0.5-0.3c0.2-0.3,0.1-0.5-0.2-0.7
				c-0.1,0-0.1-0.1-0.2-0.1c-0.2,0-0.4,0.1-0.6,0.2c-0.1,0.1-0.2,0.2-0.3,0.3C219.2,32,219.1,32.3,219.1,32.7z M217.2,26
				c0.2-0.3,0.4-0.6,0.7-0.8c0.1,0.1,0.2,0.2,0.2,0.3c0.1,0.1,0.1,0.1,0.3,0.1c0.3,0,0.4-0.3,0.3-0.5c-0.1-0.3-0.5-0.5-0.8-0.3
				c-0.2,0.1-0.3,0.3-0.4,0.5C217.3,25.5,217.2,25.8,217.2,26z M223.1,28.9c-0.2,0.2-0.5,0.5-0.6,0.8
				C222.7,29.5,223,29.1,223.1,28.9z M223.2,37.8c-0.2,0.2-0.2,0.2,0,0.2C223.2,38,223.2,37.9,223.2,37.8z"/>
			<path class="st2" d="M210.7,31.9c0.1-0.1,0.1-0.1,0.1-0.2c0.1-0.2,0.3-0.5,0.5-0.6c0.2-0.1,0.4-0.2,0.6-0.1
				c0.2,0.1,0.3,0.3,0.1,0.5c-0.3,0.2-0.5,0.5-0.7,0.8c0,0,0,0.1-0.1,0.2c-0.1,0.4-0.2,0.8-0.2,1.2c0,0.6,0,1.3,0,1.9
				c0,0.2,0,0.3,0,0.5c0,0.2,0.1,0.2,0.3,0.3c0.3,0,0.6,0,0.9,0c0-0.1,0-0.1,0-0.2c0-0.7,0-1.3,0-2c0-0.4,0-0.8,0-1.2
				c0-0.1-0.1-0.3-0.1-0.4c0-0.1,0-0.1,0-0.2c0-0.1,0.1-0.2,0.2-0.2c0.1,0,0.2,0,0.4,0c0.4,0,0.8,0,1.2,0c0.2,0,0.4,0.1,0.6,0.3
				c0.2,0.1,0.3,0.3,0.4,0.5c0,0.1,0.1,0.1,0.1,0.2c0.2,0.5,0.2,1-0.1,1.4c-0.1,0.3-0.4,0.5-0.6,0.7c0,0.1,0,0.2,0.1,0.2
				c0.3,0.2,0.5,0.5,0.6,0.8c0,0.1,0.1,0.1,0.2,0.1c0.2,0,0.4,0,0.6,0c0.1,0,0.2,0,0.2-0.2c0-0.1,0-0.2,0-0.3c0-0.5,0-1.1,0-1.6
				c0-0.3,0-0.6,0-0.9c0-0.3-0.1-0.5-0.2-0.8c-0.1-0.2-0.2-0.4-0.3-0.6c-0.1-0.1-0.1-0.2-0.3-0.1c-0.1,0-0.3,0-0.4-0.1
				c-0.1-0.1,0-0.3,0-0.4c0.1-0.1,0.2-0.2,0.3-0.2c0.2,0,0.3,0.1,0.5,0.2c0.3,0.2,0.5,0.4,0.7,0.7c0,0,0,0,0.1,0.1
				c0,0,0.1-0.1,0.2-0.1c0.1-0.1,0.3-0.1,0.5-0.1c0.2,0,0.2,0.1,0.1,0.3c0,0-0.1,0.1-0.1,0.1c-0.2,0.1-0.3,0.3-0.3,0.6
				c0,0.7,0,1.3,0,2c0,0.8,0,1.6,0,2.3c0,0.7,0,1.4,0,2.2c0,0.3,0.1,0.6,0.2,0.9c0.1,0.4,0.4,0.6,0.8,0.7c0.1,0,0.2,0,0.3,0.1
				c0.1,0,0.2,0,0.3,0.1c0.1,0,0.2,0.2,0.2,0.3c0,0.1-0.1,0.2-0.2,0.2c-0.4,0.1-0.8,0.1-1.2-0.1c-0.3-0.2-0.5-0.4-0.7-0.7
				c-0.1,0.1-0.1,0.1-0.2,0.2c-0.2,0.2-0.5,0.3-0.7,0.4c-0.1,0.1-0.2,0-0.3,0c-0.1-0.1-0.1-0.3,0-0.4c0.2-0.2,0.3-0.3,0.4-0.5
				c0.2-0.3,0.3-0.6,0.3-1c0-0.6,0-1.2,0-1.7c0-0.2,0-0.5,0-0.7c0-0.2,0-0.2-0.2-0.2c-0.1,0-0.3,0-0.4,0c-0.1,0.1-0.1,0.1-0.1,0.2
				c0.1,0.6,0.1,1.2-0.1,1.7c-0.1,0.3-0.2,0.5-0.4,0.8c-0.2,0.3-0.4,0.5-0.7,0.7c-0.2,0.1-0.4,0.2-0.7,0.3c-0.4,0.1-0.7,0-1-0.1
				c-0.1,0-0.1,0-0.2-0.1c-0.2-0.1-0.3-0.3-0.1-0.5c0.2-0.2,0.2-0.4,0.2-0.7c0-0.6,0-1.3,0-1.9c0,0,0-0.1,0-0.1
				c0-0.3-0.1-0.3-0.3-0.3c-0.1,0-0.3,0-0.4,0c-0.1,0-0.2,0-0.2,0c-0.2,0-0.3,0.2-0.3,0.3c0,0.5,0,0.9,0,1.4c0,0.3,0,0.6,0,0.9
				c0,0.5,0.2,1,0.5,1.3c0,0.1,0.1,0.1,0.1,0.2c0,0.1,0.1,0.2,0,0.3c-0.1,0.1-0.2,0.1-0.3,0.1c-0.1,0-0.1,0-0.2-0.1
				c-0.2-0.1-0.3-0.2-0.5-0.3c0,0-0.1,0-0.1-0.1c-0.2,0.2-0.3,0.3-0.5,0.5c-0.2,0.2-0.5,0.3-0.8,0.4c-0.1,0-0.1,0-0.2,0
				c-0.1,0-0.2,0-0.2-0.2c0-0.1,0-0.2,0.1-0.3c0.2-0.1,0.3-0.2,0.5-0.3c0.4-0.3,0.6-0.7,0.7-1.2c0-0.3,0.1-0.6,0.1-0.9
				c0-0.2,0-0.4,0-0.7c0-0.2,0-0.4,0-0.6c0-1.4,0-2.8,0-4.2c0-0.2,0-0.3-0.1-0.5c0-0.2-0.2-0.2-0.3-0.4c0,0,0,0,0,0
				c-0.1,0-0.2-0.1-0.2-0.2c0-0.1,0.1-0.2,0.3-0.2C210.3,31.8,210.5,31.8,210.7,31.9z M213.8,36.6C213.8,36.6,213.8,36.6,213.8,36.6
				c-0.2,0-0.4,0-0.6,0c-0.2,0-0.2,0-0.2,0.2c0,0.4,0,0.7,0,1.1c0,0.4,0.1,0.8,0.2,1.2c0,0.2,0.2,0.4,0.4,0.4c0.2,0,0.4,0,0.6-0.3
				c0.2-0.3,0.3-0.7,0.4-1.1c0.1-0.5,0.1-0.9,0-1.4c0-0.1,0-0.2-0.2-0.2C214.2,36.6,214,36.6,213.8,36.6z M213,34.6
				c0.3,0,0.6,0,0.8,0c0.1,0,0.1,0,0.2-0.1c0.1-0.1,0.3-0.3,0.3-0.5c0.2-0.5,0-0.9-0.2-1.3c-0.1-0.1-0.2-0.2-0.3-0.2
				c-0.1,0-0.2,0-0.3,0c-0.4,0-0.6,0.2-0.6,0.6c0,0.3,0,0.7,0,1C213,34.3,213,34.4,213,34.6z M213,36.1c0.5,0,0.9,0,1.4,0
				c0-0.1,0-0.1,0-0.1c-0.1-0.2-0.2-0.4-0.3-0.6c0,0-0.1-0.1-0.1-0.1c-0.2-0.1-0.5-0.2-0.7-0.1c-0.2,0-0.3,0.1-0.3,0.2
				C212.9,35.7,213,35.9,213,36.1z"/>
			<path class="st2" d="M218.1,46.5c0,0.2-0.1,0.3-0.1,0.5c0,0.2,0,0.3,0.2,0.4c0.1,0,0.1,0.2,0.1,0.2c0,0.1-0.1,0.2-0.2,0.2
				c-0.1,0-0.2,0-0.3,0c-0.1,0-0.2,0-0.4,0c-0.1,0-0.2-0.1-0.3-0.1c-0.1,0-0.3,0-0.4,0c-0.2,0-0.5,0-0.7,0c-0.2,0-0.2-0.1-0.3-0.2
				c0-0.1,0-0.2,0.2-0.2c0.2-0.1,0.3-0.2,0.3-0.5c0-0.5,0-1,0-1.6c0-0.1,0-0.1,0-0.2c-0.1,0.1-0.1,0.1-0.1,0.1
				c-0.2,0.4-0.4,0.9-0.5,1.3c-0.1,0.2-0.1,0.3-0.3,0.3c-0.1-0.2-0.3-0.5-0.4-0.7c-0.1-0.2-0.2-0.5-0.4-0.7c0,0.1,0,0.2,0,0.3
				c0,0.4,0,0.8,0,1.2c0,0.1,0,0.2,0.1,0.2c0,0.1,0.1,0.2,0.2,0.2c0.1,0,0.2,0.1,0.2,0.2c0,0.1,0,0.2-0.2,0.2c-0.3,0-0.6,0-1,0
				c-0.1,0-0.1,0-0.2,0c0-0.2,0-0.3,0.1-0.4c0.1-0.1,0.2-0.1,0.2-0.3c0-0.8,0-1.6,0-2.4c0-0.2,0-0.3-0.2-0.4c0,0-0.1-0.1-0.1-0.1
				c-0.1-0.1,0-0.2,0.1-0.3c0,0,0,0,0,0c0.3,0,0.5,0,0.8,0.1c0.1,0,0.1,0,0.2,0.1c0.2,0.4,0.4,0.9,0.6,1.3c0,0,0.1,0.1,0.1,0.2
				c0.1-0.2,0.2-0.5,0.3-0.7c0.1-0.3,0.2-0.5,0.3-0.8c0,0,0.1-0.1,0.1-0.1c0.1,0,0.2,0,0.2,0c0.2,0,0.4,0,0.6,0
				c0.2,0,0.2,0.1,0.1,0.3c-0.1,0.1-0.1,0.2-0.2,0.2c-0.2,0.3-0.2,0.6-0.2,0.8c0,0.3,0,0.7,0,1c0,0.2,0,0.4,0,0.7
				c0,0.2,0.1,0.3,0.2,0.4c0.2,0.2,0.4,0.1,0.5-0.1c0.1-0.1,0.1-0.2,0.1-0.3c0.1-0.6,0.3-1.2,0.4-1.8c0.1-0.3,0.1-0.6,0.2-0.9
				c0-0.1,0.1-0.1,0.1-0.1c0.1,0,0.2,0,0.4,0c0,0.1,0.1,0.2,0.1,0.3c0.3,0.9,0.5,1.7,0.8,2.6c0.1,0.2,0.1,0.3,0.2,0.5
				c0,0.2,0.1,0.3,0.3,0.4c0.1,0,0.2,0.3,0.1,0.4c0,0-0.1,0.1-0.2,0.1c-0.1,0-0.1,0-0.2-0.1c-0.3-0.1-0.6-0.2-0.9-0.2
				c-0.1,0-0.2,0-0.2-0.1c0-0.2,0-0.2,0.1-0.3c0.3-0.2,0.3-0.2,0.2-0.5c0-0.1-0.1-0.2-0.1-0.3c0,0-0.1-0.1-0.1-0.1
				C218.7,46.5,218.2,46.5,218.1,46.5z M218.5,45.4c-0.1,0.1-0.2,0.4-0.2,0.7c0.3,0,0.3,0,0.4,0C218.6,45.8,218.5,45.6,218.5,45.4z"
				/>
			<path class="st2" d="M213.4,28.2c-0.2,0.2-0.4,0.3-0.6,0.4c-0.2,0.1-0.3,0.2-0.5,0.3c-0.1,0-0.2,0.1-0.2,0c-0.1-0.1,0-0.2,0-0.2
				c0.1-0.2,0.3-0.4,0.4-0.6c0.1-0.1,0.1-0.2,0.2-0.3c-0.1,0-0.2-0.1-0.2-0.1c-0.3-0.1-0.6-0.1-0.8-0.2c-0.1,0-0.3,0-0.3-0.2
				c0-0.1,0.1-0.2,0.3-0.2c0.3-0.1,0.7-0.1,1-0.2c0,0,0.1,0,0.1,0c-0.1-0.1-0.1-0.2-0.2-0.3c-0.1-0.2-0.3-0.4-0.4-0.6
				c-0.1-0.1-0.1-0.2,0-0.3c0-0.1,0.2-0.1,0.3,0c0.2,0.2,0.5,0.3,0.7,0.5c0.1,0,0.1,0.1,0.2,0.2c0-0.1,0.1-0.2,0.1-0.3
				c0.1-0.3,0.1-0.6,0.2-0.9c0,0,0-0.1,0.1-0.1c0,0,0.1-0.1,0.2-0.1c0.1,0,0.1,0.1,0.1,0.1c0.1,0.3,0.1,0.6,0.2,0.9
				c0,0.1,0,0.2,0.1,0.2c0.1-0.1,0.2-0.1,0.3-0.2c0.2-0.1,0.4-0.3,0.6-0.4c0,0,0.1,0,0.1,0c0.1,0,0.2,0,0.2,0c0.1,0.1,0,0.2,0,0.2
				c-0.1,0.2-0.2,0.4-0.4,0.6c-0.1,0.1-0.2,0.3-0.3,0.5c0.2,0,0.4,0.1,0.5,0.1c0.3,0.1,0.5,0.1,0.8,0.2c0.1,0,0.1,0,0.1,0.1
				c0,0.1,0,0.1-0.1,0.2c-0.1,0-0.2,0.1-0.3,0.1c-0.2,0-0.5,0.1-0.7,0.1c-0.1,0-0.2,0-0.2,0.2c0.2,0.3,0.3,0.5,0.5,0.8
				c0,0.1,0.1,0.1,0.1,0.2c0,0.1,0,0.1,0,0.2c0,0-0.1,0-0.2,0c-0.2-0.1-0.3-0.2-0.5-0.3c-0.2-0.1-0.3-0.2-0.5-0.3
				c-0.1-0.1-0.2,0-0.2,0.1c0,0.2-0.1,0.5-0.1,0.7c0,0.1,0,0.2-0.1,0.3c0,0.1-0.1,0.2-0.2,0.2c-0.1,0-0.1-0.1-0.2-0.2
				c0-0.3-0.1-0.5-0.1-0.8C213.4,28.5,213.4,28.4,213.4,28.2z M214.2,27.2c0-0.3-0.2-0.5-0.5-0.5c-0.2,0-0.4,0.2-0.4,0.4
				c0,0.3,0.1,0.5,0.5,0.5C214.1,27.6,214.2,27.4,214.2,27.2z"/>
			<path class="st2" d="M209.4,46.1c0.1,0.1,0.1,0.2,0.2,0.2c0.2,0.2,0.4,0.4,0.5,0.7c0.1,0.1,0.1,0.2,0.2,0.3
				c0.1,0.1,0.1,0.1,0.2,0.1c0.1,0.1,0.2,0.1,0.1,0.2c0,0.1-0.1,0.2-0.2,0.2c-0.2,0-0.5,0.1-0.7,0.1c-0.1,0-0.1,0-0.2,0
				c-0.1,0-0.2-0.1-0.2-0.2c0.1-0.2,0-0.3-0.1-0.4c-0.2-0.3-0.4-0.6-0.7-0.9c0,0,0-0.1-0.1-0.1c-0.1-0.1-0.2-0.1-0.2,0.1
				c0,0.1,0,0.2,0,0.4c0,0.2,0,0.4-0.1,0.6c0,0.2,0,0.4,0.2,0.5c0.1,0,0.1,0.1,0.1,0.2c0,0.1-0.1,0.1-0.2,0.1
				c-0.3,0-0.6,0.1-0.9,0.2c-0.2,0.1-0.3,0.1-0.3,0c-0.1-0.1,0-0.2,0.1-0.3c0.2-0.1,0.3-0.3,0.3-0.5c0.1-0.3,0-0.6,0.1-0.9
				c0-0.3,0.1-0.6,0.1-0.9c0-0.2,0-0.5,0.1-0.7c0-0.2,0-0.3-0.2-0.4c-0.1-0.1-0.1-0.3,0.1-0.4c0.1,0,0.2-0.1,0.3-0.1
				c0.2,0,0.5,0,0.7,0c0.2,0,0.3,0,0.5,0c0.2,0,0.4,0,0.6,0.1c0.2,0.1,0.3,0.3,0.4,0.5c0.1,0.3,0.1,0.5-0.1,0.8
				c-0.1,0.1-0.1,0.2-0.3,0.3C209.7,45.9,209.6,46,209.4,46.1z M208.5,45.8c0.3,0.1,0.4,0.1,0.5,0c0.1,0,0.2-0.1,0.3-0.2
				c0.3-0.3,0.3-0.6,0.1-0.9c-0.1-0.1-0.1-0.1-0.3-0.1c-0.1,0-0.3,0-0.4,0.1c-0.1,0-0.2,0.1-0.2,0.2c0,0.1,0,0.2,0,0.3
				C208.5,45.3,208.5,45.6,208.5,45.8z"/>
			<path class="st2" d="M213.3,45.4c0,0.4,0,0.7-0.1,1c-0.2,0.4-0.4,0.9-0.8,1.1c-0.4,0.2-0.9,0.2-1.3-0.1c-0.3-0.3-0.5-0.7-0.6-1.1
				c-0.1-0.2-0.1-0.5-0.1-0.8c0-0.2,0-0.4,0.1-0.6c0.1-0.3,0.2-0.6,0.4-0.9c0.2-0.3,0.6-0.5,1-0.6c0.1,0,0.2,0,0.3,0
				c0.4,0.1,0.7,0.4,0.9,0.8C213.3,44.7,213.4,45.1,213.3,45.4z M212.7,45.5c0-0.3-0.1-0.6-0.2-0.9c0-0.1-0.1-0.3-0.2-0.4
				c-0.2-0.2-0.3-0.2-0.5,0c-0.3,0.3-0.4,0.6-0.5,1c0,0.1,0,0.1,0,0.2c-0.1,0.3-0.1,0.5,0,0.8c0,0.3,0.1,0.6,0.3,0.8
				c0.2,0.3,0.4,0.3,0.7,0.1c0.1-0.2,0.2-0.3,0.3-0.5C212.6,46.2,212.6,45.8,212.7,45.5z"/>
		</g>
	</g>
	<g>
		<g>
			<path class="st3" d="M8.5,33.8V23.4h3.6c1.3,0,2.2,0.2,2.9,0.7c0.7,0.5,1,1.2,1,2.1c0,0.5-0.1,1-0.4,1.3s-0.6,0.7-1.1,0.9
				c0.5,0.1,1,0.4,1.3,0.8c0.3,0.4,0.5,0.9,0.5,1.5c0,1-0.3,1.8-1,2.3c-0.6,0.5-1.5,0.8-2.7,0.8H8.5z M10.6,27.7h1.6
				c1.1,0,1.6-0.4,1.6-1.3c0-0.5-0.1-0.8-0.4-1c-0.3-0.2-0.7-0.3-1.3-0.3h-1.5V27.7z M10.6,29.2V32h1.8c0.5,0,0.9-0.1,1.2-0.4
				c0.3-0.2,0.4-0.6,0.4-1c0-1-0.5-1.4-1.5-1.4H10.6z"/>
			<path class="st3" d="M20.2,33.8h-2.1V23.4h2.1V33.8z"/>
			<path class="st3" d="M22.3,33.8V23.4H26c1.3,0,2.2,0.2,2.9,0.7c0.7,0.5,1,1.2,1,2.1c0,0.5-0.1,1-0.4,1.3s-0.6,0.7-1.1,0.9
				c0.5,0.1,1,0.4,1.3,0.8s0.5,0.9,0.5,1.5c0,1-0.3,1.8-1,2.3c-0.6,0.5-1.5,0.8-2.7,0.8H22.3z M24.5,27.7h1.6c1.1,0,1.6-0.4,1.6-1.3
				c0-0.5-0.1-0.8-0.4-1c-0.3-0.2-0.7-0.3-1.3-0.3h-1.5V27.7z M24.5,29.2V32h1.8c0.5,0,0.9-0.1,1.2-0.4c0.3-0.2,0.4-0.6,0.4-1
				c0-1-0.5-1.4-1.5-1.4H24.5z"/>
			<path class="st3" d="M34,32h4.5v1.7h-6.7V23.4H34V32z"/>
			<path class="st3" d="M42.2,33.8H40V23.4h2.1V33.8z"/>
			<path class="st3" d="M52.8,28.8c0,1-0.2,1.9-0.5,2.7c-0.4,0.8-0.9,1.4-1.6,1.8c-0.7,0.4-1.4,0.6-2.3,0.6c-0.9,0-1.6-0.2-2.3-0.6
				c-0.7-0.4-1.2-1-1.6-1.8S44,29.9,44,28.9v-0.5c0-1,0.2-1.9,0.6-2.7c0.4-0.8,0.9-1.4,1.6-1.8s1.4-0.6,2.3-0.6s1.6,0.2,2.3,0.6
				s1.2,1,1.6,1.8c0.4,0.8,0.6,1.7,0.6,2.7V28.8z M50.7,28.3c0-1.1-0.2-1.9-0.6-2.5c-0.4-0.6-0.9-0.8-1.7-0.8
				c-0.7,0-1.3,0.3-1.7,0.8s-0.6,1.4-0.6,2.5v0.5c0,1.1,0.2,1.9,0.6,2.5c0.4,0.6,1,0.9,1.7,0.9c0.7,0,1.3-0.3,1.7-0.8
				c0.4-0.6,0.6-1.4,0.6-2.5V28.3z"/>
			<path class="st3" d="M62.4,25.1h-3.2v8.7H57v-8.7h-3.1v-1.7h8.5V25.1z"/>
			<path class="st3" d="M72.2,33.8H70v-4.5h-4.2v4.5h-2.1V23.4h2.1v4.2H70v-4.2h2.1V33.8z"/>
			<path class="st3" d="M80.4,29.3h-4.1V32h4.8v1.7h-7V23.4h7v1.7h-4.8v2.5h4.1V29.3z"/>
			<path class="st3" d="M90.7,30.3c-0.1,1.1-0.5,2-1.2,2.6c-0.7,0.6-1.7,1-2.9,1c-1.3,0-2.4-0.4-3.1-1.3c-0.8-0.9-1.1-2.1-1.1-3.7
				v-0.6c0-1,0.2-1.9,0.5-2.6c0.4-0.8,0.9-1.3,1.5-1.8c0.7-0.4,1.4-0.6,2.3-0.6c1.2,0,2.2,0.3,2.9,1s1.2,1.5,1.3,2.7h-2.1
				c-0.1-0.7-0.2-1.2-0.6-1.5c-0.3-0.3-0.8-0.5-1.5-0.5c-0.7,0-1.2,0.3-1.6,0.8c-0.4,0.5-0.5,1.3-0.5,2.4v0.8c0,1.1,0.2,1.9,0.5,2.5
				s0.9,0.8,1.6,0.8c0.7,0,1.2-0.2,1.5-0.5c0.3-0.3,0.5-0.8,0.6-1.4H90.7z"/>
			<path class="st3" d="M98.1,31.6h-3.8l-0.7,2.1h-2.3l3.9-10.4h2l3.9,10.4h-2.3L98.1,31.6z M95,29.9h2.6L96.3,26L95,29.9z"/>
			<path class="st3" d="M114.5,33.8h-2.1v-4.5h-4.2v4.5H106V23.4h2.1v4.2h4.2v-4.2h2.1V33.8z"/>
			<path class="st3" d="M122.8,29.3h-4.1V32h4.8v1.7h-7V23.4h7v1.7h-4.8v2.5h4.1V29.3z"/>
			<path class="st3" d="M128.7,30H127v3.8h-2.1V23.4h3.9c1.2,0,2.2,0.3,2.8,0.8s1,1.3,1,2.3c0,0.7-0.2,1.3-0.5,1.8
				c-0.3,0.5-0.8,0.9-1.4,1.1l2.2,4.2v0.1h-2.3L128.7,30z M127,28.2h1.7c0.5,0,1-0.1,1.2-0.4c0.3-0.3,0.4-0.7,0.4-1.1
				c0-0.5-0.1-0.9-0.4-1.2s-0.7-0.4-1.3-0.4H127V28.2z"/>
			<path class="st3" d="M142.2,25.1H139v8.7h-2.1v-8.7h-3.1v-1.7h8.5V25.1z"/>
			<path class="st3" d="M145.8,32h5.2v1.7h-7.9v-1.3l5.1-7.4h-5.1v-1.7h7.8v1.2L145.8,32z"/>
			<path class="st3" d="M154.8,33.8h-2.1V23.4h2.1V33.8z"/>
			<path class="st3" d="M162.8,31.6h-3.8l-0.7,2.1h-2.3l3.9-10.4h2l3.9,10.4h-2.3L162.8,31.6z M159.7,29.9h2.6L161,26L159.7,29.9z"
				/>
			<path class="st3" d="M175.4,33.8h-2.1l-4.2-6.8v6.8H167V23.4h2.1l4.2,6.9v-6.9h2.1V33.8z"/>
			<path class="st3" d="M183.3,31.6h-3.8l-0.7,2.1h-2.3l3.9-10.4h2l3.9,10.4H184L183.3,31.6z M180.1,29.9h2.6l-1.3-3.9L180.1,29.9z"
				/>
		</g>
	</g>
	<g>
		<g>
			<path class="st0" d="M99.5,51.9h-3.4v3.4h-0.6V48h4.5v0.5h-3.9v2.8h3.4V51.9z"/>
			<path class="st0" d="M107.2,52c0,0.7-0.1,1.3-0.3,1.8c-0.2,0.5-0.6,0.9-1,1.2c-0.4,0.3-0.9,0.4-1.5,0.4c-0.9,0-1.5-0.3-2.1-0.9
				s-0.8-1.4-0.8-2.5v-0.8c0-0.7,0.1-1.3,0.4-1.8c0.2-0.5,0.6-0.9,1-1.2s0.9-0.4,1.5-0.4s1.1,0.1,1.5,0.4c0.4,0.3,0.8,0.7,1,1.1
				c0.2,0.5,0.4,1.1,0.4,1.7V52z M106.6,51.3c0-0.9-0.2-1.6-0.6-2.1s-0.9-0.7-1.6-0.7c-0.7,0-1.2,0.2-1.6,0.7
				c-0.4,0.5-0.6,1.2-0.6,2.1V52c0,0.9,0.2,1.5,0.6,2.1c0.4,0.5,0.9,0.8,1.6,0.8c0.7,0,1.2-0.2,1.6-0.7c0.4-0.5,0.6-1.2,0.6-2.1
				V51.3z"/>
			<path class="st0" d="M112,52.3h-2.1v3h-0.6V48h2.4c0.8,0,1.4,0.2,1.8,0.6c0.4,0.4,0.7,0.9,0.7,1.6c0,0.5-0.1,0.9-0.4,1.2
				c-0.3,0.4-0.6,0.6-1.1,0.7l1.8,3.1v0.1h-0.7L112,52.3z M109.9,51.7h1.9c0.5,0,0.9-0.1,1.2-0.4c0.3-0.3,0.5-0.7,0.5-1.1
				c0-0.5-0.2-0.9-0.5-1.2s-0.8-0.4-1.4-0.4h-1.7V51.7z"/>
			<path class="st0" d="M123.2,53.2h-3.3l-0.8,2h-0.6l2.8-7.3h0.6l2.8,7.3H124L123.2,53.2z M120.1,52.7h2.9l-1.5-4L120.1,52.7z"/>
			<path class="st0" d="M128.9,52.3h-2.1v3h-0.6V48h2.4c0.8,0,1.4,0.2,1.8,0.6c0.4,0.4,0.7,0.9,0.7,1.6c0,0.5-0.1,0.9-0.4,1.2
				c-0.3,0.4-0.6,0.6-1.1,0.7l1.8,3.1v0.1h-0.7L128.9,52.3z M126.8,51.7h1.9c0.5,0,0.9-0.1,1.2-0.4c0.3-0.3,0.5-0.7,0.5-1.1
				c0-0.5-0.2-0.9-0.5-1.2s-0.8-0.4-1.4-0.4h-1.7V51.7z"/>
			<path class="st0" d="M138.2,48.5h-2.5v6.8H135v-6.8h-2.5V48h5.6V48.5z"/>
			<path class="st0" d="M148.3,55.3h-0.6v-3.5h-4.2v3.5h-0.6V48h0.6v3.3h4.2V48h0.6V55.3z"/>
			<path class="st0" d="M151.4,55.3h-0.6V48h0.6V55.3z"/>
			<path class="st0" d="M158,53.5c0-0.4-0.1-0.7-0.4-1c-0.3-0.2-0.8-0.5-1.6-0.7c-0.8-0.2-1.3-0.4-1.7-0.7c-0.5-0.4-0.7-0.8-0.7-1.4
				c0-0.6,0.2-1,0.7-1.4s1-0.5,1.8-0.5c0.5,0,0.9,0.1,1.3,0.3c0.4,0.2,0.7,0.4,0.9,0.8s0.3,0.7,0.3,1.1h-0.6c0-0.5-0.2-0.9-0.5-1.2
				c-0.3-0.3-0.8-0.5-1.4-0.5c-0.6,0-1,0.1-1.3,0.4s-0.5,0.6-0.5,1c0,0.4,0.1,0.7,0.4,0.9c0.3,0.2,0.8,0.4,1.4,0.6s1.1,0.4,1.5,0.6
				c0.3,0.2,0.6,0.4,0.8,0.7c0.2,0.3,0.3,0.6,0.3,0.9c0,0.6-0.2,1-0.7,1.4c-0.5,0.3-1.1,0.5-1.8,0.5c-0.5,0-1-0.1-1.4-0.3
				c-0.4-0.2-0.8-0.4-1-0.8c-0.2-0.3-0.3-0.7-0.3-1.1h0.6c0,0.5,0.2,0.9,0.6,1.2c0.4,0.3,0.9,0.4,1.5,0.4c0.6,0,1-0.1,1.4-0.4
				S158,53.9,158,53.5z"/>
			<path class="st0" d="M165.4,48.5h-2.5v6.8h-0.6v-6.8h-2.5V48h5.6V48.5z"/>
			<path class="st0" d="M172.5,52c0,0.7-0.1,1.3-0.3,1.8c-0.2,0.5-0.6,0.9-1,1.2c-0.4,0.3-0.9,0.4-1.5,0.4c-0.9,0-1.5-0.3-2.1-0.9
				s-0.8-1.4-0.8-2.5v-0.8c0-0.7,0.1-1.3,0.4-1.8c0.2-0.5,0.6-0.9,1-1.2s0.9-0.4,1.5-0.4s1.1,0.1,1.5,0.4c0.4,0.3,0.8,0.7,1,1.1
				c0.2,0.5,0.4,1.1,0.4,1.7V52z M171.9,51.3c0-0.9-0.2-1.6-0.6-2.1s-0.9-0.7-1.6-0.7c-0.7,0-1.2,0.2-1.6,0.7
				c-0.4,0.5-0.6,1.2-0.6,2.1V52c0,0.9,0.2,1.5,0.6,2.1c0.4,0.5,0.9,0.8,1.6,0.8c0.7,0,1.2-0.2,1.6-0.7c0.4-0.5,0.6-1.2,0.6-2.1
				V51.3z"/>
			<path class="st0" d="M177.3,52.3h-2.1v3h-0.6V48h2.4c0.8,0,1.4,0.2,1.8,0.6c0.4,0.4,0.7,0.9,0.7,1.6c0,0.5-0.1,0.9-0.4,1.2
				c-0.3,0.4-0.6,0.6-1.1,0.7l1.8,3.1v0.1H179L177.3,52.3z M175.1,51.7h1.9c0.5,0,0.9-0.1,1.2-0.4c0.3-0.3,0.5-0.7,0.5-1.1
				c0-0.5-0.2-0.9-0.5-1.2s-0.8-0.4-1.4-0.4h-1.7V51.7z"/>
			<path class="st0" d="M183.7,52l2.2-4h0.7l-2.6,4.5v2.7h-0.6v-2.7l-2.6-4.5h0.7L183.7,52z"/>
		</g>
	</g>
	<g>
		<g>
			<path class="st0" d="M61.3,37.3l1.9,5.3l1.9-5.3h2v7.3h-1.5v-2l0.2-3.4l-2,5.4h-1l-2-5.4l0.2,3.4v2h-1.5v-7.3H61.3z"/>
			<path class="st0" d="M73,43.1h-2.6l-0.5,1.5h-1.6l2.7-7.3h1.4l2.7,7.3h-1.6L73,43.1z M70.8,41.8h1.8l-0.9-2.7L70.8,41.8z"/>
			<path class="st0" d="M78.9,39.8l1.4-2.5H82l-2.1,3.6l2.2,3.7h-1.7L78.9,42l-1.4,2.6h-1.7l2.2-3.7l-2.1-3.6h1.7L78.9,39.8z"/>
			<path class="st0" d="M87.9,42v2.6h-1.5v-7.3h2.8c0.5,0,1,0.1,1.4,0.3c0.4,0.2,0.7,0.5,1,0.9c0.2,0.4,0.3,0.8,0.3,1.3
				c0,0.7-0.2,1.3-0.7,1.7s-1.2,0.6-2,0.6H87.9z M87.9,40.8h1.3c0.4,0,0.7-0.1,0.9-0.3c0.2-0.2,0.3-0.5,0.3-0.8
				c0-0.4-0.1-0.6-0.3-0.9c-0.2-0.2-0.5-0.3-0.9-0.3h-1.4V40.8z"/>
			<path class="st0" d="M95,43.4h3.2v1.2h-4.7v-7.3H95V43.4z"/>
			<path class="st0" d="M103.7,43.1H101l-0.5,1.5h-1.6l2.7-7.3h1.4l2.7,7.3h-1.6L103.7,43.1z M101.5,41.8h1.8l-0.9-2.7L101.5,41.8z"
				/>
			<path class="st0" d="M112.9,44.6h-1.5l-2.9-4.8v4.8H107v-7.3h1.5l2.9,4.8v-4.8h1.5V44.6z"/>
			<path class="st0" d="M120.4,42.1c-0.1,0.8-0.3,1.4-0.9,1.9c-0.5,0.5-1.2,0.7-2.1,0.7c-0.9,0-1.7-0.3-2.2-0.9
				c-0.5-0.6-0.8-1.5-0.8-2.6v-0.4c0-0.7,0.1-1.3,0.4-1.9s0.6-0.9,1.1-1.2c0.5-0.3,1-0.4,1.6-0.4c0.8,0,1.5,0.2,2,0.7
				c0.5,0.5,0.8,1.1,0.9,1.9H119c0-0.5-0.2-0.8-0.4-1c-0.2-0.2-0.6-0.3-1-0.3c-0.5,0-0.9,0.2-1.1,0.5c-0.2,0.4-0.4,0.9-0.4,1.7v0.6
				c0,0.8,0.1,1.4,0.4,1.7c0.2,0.4,0.6,0.5,1.1,0.5c0.5,0,0.8-0.1,1-0.3c0.2-0.2,0.4-0.5,0.4-1H120.4z"/>
			<path class="st0" d="M124.2,41.6l-0.8,0.8v2.1h-1.5v-7.3h1.5v3.3l0.7-0.9l1.9-2.4h1.8l-2.6,3.2l2.7,4.1h-1.8L124.2,41.6z"/>
			<path class="st0" d="M133.6,44.6h-1.5v-7.3h1.5V44.6z"/>
			<path class="st0" d="M141.5,44.6H140l-2.9-4.8v4.8h-1.5v-7.3h1.5l2.9,4.8v-4.8h1.5V44.6z"/>
			<path class="st0" d="M147.1,42.6c0-0.3-0.1-0.5-0.3-0.7c-0.2-0.2-0.6-0.3-1.1-0.5c-0.5-0.2-0.9-0.3-1.2-0.5
				c-0.8-0.4-1.2-1-1.2-1.8c0-0.4,0.1-0.7,0.3-1.1c0.2-0.3,0.5-0.5,1-0.7c0.4-0.2,0.9-0.3,1.4-0.3c0.5,0,1,0.1,1.4,0.3
				c0.4,0.2,0.7,0.5,0.9,0.8c0.2,0.3,0.3,0.7,0.3,1.2h-1.5c0-0.3-0.1-0.6-0.3-0.8c-0.2-0.2-0.5-0.3-0.9-0.3c-0.4,0-0.7,0.1-0.9,0.2
				c-0.2,0.2-0.3,0.4-0.3,0.6c0,0.2,0.1,0.4,0.4,0.6c0.2,0.2,0.6,0.3,1.1,0.5c0.9,0.3,1.5,0.6,1.9,1c0.4,0.4,0.6,0.9,0.6,1.4
				c0,0.6-0.2,1.1-0.7,1.5c-0.5,0.4-1.1,0.5-1.9,0.5c-0.6,0-1.1-0.1-1.5-0.3c-0.5-0.2-0.8-0.5-1.1-0.8c-0.2-0.4-0.4-0.8-0.4-1.2h1.5
				c0,0.8,0.5,1.2,1.4,1.2c0.4,0,0.6-0.1,0.8-0.2C147,43.1,147.1,42.9,147.1,42.6z"/>
			<path class="st0" d="M155.6,38.5h-2.2v6.1h-1.5v-6.1h-2.2v-1.2h5.9V38.5z"/>
			<path class="st0" d="M158.6,44.6h-1.5v-7.3h1.5V44.6z"/>
			<path class="st0" d="M166,38.5h-2.2v6.1h-1.5v-6.1H160v-1.2h5.9V38.5z"/>
			<path class="st0" d="M172.8,37.3v4.8c0,0.8-0.2,1.4-0.7,1.9s-1.2,0.7-2,0.7c-0.9,0-1.5-0.2-2-0.7c-0.5-0.5-0.8-1.1-0.8-1.9v-4.9
				h1.5v4.8c0,0.5,0.1,0.8,0.3,1c0.2,0.2,0.5,0.3,0.9,0.3c0.8,0,1.3-0.4,1.3-1.3v-4.9H172.8z"/>
			<path class="st0" d="M180.1,38.5h-2.2v6.1h-1.5v-6.1h-2.2v-1.2h5.9V38.5z"/>
			<path class="st0" d="M185.8,41.4h-2.9v2h3.4v1.2h-4.9v-7.3h4.9v1.2h-3.4v1.7h2.9V41.4z"/>
		</g>
	</g>
</g>
</svg>
