<svg id="ie-freiburg-mobile" xmlns="http://www.w3.org/2000/svg" viewBox="0 0 900 325"><defs><style>.cls-1,.cls-2{fill:#666;}.cls-2{fill-rule:evenodd;}.cls-3{fill:none;stroke:#666;stroke-miterlimit:10;}.cls-4{fill:#8e1b15;}</style></defs><title>bilhertz-mobile-de</title><path class="cls-1" d="M2.8,99.95A97.2,97.2,0,1,1,100,197.15,97.31,97.31,0,0,1,2.8,99.95Zm-2.8,0A100,100,0,1,0,100-.05,100.11,100.11,0,0,0,0,99.95Z"/><path class="cls-1" d="M165.7,116.21c-2.72,2.53-6.58,2.57-9.7,4.63-1.43,1.43-1.07,3.06-.48,4.86,1.15,2.29.72,2-.9,2.59-3.77,1.26-3.73,5.38-8.26,4.69-.26.08-1.32-.45-.69.31.49.58.69.23,1.65.35,1.61.08,2.22-.59,3.35-1.36,1.62-1.36,1.42-1.87,3.41-2.83a5,5,0,0,1,2.31-.23c.44.41.45.42.53.78-.26,1.1-1.87,2-2.49,2.41.85.62,2.43,1.67,2.18,2.55-.36.58-.35.67-1,1a4.59,4.59,0,0,1-4.38-.88c-.26.08-.54-.5-1.26.19,1.65,1.69,4,1.31,4.3,1.66s-1.23,2.39-1.3,2.83c-1.1,2.94.25,5.64-.34,8.7a6.46,6.46,0,0,1-3.17,5c-3.84,2.66-6.52,3.42-10.83,4.12-11.28.77-18.4-3.1-26.53-9.17s-11.23-9.3-13.77-12.71c0-1.4,1-2.46.11-4-.73.26-.66,1.21-1.1,1.77a4,4,0,0,1-3.2,1.43c-3.34-1.14-3.53-5.07-5.62-7.31a14.31,14.31,0,0,1-3.34-16.09,7.82,7.82,0,0,1,4-3.82c2.09-.33,4.56-.33,5.92,1.69a11.87,11.87,0,0,1,3,6.24c.66,1.07-.14,2.28,1,3.16,1.91.18,3.56.66,5.4-.51,1.36.18,1.55,1.69,2.57,2.35l1.84,1.11a6,6,0,0,0,6.1-.63c3.09-3.16,2.41-6.41,3.48-9.9a13.71,13.71,0,0,0,4.86-10A16.11,16.11,0,0,0,121,94.42a18.14,18.14,0,0,1,1.4-3.49,3.66,3.66,0,0,1,1.25-.29c3.27-.7,6.25-3.68,7.53-6.8l.29-.29c3.75-.26,8.42-1.58,10.58-5.52.44-1.69,2.35-.44,3.53-.84a9.76,9.76,0,0,0,5.48-2.5c.44-.15.77.33,1,.55.88,2.94,2.5,5.77,3.41,8.75a10.19,10.19,0,0,1,1.14,6.65c.48,3.49,2.46,6.76,3.86,10.29,1.4,3.71,3.56,7.46,5.14,11.28.29,1.54,1,2.76,0,4Zm.77-6.41c-2.65-6.1-5.62-11.36-7.79-17.49-1.54-2.2-.66-4.56-.84-6.91-1-3.68-2.54-6.51-4-10.07-.41-1,.74-1.33,1.14-2.06a7.34,7.34,0,0,0-.63-5.55c-.33-1,.85-1.69.63-2.72,0-1.58-1.43-2.65-2.54-3.49a39.46,39.46,0,0,0-4.48-5.81v-.41a5.49,5.49,0,0,0,1.84-3.86c-.41-1.54-.73-3-2.21-4-2.35-1.32-4.74.74-6.61,1.8-.52.36-.78.73-1.51.66L138,49.33A13.51,13.51,0,0,1,136.18,51l2.28.93c.08.06.11.11.11.18a1.36,1.36,0,0,1,0,.18L133.27,57,124,66.08l-2.65,2.69-8.21,9.46A194.48,194.48,0,0,0,98.74,97.33c-2,2.73-4,5.77-5.8,8.64-.2.32-.57.29-1.17.22a2.73,2.73,0,0,0-1.2,0h0l-.08,0,.07,0a8.59,8.59,0,0,0-5.22,2.39,13.25,13.25,0,0,0-3.16,8.73,17.48,17.48,0,0,0,1.53,6.93,10.49,10.49,0,0,1-2.31,3.36l-.49.56-.63.62a12.74,12.74,0,0,0-1.22,1.26l0,0,0,.05c0,.14-.06.4.34.6l.1.05.11,0c1.94-.46,3.16-1.92,4.35-3.33l.85-1c.17,0,.32.07.58.28a2.08,2.08,0,0,0,.46.3v.1s0,.63,0,.77a61,61,0,0,1-13.24,10l-.82.48.94.1c1.91.19,3.72-.88,5.48-1.92l2.11-1.16a31,31,0,0,0,5.5-4L87.49,130c.16,0,.35.24.49.41l.17.18,1.56,3.07a17,17,0,0,0-.47,4.05,41.28,41.28,0,0,0,1.26,8.74A41.12,41.12,0,0,1,91.75,155c0,.19,0,.37,0,.56A3.34,3.34,0,0,1,90,158a43.05,43.05,0,0,1-6.41.36,34.73,34.73,0,0,0-8.15.67,16.86,16.86,0,0,0-2.42.56,19.43,19.43,0,0,1-2.43.57h-.08l-.09.07-.28.19a1.23,1.23,0,0,0-.66.75.79.79,0,0,0,0,.1,1,1,0,0,0,.27.63.69.69,0,0,0,.56.22,7,7,0,0,0,2.22-.56,9.7,9.7,0,0,1,1.58-.48,57.44,57.44,0,0,1,13.59-.37c1.76,0,4.64-.09,5.68-2.58a8,8,0,0,0,.5-2.85,18.25,18.25,0,0,0-.31-2.94L93.21,150c-.21-1.48-.52-3-.83-4.38a37.77,37.77,0,0,1-1.09-7.79c0-.54,0-1.07.08-1.61.05-.07.11-.15.18-.16s.43.19.64.36a2.25,2.25,0,0,0,.78.45,2,2,0,0,0,1,.35c.46.06.7.12.85.47a31.88,31.88,0,0,0,1.78,7A48.74,48.74,0,0,1,98,149.57a39.63,39.63,0,0,1,1.27,8.51,14.53,14.53,0,0,1-.82,5c-1.23,2.24-3.91,2.25-6.51,2.26H91.2l-6.36-.39c-5.46-.4-11.09-.8-16.88.13l-1.29.14a5.39,5.39,0,0,1-2.11,0,1.31,1.31,0,0,1-.48-1,1,1,0,0,1,.07-.37,15.2,15.2,0,0,0,1.55-6.16,7.7,7.7,0,0,0-1-4,16.31,16.31,0,0,0-5.17-6.24C57,145,54.91,142.83,53,140.69a10.65,10.65,0,0,1-1.86-.38l-.25-.08-1.1,1.36c1.43,1.36,2.76,2.72,4.38,4.19,2.46,1.32,4.45,3.71,6.21,5.33a9.49,9.49,0,0,1,2.2,8.08c-.29,3.49-3.49,5-5.66,7.31-.88,1.65-1.43,3.64-.22,5.18.78,2.05,4.08,1.68,4.48,3.38.91,3.73,7.39,5.89,8.65,6a5,5,0,0,1,2.56,1.48c2.57,1.87,6,1.42,7.73,1.15s4.95,1.17,6.93.87c3-1.18,5.4-.63,8.49-.88,9.7.15,20.72-.07,30.65,1.17,1.84-.22,4,1.21,5.77.33.44-.74.11-1.36,0-2a27.4,27.4,0,0,1-2.76-24l1.79.1a29,29,0,0,0,18.83-3.92c3.27-1.8,5-6,4.84-9.07-.11-2-.8-4.32-.46-6.42a4.23,4.23,0,0,1,1.54-2.8,4.68,4.68,0,0,0,1.93-2.05,2.14,2.14,0,0,0-1.1-2.73,3.19,3.19,0,0,0,1.09-4.2,11,11,0,0,1-1.4-4.08c-.22-1.21-.26-2.46.88-3.24,2.57-1.36,5-1.69,7.68-2.86a4.6,4.6,0,0,0,2.72-4.41l-1.1-3.75ZM61.4,170.39a5.05,5.05,0,0,0-.43,1.7c-.18.32-1.1-.11-1.39-.29-1.14-.62-1.06-.3-1.39-1.36a1.7,1.7,0,0,1,1-2.16c.73-.41,2.2-.91,2.68,0,.15.62-.59,1.41-.48,2.12Zm6.27,7.94c-1.51,0-2.56-.79-3.26-2.56a12.39,12.39,0,0,1-.45-6.58c.15-.29.49-.48.7-.39l2.1-.71a3,3,0,0,1,2-.22l.43.42c0,1.23-.33,2.13-.36,3.27-.12,2.84-.36,3.69.46,6.4-.3.72-.91.37-1.56.38ZM154,72.62c-.21.22-.46.48-.81.39-.78-.54-.48-1.24-.44-1.9.16-.16.19-.25.44-.25a.73.73,0,0,1,.71.41,1.62,1.62,0,0,1,.09,1.35ZM94.4,107c5.15-9.22,11.4-17.24,18.08-25.47l9.37-10.65c6.69-7.13,14.07-14.45,22.27-20.1,1-.59,1.48-1.8,2.54-1l1,.89c.65.73.08,2.82-.58,3.41l-1.55,1.28c1.6,1.58,3.9,4.59,5.8,6.54.83.86.58,1.75,2.06,2.44a1.23,1.23,0,0,1,.51,1.86c-1.32,1.69-3.52,1.43-5.25,1.88a79.25,79.25,0,0,0-18.74,6.72,42.81,42.81,0,0,0-14.37,11.54c-1.58,1.95-3.34,3.42-4.66,5.77a138.68,138.68,0,0,0-9.71,14.3,17.59,17.59,0,0,1-2.9,3.75c-.72.69-1.37-.75-1.82-1.25a1.18,1.18,0,0,1-.12-.17.68.68,0,0,1-.47-.11c-.4-.51-1.65-.74-1.43-1.65ZM151.09,71.4c-.1,1.78-2.47,3.26-4.46,3.81a14.47,14.47,0,0,1-2.38.08c-.19-.14-.42-.3-.39-.49.13-.85.26-1.34.33-2.1l.49-.36c1.76-.35,3.9-.73,5.67-1.2.26.06.59,0,.75.27ZM132.62,76l.32-.41A27.84,27.84,0,0,1,137.31,74l1.92-.5c.51-.46,1.4-.84,1.92-.18a7.63,7.63,0,0,1-4.57,6.6,20.63,20.63,0,0,1-3,.75c-.26-.22-1.09.25-1.34-.38.16-1.24.64-3.1.42-4.22ZM113,120c-.51.3-5-1.4-4.44-.92-1.05-1.14.67-1.53-3.25-3l-1,.1c-.12.11-.47.29-.82-.2,0-.59.74-.5,1-1.24,1.4-3.16.63-5.6.49-8.87l1-2.68a42.85,42.85,0,0,1,3.3-4,14.55,14.55,0,0,1,3.4-3.56,1,1,0,0,1,1.18-.16,2.87,2.87,0,0,1,1.13,1.93c.42,3.13-1.47,5.27-3.75,7-1.62,1.4-3.16,3.57-2.81,5.7l.14.15c.74-.62,1.67-1,2-1.76,1.23-2.75,4.55-4,6.41-6.39.81-1.43.31-3.92,0-5.57,0,0,2.43-1.16,1.77-.72,1.16.48,1,1.31,1.58,2.37a7.53,7.53,0,0,1-.69,7.64l-4.63,5.78c-.07,2.94.74,6.73-2.07,8.46Zm6.11-28a4,4,0,0,1-3.49.06c-.31-.43-1.33-.77-.93-1.4.89-1.45,2.41-2.64,3.34-4.07l.43-.23c1.88-2.28,4.85-4.18,7.67-5.89l1.7-.74c.37-.37,1.24-1.14,1.58-.34a9.94,9.94,0,0,1-4,8.23c-1.72,1.27-2.45,1-4,1.11l-.79,1.42a3.36,3.36,0,0,1-1.51,1.85ZM103.52,109l-.08,2.1a6.78,6.78,0,0,1-2.87,5.18c-1.07-.26-.69-1.55-1-2.42a25.91,25.91,0,0,1,3.14-5.18.44.44,0,0,1,.46-.11l.31.44ZM77.93,181.84c-.75.77-1.17.41-1.93.48a4.89,4.89,0,0,1-4.05-4,24.61,24.61,0,0,1,0-10.66l.35-.27c1.52-.17,3.82-.48,4.45-.14s-.67,6.49-.67,6.49a23.94,23.94,0,0,0,1.11,6c.12.24,1.36,1.49.75,2.12ZM93.62,178c-.23,2.19-3,4.12-4.33,4.51a18.15,18.15,0,0,1-6.54-.21c-1.16-.4-4-5.93-3.66-8.8,0-2.37.64-6.13,1.59-6.43a14.89,14.89,0,0,1,3.47-.14,13.5,13.5,0,0,1,2.77.29c.66.25.19,1.08.43,1.55a11.73,11.73,0,0,0,1.12,3.77,8.8,8.8,0,0,0,4.92,4c.43.4.2.93.23,1.47Zm-3.09-9.27c0-.44,0-.62.36-.77h1.82c1.61.06,3.69.59,5.2-1,.87,0,.95,1.06,1.18,1.86a13.42,13.42,0,0,1,.16,2.82,5.48,5.48,0,0,1-1.59,2.5,4.68,4.68,0,0,1-3.87,0,6.09,6.09,0,0,1-3.25-5.44Zm37.21-8.68c-2.43,8.42-3.59,12.76.2,21.43,0,.33.4,1.4,0,1.55a58.4,58.4,0,0,0-9.24-1.49c-3.64-.63-9.68.38-13.72.35-3.16.11-6.36.22-9.67.62-1-.51-.22-1.62-.14-2.35a11.53,11.53,0,0,0,.51-3.05c.51-.55,1.14-.26,1.76-.51a5.8,5.8,0,0,0,4.45-4.19c.66-2.09-.07-4.41-1-6.39-.19-.59-1-1-.66-1.61,2.61-4.89.77-9.85-.11-14.63-.92-3.39-2.32-7.13-2.87-10.7.11-.36-.36-1.21.44-1.29l.3.07c2.79,3.38,10.79,10.54,13.78,12.87s10.73,6.84,15.76,8c.48.4.41.73.23,1.28Z"/><path class="cls-1" d="M149,86.92c.51.66.85,1.25.44,1.88-1,.07-1.1-1.14-1.91-1.55-1.32-.66-2.5,0-3.82.37-3.34,1.43-6.14,4.3-9.37,5.8a1.26,1.26,0,0,1-1-.33c.55-.55,1.43-.66,2.13-1.1,3.34-2.2,6.58-5.66,10.77-6.28A3.17,3.17,0,0,1,149,86.92Z"/><path class="cls-1" d="M148.72,92.58c-.26-.81-.22-2.13-1.21-2.32-.22.51,0,1.07-.22,1.55a1.45,1.45,0,0,1-1.4.66c-4,.26-7.05,3.83-10.51,5.66a15.82,15.82,0,0,1-3.75,1.36.4.4,0,0,0,.11.55c3.83.41,7.61.77,11.4,1.18l4.22-.48c.11-.55-.55-1-.44-1.65a9.66,9.66,0,0,0,.15-5.22c.33-.88,1.58-.22,1.65-1.28Zm-3,6.53c-.52.77-1.34.1-2.06.19-1.65-.19-4.45.2-6.27,0-.28-.16-.48-.45-.31-.7.28-.45,1-.48,1.52-.84a22,22,0,0,1,6.37-3,.79.79,0,0,1,.83.58,10.78,10.78,0,0,1-.07,3.78Z"/><path class="cls-1" d="M150.86,111.52c.14-.19.29-.41.47-.43s.37.2.4.65a12,12,0,0,1-.4,2.24,11.78,11.78,0,0,0-.44,2.72,4.52,4.52,0,0,0,.15,1.18,2,2,0,0,0,2.34.47l1.67-1a17.61,17.61,0,0,1,5.32-2.32c.06,0,.08,0,.09,0a.44.44,0,0,1,.06.26,2.08,2.08,0,0,1-.17.75l-2.43,1.08a56.91,56.91,0,0,0-5.51,2.65,2.16,2.16,0,0,1-1.48-.45l-.12-.07a4.41,4.41,0,0,1-.89-2.72,11.46,11.46,0,0,1,.36-2.43,14.45,14.45,0,0,0,.38-2.4l.21-.25Z"/><path class="cls-1" d="M93.6,110.77c1.32,2.72-.07,5.29,0,8.12.22.81,1.8.92,1.32,1.88a1.11,1.11,0,0,1-1.29,0,2.26,2.26,0,0,1-1.18-1.69c-.18-2.5,1.8-5.4,0-7.76a3.31,3.31,0,0,0-2-1.06c-1.58.29-2.39,2-2.94,3.23-.85,3.31-1.07,6.8,1.83,9.44,1.7,1,3.75,2.06,3.86,4.19.26.37.77.73,1.18.51.51,0,.59-1.51,1.32-.81l.22.51c-.18.59-.36,1.62-1.32,1.65a1.84,1.84,0,0,1-1.4-.44c-1-1.06-.22-2.68-2-3.38-2.87-.88-4.74-3.9-5-6.73s-.07-5.69,2.28-8.08a3.7,3.7,0,0,1,3.31-.77,2.59,2.59,0,0,1,1.73,1.14Z"/><path class="cls-2" d="M57.67,130.65c-5.23,2.43-6.83,8.66-6.9,8.93l-.14.55.54.18a15.29,15.29,0,0,0,11-1.25,13.85,13.85,0,0,0,7.26-9.1l.12-.63-.63-.1a21.51,21.51,0,0,0-11.24,1.42Zm.52,1.12A20.15,20.15,0,0,1,68,130.36a12.67,12.67,0,0,1-6.4,7.58,14.65,14.65,0,0,1-9.46,1.33c.5-1.51,2.19-5.72,6-7.5Z"/><path class="cls-2" d="M62.88,118.9c-5.24,2.37-7.18,8.54-7.26,8.8l-.18.59.59.18a16,16,0,0,0,11-1.33,13.66,13.66,0,0,0,7.33-8.83l.13-.63-.63-.11a20.75,20.75,0,0,0-11,1.33Zm.51,1.13a19.39,19.39,0,0,1,9.55-1.33A12.57,12.57,0,0,1,66.49,126,15.57,15.57,0,0,1,57,127.43c.6-1.54,2.52-5.67,6.35-7.4Z"/><path class="cls-2" d="M69.69,107.59c-5.25,2.31-7.52,8.42-7.62,8.68l-.23.63.64.18a17,17,0,0,0,11-1.42,13.5,13.5,0,0,0,7.41-8.56l.14-.62-.63-.12a19.75,19.75,0,0,0-10.71,1.24Zm.5,1.13a18.65,18.65,0,0,1,9.28-1.25A12.5,12.5,0,0,1,73,114.53,16.66,16.66,0,0,1,63.53,116c.71-1.57,2.84-5.61,6.66-7.29Z"/><path class="cls-2" d="M76.46,96.41c-5.25,2.25-7.86,8.3-8,8.56l-.28.67.7.18a18,18,0,0,0,11-1.5A13.36,13.36,0,0,0,87.38,96l.15-.62-.63-.13a19,19,0,0,0-10.45,1.15Zm.49,1.14a18,18,0,0,1,9-1.18,12.45,12.45,0,0,1-6.56,6.81A17.76,17.76,0,0,1,70,104.73c.82-1.59,3.16-5.55,7-7.18Z"/><path class="cls-2" d="M85.82,85.23c-5.27,2.19-8.21,8.19-8.33,8.44l-.34.71.76.16a19.13,19.13,0,0,0,11-1.59,13.24,13.24,0,0,0,7.54-8l.17-.62L96,84.18a18.05,18.05,0,0,0-10.18,1.05Zm.47,1.14A17.21,17.21,0,0,1,95,85.27a12.45,12.45,0,0,1-6.61,6.55A19,19,0,0,1,79,93.45c.94-1.62,3.48-5.5,7.27-7.07Z"/><path class="cls-2" d="M96.14,74.44c-5.28,2.13-8.55,8.07-8.69,8.32l-.4.75.83.16a20.43,20.43,0,0,0,11-1.67c6.11-2.62,7.57-7.53,7.62-7.74l.18-.61-.61-.16a17.16,17.16,0,0,0-9.92,1Zm.46,1.15a16.49,16.49,0,0,1,8.45-1,12.47,12.47,0,0,1-6.67,6.3A20.46,20.46,0,0,1,89,82.55c1.05-1.65,3.79-5.43,7.57-7Z"/><path class="cls-2" d="M107.15,64.24c-5.28,2.07-8.89,8-9,8.21l-.48.79.91.14a21.91,21.91,0,0,0,11-1.76c6.13-2.55,7.63-7.26,7.69-7.46l.19-.61-.61-.17a16.17,16.17,0,0,0-9.66.86Zm.45,1.16a15.87,15.87,0,0,1,8.18-1,12.59,12.59,0,0,1-6.72,6.05,22.22,22.22,0,0,1-9.32,1.76c1.18-1.67,4.11-5.37,7.86-6.84Z"/><path class="cls-2" d="M118.62,54.83c-5.3,2-9.23,7.84-9.4,8.09l-.55.83,1,.13a23.72,23.72,0,0,0,11-1.84c6.15-2.49,7.7-7,7.77-7.19l.19-.59-.6-.19a15.25,15.25,0,0,0-9.4.76Zm.44,1.16a15.07,15.07,0,0,1,7.9-.89,12.76,12.76,0,0,1-6.77,5.8,24.16,24.16,0,0,1-9.28,1.81c1.31-1.69,4.41-5.3,8.15-6.72Z"/><path class="cls-2" d="M130.26,46.4c-5.31,2-9.58,7.74-9.75,8l-.64.87,1.07.11a25.82,25.82,0,0,0,11-1.93c6.17-2.42,7.77-6.73,7.84-6.91l.2-.59-.58-.21c-.15-.06-3.8-1.3-9.14.67Zm.42,1.16a14.37,14.37,0,0,1,7.62-.83,13,13,0,0,1-6.82,5.55,26.4,26.4,0,0,1-9.22,1.87c1.43-1.71,4.7-5.22,8.42-6.6Z"/><path class="cls-2" d="M49.3,118.81a21.65,21.65,0,0,0-4.17,10.6c-.38,5.78,4.36,10.2,4.56,10.39l.41.39.42-.39a15.33,15.33,0,0,0,4.19-10.29,13.92,13.92,0,0,0-4.54-10.78l-.49-.41-.39.5Zm-2.94,11.25c0-.19,0-.37,0-.56a20.07,20.07,0,0,1,3.5-9.35,12.82,12.82,0,0,1,3.63,8.78c0,.17,0,.35,0,.53a14.69,14.69,0,0,1-3.38,9c-1-1.12-3.74-4.39-3.74-8.38Z"/><path class="cls-2" d="M56.68,106.09a21.37,21.37,0,0,0-4.34,8.09,14.18,14.18,0,0,0-.39,2c-.68,5.61,3.37,10.21,3.54,10.4l.4.45.46-.39a16,16,0,0,0,4.76-9.9,13.2,13.2,0,0,0-3.55-10.7l-.46-.43-.43.46Zm-3.57,11.38a9.1,9.1,0,0,1,.07-1.11,12.55,12.55,0,0,1,.35-1.85,20.44,20.44,0,0,1,3.62-7A12.21,12.21,0,0,1,60,115.18a12.68,12.68,0,0,1-.09,1.43A15.4,15.4,0,0,1,56,125.26a13.72,13.72,0,0,1-2.9-7.8Z"/><path class="cls-2" d="M65,94.15a20,20,0,0,0-4.81,7.67,13.56,13.56,0,0,0-.49,2c-1,5.42,2.39,10.19,2.53,10.4l.37.53.51-.4a16.74,16.74,0,0,0,5.33-9.5,12.58,12.58,0,0,0-2.57-10.61l-.42-.46-.46.42Zm-4.24,11.63a9.65,9.65,0,0,1,.16-1.78,12.14,12.14,0,0,1,.44-1.78,19.33,19.33,0,0,1,4-6.67,11.6,11.6,0,0,1,1.86,9,16.2,16.2,0,0,1-4.37,8.3,14.62,14.62,0,0,1-2.1-7.08Z"/><path class="cls-2" d="M74,83a18.73,18.73,0,0,0-5.28,7.25,13.4,13.4,0,0,0-.6,1.89c-1.27,5.24,1.4,10.18,1.52,10.39l.34.61.57-.41a17.67,17.67,0,0,0,5.9-9.1,12.19,12.19,0,0,0-1.57-10.52l-.37-.48L74,83Zm-5,12.05a11.07,11.07,0,0,1,.3-2.62,11.81,11.81,0,0,1,.53-1.71,18.21,18.21,0,0,1,4.38-6.29A11.14,11.14,0,0,1,75.76,90a11.8,11.8,0,0,1-.47,3.29,17.31,17.31,0,0,1-4.85,8,15.94,15.94,0,0,1-1.37-6.19Z"/><path class="cls-2" d="M83.9,72.61a17.47,17.47,0,0,0-5.76,6.83,12.33,12.33,0,0,0-.7,1.81,17.25,17.25,0,0,0,.5,10.39l.28.7.64-.42a19,19,0,0,0,6.45-8.71,12,12,0,0,0-.57-10.42l-.33-.51-.51.32ZM78.08,85.39a12.76,12.76,0,0,1,.54-3.78A11.92,11.92,0,0,1,79.25,80,17.33,17.33,0,0,1,84,74a10.25,10.25,0,0,1,1,4.42,12,12,0,0,1-.82,4.3,18.59,18.59,0,0,1-5.32,7.61,17.88,17.88,0,0,1-.75-5Z"/><path class="cls-2" d="M94.44,63a16.44,16.44,0,0,0-6.24,6.4,12.71,12.71,0,0,0-.8,1.74,19,19,0,0,0-.5,10.36l.2.81.71-.43a20.25,20.25,0,0,0,7-8.3c2.75-5.77.53-10.13.43-10.31L95,62.71l-.54.27ZM87.65,77a15.27,15.27,0,0,1,.91-5.39A11.26,11.26,0,0,1,89.29,70a16.23,16.23,0,0,1,5.13-5.56A9.71,9.71,0,0,1,95,67.74,12.19,12.19,0,0,1,93.72,73a20.21,20.21,0,0,1-5.79,7.25A20.15,20.15,0,0,1,87.65,77Z"/><path class="cls-2" d="M105.64,54.09a15.64,15.64,0,0,0-6.71,6,13.38,13.38,0,0,0-.9,1.66,21.41,21.41,0,0,0-1.49,10.34l.11.9.8-.44A21.93,21.93,0,0,0,105,64.63c3.23-5.58,1.51-10,1.43-10.19l-.23-.56-.56.22Zm-8,15.85a19,19,0,0,1,1.48-7.69,11.8,11.8,0,0,1,.82-1.5,15.48,15.48,0,0,1,5.5-5.2,9.39,9.39,0,0,1,.24,2.2A12.41,12.41,0,0,1,103.92,64a21.91,21.91,0,0,1-6.25,6.9c0-.28,0-.6,0-1Z"/><path class="cls-2" d="M117.42,45.94a14.88,14.88,0,0,0-7.19,5.55,13,13,0,0,0-1,1.58,24.29,24.29,0,0,0-2.49,10.33v1l.89-.44a23.81,23.81,0,0,0,8.11-7.52c3.72-5.38,2.49-9.88,2.43-10.06l-.17-.59-.59.16Zm-7.1,7.72a11.8,11.8,0,0,1,.91-1.44,14.83,14.83,0,0,1,5.88-4.84,8.7,8.7,0,0,1,.07,1.08,12.74,12.74,0,0,1-2.44,7.26,24.07,24.07,0,0,1-6.7,6.55,22.27,22.27,0,0,1,2.28-8.61Z"/><path class="cls-2" d="M129.7,38.52c-.16,0-4,.74-7.66,5.11s-4.54,11.52-4.58,11.82l-.12,1.07,1-.44A25.83,25.83,0,0,0,127,49c4.19-5.18,3.45-9.74,3.43-9.93l-.11-.61-.61.11ZM123,44.43a14.42,14.42,0,0,1,6.26-4.49.41.41,0,0,1,0,.08A13.13,13.13,0,0,1,126,48.18a26.43,26.43,0,0,1-7.14,6.21c.4-2.2,1.53-6.92,4.1-10Z"/><path class="cls-2" d="M12.11,99.95c0,29.95,16.21,58.76,42.31,75.2l1.08.68.78-1a1.32,1.32,0,0,0,.31-.81,2.15,2.15,0,0,0-.86-1.43l-1.51-1.45c-5.38-6.11-6.82-11.9-6.82-16.35a18.48,18.48,0,0,1,1.91-8.46l.48-.87-.66-.74A65.92,65.92,0,0,1,32.27,99.95,67.81,67.81,0,0,1,100,32.21,67.11,67.11,0,0,1,129.62,39l1,.47,13.62-15.53-1.51-.84A87.91,87.91,0,0,0,12.11,99.95Zm2.79,0a85.05,85.05,0,0,1,124.86-75.2L129.86,36A69.88,69.88,0,0,0,100,29.42,70.61,70.61,0,0,0,29.47,99.95a68.67,68.67,0,0,0,17,45.88,23,23,0,0,0-1.77,9A25.34,25.34,0,0,0,48,167.11c-20.59-16.4-33.08-41.35-33.08-67.17Z"/><path class="cls-2" d="M130.83,36.49A69.83,69.83,0,0,0,100,29.42,70.61,70.61,0,0,0,29.47,99.95,68.67,68.67,0,0,0,47,146.55l1.21,1.35,5.36-8.1-.29-.33a11.79,11.79,0,0,1-1.16-.19c.07-.22.18-.51.31-.83-.42-.5-.84-1-1.25-1.52a12.42,12.42,0,0,1-1.12,1.52c-1-1.12-3.74-4.39-3.74-8.38,0-.13,0-.26,0-.38A59.25,59.25,0,0,1,38.8,99.95,61.27,61.27,0,0,1,100,38.75a60.54,60.54,0,0,1,23.78,4.8,15.93,15.93,0,0,1,2.34-2A63.38,63.38,0,0,0,100,36a64.07,64.07,0,0,0-64,64c0,15.3,4.78,28.75,14.13,40L48,143.27A65.9,65.9,0,0,1,32.27,99.95,67.81,67.81,0,0,1,100,32.21a67.08,67.08,0,0,1,28.36,6.23l-1.1,2.39a11.66,11.66,0,0,1,2-.9.41.41,0,0,1,0,.08,12.08,12.08,0,0,1-1.41,5.4l.32.16,3.91-8.49-1.23-.6Z"/><path class="cls-1" d="M130.21,22.67l-6.74,8.53q.93.32,1.85.66L132,23.39l-1.8-.72Z"/><path class="cls-1" d="M117,18.74l-3.93,9.74,1.86.36,3.92-9.7-1.84-.4Z"/><path class="cls-1" d="M101.31,17l-1,10.32,1.86,0,1-10.3-1.86,0Z"/><path class="cls-1" d="M86,18.15,88,28.3,89.81,28l-2-10.16L86,18.15Z"/><path class="cls-1" d="M71.17,22.13l4.64,9.31,1.78-.6L72.93,21.5l-1.76.63Z"/><path class="cls-1" d="M57.09,28.94,64,36.85l1.66-.92-7-8-1.62,1Z"/><path class="cls-1" d="M44.3,38.49,53,44.56l1.49-1.23-8.8-6.11L44.3,38.49Z"/><path class="cls-1" d="M33.42,50.48l10,3.91q.61-.76,1.25-1.51L34.59,48.94q-.59.76-1.17,1.54Z"/><path class="cls-1" d="M25,64.43l10.81,1.51q.47-.88,1-1.74L25.87,62.68q-.44.87-.86,1.75Z"/><path class="cls-1" d="M19.51,79.74l11-1.05c.2-.65.4-1.29.62-1.93L20,77.83q-.27,1-.51,1.92Z"/><path class="cls-1" d="M17.12,95.78l10.66-3.71Q27.89,91,28,90L17.25,93.77c0,.67-.09,1.34-.12,2Z"/><path class="cls-1" d="M17.95,112l9.63-6.32c-.05-.71-.1-1.42-.14-2.13l-9.78,6.42q.13,1,.29,2Z"/><path class="cls-1" d="M22.05,127.83l7.82-8.61c-.19-.72-.37-1.44-.54-2.17l-8,8.79q.34,1,.7,2Z"/><path class="cls-1" d="M29.41,143l5.53-10.52c-.35-.68-.69-1.37-1-2.06L28.29,141.1q.55.94,1.12,1.87Z"/><path class="cls-1" d="M38.83,155.59l3-12.19q-.74-1-1.44-2l-3,12.44q.74.86,1.5,1.7Z"/><path class="cls-1" d="M128.82,46.19l.76.51c.23-.1.45-.21.68-.29l.8-.27a14.67,14.67,0,0,1-1.62-1.25c-.18.42-.39.86-.62,1.3Z"/><line class="cls-3" x1="230" y1="4.95" x2="230" y2="189.95"/><g id="LOGO"><path class="cls-2" d="M332,199.93c-1.15,0-2.3,0-3.46,0a16,16,0,0,1-1.77-.16c-1.76-.23-3.53-.41-5.27-.74a46.93,46.93,0,0,1-7.08-2c-1.5-.53-3-1.06-4.46-1.7a36.69,36.69,0,0,1-3.47-1.77c-1.67-.94-3.34-1.89-4.94-2.94-1.84-1.2-3.67-2.42-5.38-3.79s-3.35-2.92-5-4.44c-1.45-1.36-2.85-2.77-4.24-4.19-1-1-2-2.08-2.93-3.18s-1.71-2.19-2.57-3.29a78.93,78.93,0,0,1-5.35-7.94c-1-1.64-1.85-3.36-2.82-5-1.16-2-2-4.08-3-6.15-.76-1.64-1.44-3.33-2.06-5-1-2.63-1.92-5.27-2.73-7.95s-1.54-5.62-2.26-8.44c-.3-1.17-.52-2.36-.74-3.54-.34-1.89-.7-3.78-1-5.68-.39-2.78-.75-5.57-1-8.36-.24-2.43-.37-4.88-.49-7.32-.07-1.38,0-2.76,0-4.14s0-2.75,0-4.13,0-3,0-4.56c0-1.21.14-2.42.24-3.63s.18-2.52.33-3.78c.19-1.64.42-3.28.66-4.92.19-1.31.4-2.61.63-3.91.38-2.17.75-4.33,1.16-6.49.58-3,1.41-5.94,2.27-8.87s1.89-6,3-8.9a63.83,63.83,0,0,1,2.87-6.55c.28-.54.45-1.12.71-1.66.86-1.77,1.71-3.55,2.64-5.29.66-1.23,1.41-2.41,2.15-3.59.94-1.48,1.91-2.92,2.87-4.38,1.29-2,2.77-3.79,4.23-5.64.74-.95,1.68-1.72,2.39-2.67,1.06-1.41,2.39-2.53,3.53-3.85A27.45,27.45,0,0,1,292.31,17c1.11-1,2.24-2,3.39-2.93s2.11-1.7,3.21-2.49c1.36-1,2.74-1.94,4.15-2.84s2.95-1.81,4.47-2.62A58,58,0,0,1,314,3.21a43,43,0,0,1,8-2.27c1.67-.29,3.34-.61,5-.76,1.84-.17,3.7-.2,5.56-.22,1.5,0,3,0,4.5.1.94.05,1.86.26,2.8.36a43.92,43.92,0,0,1,6.47,1.31,50.23,50.23,0,0,1,7.75,2.81c1.79.82,3.56,1.7,5.31,2.59a18.14,18.14,0,0,1,1.86,1.16c1.7,1.15,3.42,2.27,5.09,3.47q2.14,1.54,4.13,3.3c1.34,1.18,2.72,2.32,4,3.62s2.7,2.6,4,4c1.42,1.57,2.73,3.25,4.09,4.89a52.41,52.41,0,0,1,3.72,5.3c.87,1.36,1.75,2.72,2.59,4.1a43,43,0,0,1,2.45,4.35c1,2.21,2.17,4.36,3.23,6.56.48,1,.9,2,1.33,3s.86,2,1.22,3.06c.64,1.84,1.23,3.71,1.85,5.56a80,80,0,0,1,2.49,9.06c.67,3.18,1.31,6.37,1.87,9.57.39,2.27.65,4.57.91,6.87.21,1.83.29,3.68.49,5.51a112.2,112.2,0,0,1,.28,13.15c0,1.81-.09,3.63-.22,5.43-.18,2.46-.36,4.93-.67,7.38-.46,3.72-1,7.42-1.81,11.08-.45,2.1-.79,4.22-1.36,6.28-.94,3.39-2,6.74-3.06,10.09-.47,1.46-1.1,2.86-1.67,4.28s-1.19,2.9-1.83,4.32-1.43,3-2.17,4.53c-.63,1.28-1.3,2.54-1.95,3.81-.11.22-.22.44-.35.65-1.25,2-2.48,3.93-3.78,5.86a57.79,57.79,0,0,1-4.44,6.08c-1.13,1.29-2.22,2.62-3.34,3.91-.68.78-1.34,1.58-2.08,2.3-.89.87-1.85,1.67-2.77,2.5-1.35,1.21-2.68,2.45-4.05,3.64-.84.73-1.73,1.39-2.62,2.07-.47.36-1,.66-1.46,1a45.8,45.8,0,0,1-5.69,3.59c-1.88,1.06-3.81,2.05-5.77,2.94a47.58,47.58,0,0,1-8.3,2.92,44.72,44.72,0,0,1-7.13,1.27c-1,.08-2,.26-3,.31-1.15.06-2.31,0-3.46,0Zm-.11-1.32s0,.05,0,.08c1.37-.08,2.74-.14,4.11-.24,1.13-.08,2.26-.13,3.37-.31a49,49,0,0,0,8.76-2.15c1.8-.65,3.59-1.31,5.35-2.06a49.24,49.24,0,0,0,6.37-3.35c2-1.24,4-2.51,5.94-3.94a47.41,47.41,0,0,0,4.35-3.54c1-1,2.12-1.78,3.13-2.72s2.09-2.06,3.07-3.15c1.29-1.42,2.51-2.91,3.77-4.35a52,52,0,0,0,4.57-6.28,81.72,81.72,0,0,0,5-8.27c.84-1.72,1.75-3.41,2.57-5.14s1.66-3.64,2.45-5.48c.54-1.26,1.1-2.52,1.53-3.82.67-2,1.28-4,1.86-6.07.64-2.22,1.27-4.44,1.81-6.68s1-4.47,1.42-6.71c.31-1.57.64-3.13.85-4.71.38-2.95.68-5.91,1-8.86.11-1,.22-2,.28-3,0-.52-.14-1.06-.05-1.56a20.17,20.17,0,0,0,.17-3.69c0-2.62,0-5.24-.07-7.85,0-1.29-.11-2.58-.2-3.87s-.19-2.41-.32-3.62c-.18-1.67-.36-3.34-.57-5-.15-1.17-.37-2.34-.56-3.51s-.31-2.12-.52-3.17c-.31-1.57-.65-3.12-1-4.69-.21-1-.4-2-.65-3-.46-1.81-.93-3.63-1.46-5.42-.69-2.32-1.35-4.65-2.19-6.92s-1.89-4.8-3-7.12a89.75,89.75,0,0,0-4.79-9.27c-1.21-1.92-2.4-3.86-3.61-5.78-.6-1-1.19-1.91-1.85-2.81-1.06-1.42-2.15-2.81-3.27-4.19-.89-1.1-1.8-2.18-2.76-3.21-1.27-1.35-2.6-2.63-3.9-3.94-.27-.27-.5-.59-.79-.83-1.68-1.41-3.36-2.83-5.07-4.2-1-.83-2.13-1.57-3.21-2.34-.62-.44-1.26-.84-1.9-1.24-1.7-1-3.39-2.13-5.13-3.1a53,53,0,0,0-8.64-3.68,41,41,0,0,0-8.46-2,57.2,57.2,0,0,0-6.9-.57,47.71,47.71,0,0,0-5.07.2c-1.92.21-3.82.58-5.72.94a39.23,39.23,0,0,0-6.28,1.82l-3.19,1.18a40.47,40.47,0,0,0-6,3c-2,1.13-3.81,2.46-5.69,3.74-1.14.78-2.28,1.56-3.35,2.43-1.35,1.11-2.65,2.3-3.94,3.49s-2.85,2.58-4.18,4-2.76,3.08-4.1,4.65c-.88,1-1.77,2.07-2.56,3.18-1.15,1.59-2.24,3.23-3.31,4.88s-2,3.14-2.91,4.76c-1.1,2-2.13,4-3.14,6-.77,1.54-1.52,3.1-2.18,4.7-1,2.47-2,4.95-2.86,7.46s-1.69,5.23-2.38,7.9c-.86,3.3-1.72,6.61-2.25,10q-.9,5.71-1.69,11.43c-.22,1.55-.31,3.13-.44,4.69-.07.8-.13,1.59-.14,2.39,0,1.46,0,2.93,0,4.39a18.33,18.33,0,0,0-.11,2.14c.12,1.21.06,2.42.09,3.63.05,2.48.12,5,.34,7.43.25,2.88.61,5.76,1,8.62s1.05,6,1.59,8.92a80.74,80.74,0,0,0,2,7.84c.4,1.4.81,2.8,1.24,4.19s.78,2.59,1.29,3.84c1.24,3.05,2.48,6.1,3.83,9.1a69.79,69.79,0,0,0,3.24,6.37c1.44,2.48,3,4.88,4.62,7.28a31.58,31.58,0,0,0,3,4.09c.75.82,1.35,1.78,2.07,2.63.88,1,1.82,2,2.75,3s1.94,2.08,3,3c1.37,1.27,2.8,2.48,4.23,3.68q1.87,1.57,3.8,3.06a57.51,57.51,0,0,0,6.7,4.25c1.8,1,3.67,1.95,5.56,2.83a31.4,31.4,0,0,0,4,1.54,56.54,56.54,0,0,0,6.22,1.68,51.06,51.06,0,0,0,9,1Z"/><path class="cls-2" d="M284.81,116.71c0-.34,0-.61,0-.88a4.51,4.51,0,0,1,.88-2.67,4.09,4.09,0,0,1,2.76-1.49l.46-.11s.08-.07.18-.17c-.07-.23-.14-.48-.24-.73a3.88,3.88,0,0,1-.07-2.83,4.35,4.35,0,0,1,1.52-2.37,1.11,1.11,0,0,0,.5-1,5.58,5.58,0,0,1,1.87-3.82,3.68,3.68,0,0,1,1.06-.57,5.39,5.39,0,0,1,2.93-.32c.43.05.56.25.44.68a2,2,0,0,1-.33.74,9.17,9.17,0,0,0-1.29,3.26,9.34,9.34,0,0,0,.78,6.74A12.32,12.32,0,0,0,299,115a5.83,5.83,0,0,1,1.67,5.27c-.06.43-.15.86-.22,1.29.75.12,1.43.21,2.11.34a4.55,4.55,0,0,1,3,2.4A14.14,14.14,0,0,1,307,128.1c.07.28.18.56.29.89.49-.31.43-.78.51-1.14.35-1.67.66-3.35,1-5,.35-1.95.65-3.9,1-5.84s.76-3.61,1.13-5.41.75-3.78,1.14-5.67c.07-.32.17-.64.24-1a7.74,7.74,0,0,0-.13-4.23,21.91,21.91,0,0,0-1.54-3.35,2.44,2.44,0,0,0-.33-.39,4.33,4.33,0,0,1-3.07.33,2.51,2.51,0,0,1-2-1.86c-.17-.54-.28-1.1-.43-1.7-.08,0-.2,0-.28,0a5.19,5.19,0,0,1-2.29.34,3.73,3.73,0,0,1-2.39-.83,10.61,10.61,0,0,0-2.78-1.81,8.73,8.73,0,0,0-4.26-.57,9.61,9.61,0,0,0-4.19,1.77,4.45,4.45,0,0,1-.41.27c-.5.28-.85.1-.89-.47a6.69,6.69,0,0,1,1.25-4.59,7,7,0,0,1,1.73-1.47,1.13,1.13,0,0,0,.58-1.08,3.86,3.86,0,0,1,4.26-3.86,1.37,1.37,0,0,0,.34,0c.08-.72.15-1.43.25-2.13a10,10,0,0,1,1.55-3.92,8.38,8.38,0,0,1,4.18-3.17,6,6,0,0,1,1.9-.3c.49,0,.67.27.48.77-.27.72-.63,1.4-.89,2.13a10,10,0,0,0,0,7.1,20.22,20.22,0,0,0,1.32,2.74,7.69,7.69,0,0,0,1.23,1.51,4.56,4.56,0,0,1,1.43,3.55c0,.32,0,.65,0,1a5.13,5.13,0,0,0,.58,0,3.9,3.9,0,0,1,4.05,1.9,22.59,22.59,0,0,1,1.25,2.5,14.18,14.18,0,0,1,.49,2l.2.83.17,0a4,4,0,0,0,.26-.64c.41-1.77.81-3.54,1.22-5.3.55-2.41,1.1-4.82,1.66-7.23.44-1.87.87-3.74,1.35-5.6.23-.9.51-1.8.82-2.68a4.63,4.63,0,0,0-.27-3.06,11.61,11.61,0,0,0-.76-1.54.57.57,0,0,0-.67-.34,4.88,4.88,0,0,1-2.22-.26,1.8,1.8,0,0,1-.78-.52,7.86,7.86,0,0,1-1.13-1.28,4.37,4.37,0,0,1-.43-2.57c0-.19,0-.37,0-.65-.31,0-.6,0-.88,0a3.93,3.93,0,0,1-3.41-1.3,9.31,9.31,0,0,0-2.5-2.31,14.57,14.57,0,0,0-2.12-1,5.86,5.86,0,0,0-4.32.32,16.39,16.39,0,0,0-2.22,1.46c-.15.1-.28.27-.44.36-.42.24-.77.06-.8-.42a6.47,6.47,0,0,1,1.68-4.93A4.43,4.43,0,0,1,299.9,57a1.07,1.07,0,0,0,.85-.88,2,2,0,0,1,1.09-1.25,6.17,6.17,0,0,1,4.78-.48,2.57,2.57,0,0,0,.46.06,3.55,3.55,0,0,0,0-.65c-.08-.4-.19-.8-.3-1.2a3.69,3.69,0,0,1,1.46-4,2.7,2.7,0,0,1,.84-.29,1,1,0,0,0,.83-.8c.5-2,2.08-2.43,3.72-2.8a.87.87,0,0,1,1.18.72L314,46.82a9.57,9.57,0,0,0-.18,8.38c.62,1.43,1.23,2.88,1.75,4.36a5.63,5.63,0,0,1,.08,3.73c-.07.2-.11.41-.18.66a1.79,1.79,0,0,0,.48.16,3.25,3.25,0,0,1,3.05,2,11.15,11.15,0,0,1,1.56,5.07,1.58,1.58,0,0,0,.14.41,2.48,2.48,0,0,0,.87-1.2c.73-1.41,1.34-2.9,2.2-4.23a29.38,29.38,0,0,1,3.33-4.56c.75-.78,1.3-1.77,2.1-2.48a2.32,2.32,0,0,0,.77-2c0-1.57,0-3.14,0-4.7,0-.3,0-.6-.06-.89-.42-.11-.77-.25-1.13-.31a5.43,5.43,0,0,1-2.52-1.4c-.85-.7-.83-2.78,0-3.34a7.3,7.3,0,0,1,2.16-1.26,8.68,8.68,0,0,0,1.3-.56,5.34,5.34,0,0,0-.43-.47,6.9,6.9,0,0,1-2.46-3.09,16.11,16.11,0,0,1-.57-2.66,7.89,7.89,0,0,0-3.38-5.59,7.74,7.74,0,0,0-6.27-1.42,2.24,2.24,0,0,1-.72.05.47.47,0,0,1-.32-.83A19.61,19.61,0,0,1,317,29.25a9.21,9.21,0,0,1,3.36-1.85,2.15,2.15,0,0,0,.56-.32A6.38,6.38,0,0,1,324,25.94c.76-.09.89-.15,1-.93a6.34,6.34,0,0,1,1.66-3.24,4.11,4.11,0,0,1,.84-.64,2.56,2.56,0,0,0,1.14-1.63,13.55,13.55,0,0,1,.48-1.57A3.23,3.23,0,0,1,332.82,16a4.48,4.48,0,0,1,1.66,1,5.8,5.8,0,0,1,2.24,5A1,1,0,0,0,337.4,23a4.1,4.1,0,0,1,2.35,3.15c.08.43.13.87.21,1.41a3.63,3.63,0,0,0,.77-.13,5.59,5.59,0,0,1,3.79,0,5.73,5.73,0,0,1,3.32,2.83c.29.49.13.82-.45.93s-1.22.2-1.83.29A7.47,7.47,0,0,0,341.14,34a9.52,9.52,0,0,0-2.5,5.94,5.43,5.43,0,0,1-2,4c-.35.28-.71.54-1.17.89.55.26,1,.51,1.5.7A3.91,3.91,0,0,1,338.73,47a2.19,2.19,0,0,1-.63,3.17,6.74,6.74,0,0,1-2.31,1.12c-.7.17-.82.39-.81,1.09,0,1.58,0,3.17,0,4.75a4.6,4.6,0,0,1,0,.65,1.19,1.19,0,0,0,1,1.52.85.85,0,0,1,.39.28A48.18,48.18,0,0,1,342,67.64c.53,1,1.07,2,1.62,2.94.14.26.32.49.55.82a3,3,0,0,0,.33-.52,7.9,7.9,0,0,0,.31-1.11,7.38,7.38,0,0,1,1.51-3,3.34,3.34,0,0,1,2.88-1.53,1,1,0,0,0,.24,0,.92.92,0,0,0,.17-.09c-.09-.49-.21-1-.27-1.51a7.54,7.54,0,0,1,.25-2.69A18,18,0,0,1,351,57.51a12,12,0,0,0,1.24-5.26,8,8,0,0,0-1.14-4.42,3.61,3.61,0,0,1-.46-1,.52.52,0,0,1,.51-.73,3.89,3.89,0,0,1,3.08,1.15,5,5,0,0,1,1.44,2,.67.67,0,0,0,.48.36,2.44,2.44,0,0,1,1.9,1.26,3.74,3.74,0,0,1,.49,2.93c-.13.48-.24,1-.35,1.44a3.09,3.09,0,0,0,0,.5c.3-.05.56-.08.8-.14a7.14,7.14,0,0,1,4.28.43,1.94,1.94,0,0,1,1.26,1.41.84.84,0,0,0,.6.69,6.43,6.43,0,0,1,3,2.19,5,5,0,0,1,1.13,2.52c.08.57.16,1.15.19,1.73a.7.7,0,0,1-.23.54.69.69,0,0,1-.58-.05,3.31,3.31,0,0,1-.71-.54,6.41,6.41,0,0,0-5.68-1.65,7,7,0,0,0-3.62,1.5,8.68,8.68,0,0,0-1,1.07,4.84,4.84,0,0,1-5.13,1.95.81.81,0,0,0-.2,0c-.07.55-.1,1.13-.21,1.68a2.54,2.54,0,0,1-3.2,2.06c-.56-.16-1.11-.39-1.71-.6a5.23,5.23,0,0,0-1,2c-.59,1.92-.06,3.7.5,5.49a65.45,65.45,0,0,1,1.84,7.69c.32,1.76.72,3.5,1.06,5.25s.59,3.3.94,4.94a6.44,6.44,0,0,0,.63,2.17c.5-1.3.93-2.54,1.44-3.73a11.94,11.94,0,0,1,1.1-1.92,2.53,2.53,0,0,1,1.57-1.08l2.27-.51a.78.78,0,0,0,0-.27A5.45,5.45,0,0,1,359.29,85a10,10,0,0,0,2.45-3.54,11.13,11.13,0,0,0,.8-5.58,17.54,17.54,0,0,0-1.13-3.78c-.28-.73-.08-1,.7-.95a6.25,6.25,0,0,1,3.4,1.39,10,10,0,0,1,2.91,3.39,6.89,6.89,0,0,1,.79,2.91c0,.63.13,1.25.19,1.82.11.08.16.13.2.13a3.65,3.65,0,0,1,2.63,1.73,4.82,4.82,0,0,1,.59,1.42,1.72,1.72,0,0,1,0,.49,1.71,1.71,0,0,0,1,1.63A6.18,6.18,0,0,1,377,90.55a7.79,7.79,0,0,1,0,2.06c-.06.64-.51.78-1,.38a20.5,20.5,0,0,0-1.82-1.36,8.12,8.12,0,0,0-6-.84A7.57,7.57,0,0,0,365,92.24a5.53,5.53,0,0,1-4.25,1.15,1.3,1.3,0,0,0-.4,0s-.09.06-.22.16c.25,1.71-.12,3.3-1.78,4.14A3.47,3.47,0,0,1,354,97c-.12,0-.2,0-.21.07a14.41,14.41,0,0,0-1.14,2.8c-.17.8-.4,1.6-.53,2.4a11.59,11.59,0,0,0,.36,3.83q.43,2.65.9,5.28c.25,1.44.54,2.87.8,4.3q.58,3.16,1.14,6.33c.33,1.86.64,3.74,1,5.6.07.41.22.81.33,1.22h.17c.13-.43.26-.87.38-1.3a7.22,7.22,0,0,1,4.31-4.92,6,6,0,0,1,2-.14c.28,0,.57,0,1,0a5.4,5.4,0,0,0-.3-.59,5,5,0,0,1-.77-4.69,15.16,15.16,0,0,1,.61-2,15.92,15.92,0,0,1,1.54-2.42,19.9,19.9,0,0,0,2.58-5.12,6.64,6.64,0,0,0,.41-3.73c-.28-1.34-.65-2.66-1-4-.17-.68,0-1,.65-.93a6.91,6.91,0,0,1,1.82.31c2.8.91,4.34,3,5.09,5.82a10.14,10.14,0,0,1-.9,6.39,1.72,1.72,0,0,0-.08.36l.66,0c.88.09,1.77.12,2.64.29a2.8,2.8,0,0,1,2.21,2.92c0,.19,0,.38,0,.6a3.85,3.85,0,0,0,.42.22,6,6,0,0,1,2,1.38,6.35,6.35,0,0,1,1.64,2.78,5.08,5.08,0,0,1,0,2.93c-.21.84-.77,1-1.34.34a7.66,7.66,0,0,0-2.14-1.85,7,7,0,0,0-5.75-.63,11.45,11.45,0,0,0-2.94,1.83,5.3,5.3,0,0,1-5.2.76c-.1,0-.2,0-.44-.09a7.62,7.62,0,0,0,.32.78,3.5,3.5,0,0,1-1,4.29,2.43,2.43,0,0,1-3.77-.84l-.2-.37c-.34-.15-.55.1-.77.3a6.13,6.13,0,0,0-1.93,3.26c-.3,1.29-.5,2.58-.67,3.89A11.27,11.27,0,0,0,358,138c.28,1.88.62,3.74.9,5.62q.58,3.83,1.12,7.68c.22,1.55.39,3.11.6,4.67.34,2.54.71,5.08,1,7.62a14.14,14.14,0,0,1,.13,2.06,2,2,0,0,1-1.53,1.78c-.76.12-1.54.14-2.31.22l-2.4.28c-2,.25-4.05.52-6.08.74-.61.07-1.24,0-1.85,0-2.12.1-4.24.24-6.36.33-1.93.09-3.87.18-5.8.18s-3.7-.1-5.56-.15c-.7,0-1.4,0-2.09,0-1.88-.08-3.76-.17-5.63-.29q-3.53-.24-7.06-.55c-1.82-.15-3.63-.31-5.44-.53-2-.24-4-.56-6-.85a3.83,3.83,0,0,1-.63-.14,1.36,1.36,0,0,1-1-1.26,4.57,4.57,0,0,1,0-1c.29-2.19.57-4.37.88-6.55.35-2.48.74-5,1.1-7.44.19-1.31.35-2.62.55-3.93.26-1.69.57-3.37.83-5.06a18.29,18.29,0,0,0,.23-2,25.06,25.06,0,0,0-.34-5.27c-.16-1-.29-1.91-.47-2.85a4.33,4.33,0,0,0-1-2.12c-.31.14-.62.31-.94.43a3.77,3.77,0,0,1-5.36-3.78,10.58,10.58,0,0,0,0-1.28.93.93,0,0,0-.35-.06,4.77,4.77,0,0,1-3.56-.71A12.61,12.61,0,0,0,288.6,122a8.72,8.72,0,0,0-3.58.41,12.46,12.46,0,0,0-4.68,2.83,1.34,1.34,0,0,1-1.25.48,7.22,7.22,0,0,1,.94-5.83A6.7,6.7,0,0,1,284.81,116.71Zm74.08,46.36c0-.39-.06-.65-.09-.93l-.57-4.92c-.13-1.12-.26-2.24-.41-3.36-.16-1.28-.36-2.56-.51-3.84s-.27-2.67-.45-4-.41-2.49-.61-3.74q-.67-4.11-1.34-8.22c-.23-1.38-.47-2.76-.7-4.14s-.41-2.6-.64-3.9-.56-2.8-.82-4.21c-.22-1.21-.41-2.43-.63-3.65s-.44-2.26-.62-3.4c-.26-1.66-.44-3.33-.73-5-.48-2.68-1-5.35-1.53-8-.14-.7-.29-1.4-.43-2.1s-.31-1.61-.48-2.41c-.23-1.07-.49-2.14-.71-3.22-.33-1.67-.61-3.34-.94-5-.44-2.18-.94-4.35-1.35-6.53a37.6,37.6,0,0,0-1.87-6.39,52.08,52.08,0,0,0-4.28-9c-.66-1.07-1.36-2.11-2.09-3.13s-1.63-2.18-2.49-3.24a3.65,3.65,0,0,0-1.16-1.11.88.88,0,0,1-.59-.94c0-1.92,0-3.84,0-5.76a4.57,4.57,0,0,0,0-.66c-.06-.46-.2-.52-.82-.54-.4,0-.61.14-.62.56,0,.69,0,1.38,0,2.06,0,1.43,0,2.86,0,4.3a1.13,1.13,0,0,1-.79,1.26,2,2,0,0,0-.88.7c-1.2,1.62-2.38,3.25-3.55,4.9-.55.78-1.09,1.57-1.59,2.39-.38.63-.66,1.32-1,2a37,37,0,0,0-2.89,6.25,54.3,54.3,0,0,0-2,6.72c-.68,3.16-1.48,6.3-2.19,9.45-.81,3.59-1.58,7.19-2.36,10.78-.3,1.37-.59,2.74-.86,4.11-.32,1.59-.6,3.19-.92,4.78-.44,2.2-.91,4.4-1.33,6.61-.27,1.43-.46,2.87-.73,4.3-.53,2.86-1.09,5.71-1.62,8.57-.34,1.86-.64,3.73-1,5.6-.22,1.33-.44,2.66-.66,4q-.55,3.33-1.09,6.66c-.23,1.44-.47,2.88-.68,4.32-.31,2.12-.58,4.25-.89,6.38-.23,1.63-.5,3.25-.73,4.88-.09.64.11.79.78.69,3-.42,5.95-.88,8.93-1.23,2.5-.29,5-.46,7.53-.67.94-.08,1.88-.12,2.82-.19,1.31-.1,2.62-.27,3.93-.3,2.23-.05,4.47,0,6.71,0s4.45-.12,6.68.13c1.57.18,3.17.12,4.76.2,1,.05,2.08.15,3.13.23.32,0,.63,0,1,0s.43,0,.64,0c.58.07,1.16.17,1.75.24,1.65.22,3.29.44,4.94.63A15.24,15.24,0,0,0,358.89,163.07ZM346,29.6c-.1-.17-.14-.28-.21-.34a4.71,4.71,0,0,0-5.63-.51,2.63,2.63,0,0,1-2.35.46.79.79,0,0,0-.4,0,5.81,5.81,0,0,0-4.54,3.17,1.34,1.34,0,0,0,0,1.31,6.53,6.53,0,0,1,.67,1.85,4.57,4.57,0,0,1-.7,3.46.64.64,0,0,1-1.11-.08,7.86,7.86,0,0,1-.54-1.55,6.21,6.21,0,0,1,.19-3.1,2.11,2.11,0,0,0-.27-2c-.14-.2-.26-.42-.39-.62a11.27,11.27,0,0,0-2.48-2.32,7.77,7.77,0,0,0-5-1.57,9.73,9.73,0,0,0-4.8,1.51,2.48,2.48,0,0,0-1,1,10,10,0,0,0,1.38.22,8.68,8.68,0,0,1,6,2.84,8.8,8.8,0,0,1,2.35,5.31,8.2,8.2,0,0,0,1,3c1.18,2.06,3.55,3.41,6,2.2a4.11,4.11,0,0,0,2.19-2.28,8.44,8.44,0,0,0,.45-2.59,10,10,0,0,1,1.36-4.69,9,9,0,0,1,2.47-2.7,8.17,8.17,0,0,1,2-1.21A22.49,22.49,0,0,1,346,29.6Zm22.52,70.53c.16.6.3,1.19.46,1.76a10.14,10.14,0,0,1,.42,3.33c0,.49-.09,1-.16,1.47a5.28,5.28,0,0,1-.24,1.2c-.39,1-.85,1.89-1.25,2.85a14.85,14.85,0,0,1-2.15,3.56,4.73,4.73,0,0,0-.72,5.57,4.24,4.24,0,0,0,4.67,2.07,9.9,9.9,0,0,0,2.49-1.33,9.11,9.11,0,0,1,2.17-1.24,7.61,7.61,0,0,1,3.91-.15,5.82,5.82,0,0,1,3.59,2.06,9.16,9.16,0,0,0,1.1,1,2.91,2.91,0,0,0,.11-.91,10,10,0,0,0-.69-2.18,5.35,5.35,0,0,0-3.07-2.52c-.78-.28-.79-.38-.57-1.22a1.61,1.61,0,0,0-.84-2,3.64,3.64,0,0,0-.67-.28,5.38,5.38,0,0,0-4.84.69,6,6,0,0,0-2.84,4.38,2.54,2.54,0,0,1-.22.79,1.22,1.22,0,0,1-1.54.55,1,1,0,0,1-.64-1.27,1.89,1.89,0,0,1,.22-.62,15.15,15.15,0,0,1,3.52-4,9.94,9.94,0,0,0,2.42-2.27,7.57,7.57,0,0,0,.74-6.86c-.12-.33-.33-.63-.47-1a6.17,6.17,0,0,0-3.33-3.18A2.05,2.05,0,0,0,368.53,100.14Zm-77.77,6.17a5.38,5.38,0,0,0-1.37,2.81c0,.07.06.16.07.24a4.36,4.36,0,0,0,2,3.11,19.51,19.51,0,0,1,2.16,1.73,10,10,0,0,1,2.78,4.09,21.52,21.52,0,0,1,.6,2.15,1.25,1.25,0,0,1-.39,1.26,1.34,1.34,0,0,1-1.78-.81c-.11-.42-.13-.87-.21-1.3a24.4,24.4,0,0,0-.48-2.41,5,5,0,0,0-1.14-2.25,14.59,14.59,0,0,0-2-1.62,3.81,3.81,0,0,0-1.93-.78,2.75,2.75,0,0,0-2.28.83c-.71.81-1.47,1.67-1,2.93a1.05,1.05,0,0,1,0,.25c.07.73-.16,1-.85,1.14a7.54,7.54,0,0,0-1.46.43,6.08,6.08,0,0,0-3.22,3.3,6.36,6.36,0,0,0-.55,2.83c.51-.44.95-.81,1.37-1.18a10.93,10.93,0,0,1,6.2-2.72,10.26,10.26,0,0,1,7.84,2.34,2.59,2.59,0,0,0,2.93.51,2.19,2.19,0,0,0,.78-.8,4.89,4.89,0,0,0,.85-4.44,6.22,6.22,0,0,0-1.75-2.83,11.38,11.38,0,0,1-3.26-5.68,14.18,14.18,0,0,1-.31-2.36,9.54,9.54,0,0,1,.61-4.11l.92-2.39a3.83,3.83,0,0,0-2.81,1,5,5,0,0,0-1.27,4.92C291.39,106.89,291.06,106.85,290.76,106.31ZM369.34,81.6c-.14.36-.28.68-.39,1a7.28,7.28,0,0,1-.23.78,6.24,6.24,0,0,1-4,3.74c-.28.07-.52.15-.74-.09s-.12-.51,0-.76a13.77,13.77,0,0,1,2.46-3.61c.54-.57,1.17-1.06,1.72-1.62a1.18,1.18,0,0,0,.39-.68,8.56,8.56,0,0,0-4.85-7.87c-.33-.17-.68-.48-1.14-.25a13.27,13.27,0,0,1,.92,5.43A11.71,11.71,0,0,1,360,85.6c-1.49,1.54-1.54,2.51-.79,4.25a2.8,2.8,0,0,0,2.46,1.73,4,4,0,0,0,2.35-.73c.66-.37,1.3-.78,2-1.1a10.58,10.58,0,0,1,4-1,13.17,13.17,0,0,1,5,1c.24.08.48.14.77.23a4.7,4.7,0,0,0-2.64-3.32A1.49,1.49,0,0,1,372,85a.79.79,0,0,0,0-.08A3.17,3.17,0,0,0,369.34,81.6Zm-1.23-19.46a2.23,2.23,0,0,0-.13-.45,6.31,6.31,0,0,0-3.2-2.77,1.3,1.3,0,0,1-.92-.93,2,2,0,0,0-1.39-1.38,5.91,5.91,0,0,0-4.32.2,1.21,1.21,0,0,0-.72.7,19.25,19.25,0,0,1-3.17,4.75c-.2.25-.44.42-.77.24s-.31-.5-.25-.8A7.28,7.28,0,0,1,356,57a2.62,2.62,0,0,0,1.22-1.47c.18-.8.39-1.6.5-2.42a2.39,2.39,0,0,0-1.54-2.6,4.8,4.8,0,0,1-.75-.27c-.24-.15-.56-.36-.6-.59a3.67,3.67,0,0,0-1.82-2.2,4,4,0,0,0-1-.35,5.13,5.13,0,0,0,.14.6A13.21,13.21,0,0,1,353.1,52a12.43,12.43,0,0,1-1.49,6.35,18.62,18.62,0,0,0-1.37,4,3.29,3.29,0,0,0,1.59,3.56,3.65,3.65,0,0,0,4.67-1.11,10.36,10.36,0,0,1,2.09-2,7.71,7.71,0,0,1,4.83-1.56,10.56,10.56,0,0,1,3.63.62A8.78,8.78,0,0,0,368.11,62.13ZM302.66,72.9a7,7,0,0,0-4.19,2.44,9.1,9.1,0,0,0-2.06,5.18,1.76,1.76,0,0,0,.83,1.88,22.66,22.66,0,0,1,3.09,2.35,16.2,16.2,0,0,1,2.95,4,.61.61,0,0,1-.86.88c-.28-.15-.54-.35-.82-.53a13.93,13.93,0,0,1-3.65-3.2,28.18,28.18,0,0,1-1.83-2.79,1.55,1.55,0,0,0-1.41-.77A2.71,2.71,0,0,0,293,83a2.82,2.82,0,0,0-1.17,3c.11.43,0,.73-.35.88A7.53,7.53,0,0,0,289.66,88c-.75.56-.9,1.42-1.33,2.18a1,1,0,0,0,.26.08.7.7,0,0,0,.23-.07A11.25,11.25,0,0,1,292.57,89a8.42,8.42,0,0,1,3.58.25,12.28,12.28,0,0,1,4.06,2.14c1.82,1.37,3.63,1.19,4.84-.75a3.13,3.13,0,0,0-.18-3.75,15.23,15.23,0,0,1-2.59-4.06,9.55,9.55,0,0,1-.83-4.78c0-.44.14-.87.15-1.31a6.89,6.89,0,0,1,.59-2.56C302.35,73.81,302.48,73.4,302.66,72.9ZM297.3,60.77l.1.18c.28-.12.56-.26.86-.36a7.75,7.75,0,0,1,1.6-.51A17.81,17.81,0,0,1,302.6,60a7.37,7.37,0,0,1,3.84,1.35,12.51,12.51,0,0,1,2.25,2.1,3.93,3.93,0,0,0,3.56,1.51,2.92,2.92,0,0,0,2.3-1.46,3.79,3.79,0,0,0,.27-3.33c-.76-2-1.55-3.93-2.26-5.91a8.63,8.63,0,0,1-.45-3.81,15,15,0,0,1,1.12-4.21,2.56,2.56,0,0,0,.1-.46,1.24,1.24,0,0,0-.3,0,3.28,3.28,0,0,0-2.41,2.2,1.56,1.56,0,0,1-1.18,1.22,4.57,4.57,0,0,0-.82.33.91.91,0,0,0-.39.26,3,3,0,0,0-.57,2.56,11.85,11.85,0,0,1,.4,1.6,2.58,2.58,0,0,0,1.13,1.73A7.36,7.36,0,0,1,312,60.49a.56.56,0,0,1-.32.68c-.28.13-.45,0-.63-.19a13.68,13.68,0,0,1-3-4.56,1.45,1.45,0,0,0-.55-.67,5.07,5.07,0,0,0-4.79-.33,1.85,1.85,0,0,0-1.25,1.41,1,1,0,0,1-.82.81A5.46,5.46,0,0,0,297.3,60.77ZM332.1,31.7a5,5,0,0,0,.4-.54,5.26,5.26,0,0,1,2.93-2.38,6.41,6.41,0,0,1,2.36-.44c.7,0,.93-.23.92-.94A3.68,3.68,0,0,0,336.6,24c-.1,0-.23-.05-.29-.13a1.78,1.78,0,0,1-.47-.63,8,8,0,0,1-.24-1.54,5.44,5.44,0,0,0-2-3.84,2,2,0,0,0-2.9-.07,3.15,3.15,0,0,0-.83,1.75,3.71,3.71,0,0,1-1.74,2.74,4.83,4.83,0,0,0-2,2.92c-.2.61-.11.77.52.91a6.76,6.76,0,0,1,3.09,2A4.44,4.44,0,0,1,331,30.22,2.32,2.32,0,0,0,332.1,31.7Zm6.09,16.43a1.07,1.07,0,0,0-.47-1,6.68,6.68,0,0,0-3.4-1.57,13.69,13.69,0,0,0-4.16.09,5.85,5.85,0,0,0-3,1.35c-.28.24-.62.45-.64.88C329.54,50.51,334.83,50.64,338.19,48.14Zm-31.88,86.36.23,0c0-.48.08-1,.07-1.44a20.61,20.61,0,0,0-.21-3.78,19.08,19.08,0,0,0-1.51-4.33,3.9,3.9,0,0,0-3.3-2.31c-1.66-.17-2.41.54-2.73,2.2a1.88,1.88,0,0,0,.73,1.88,2.14,2.14,0,0,0,2.55.27,1.07,1.07,0,0,1,1.33.16,6.51,6.51,0,0,1,1.74,2.44,13.12,13.12,0,0,1,.86,3.58C306.13,133.6,306.23,134,306.31,134.49Zm13.47-62.18a4,4,0,0,0,.06-.84A12.94,12.94,0,0,0,317.74,66a2.13,2.13,0,0,0-1.91-1,2.29,2.29,0,0,0-2.33,2.15,2.58,2.58,0,0,0,2.16,2.62,2.06,2.06,0,0,0,.95-.12,1.08,1.08,0,0,1,1.41.42C318.61,70.77,319.15,71.5,319.78,72.31Zm-7.2,26.48a2.7,2.7,0,0,0,0-.56,14.4,14.4,0,0,0-1.81-5,4,4,0,0,0-1.53-1.4,2.33,2.33,0,0,0-3.37,1.4A2,2,0,0,0,308,95.9a1.85,1.85,0,0,0,1.1-.75c.44-.53.86-.49,1.22.08.5.81,1,1.64,1.47,2.45C312,98,312.25,98.32,312.58,98.79Zm45.29,30.62a7.23,7.23,0,0,1,1.46-2,5.08,5.08,0,0,1,2.41-1.41c1-.23,1-.22,1.56.7a1,1,0,0,0,.13.21,1.43,1.43,0,0,0,1.3.5c.46-.1.62-.5.75-.9a2.42,2.42,0,0,0-.68-2.56,2.68,2.68,0,0,0-2.8-.49A6.41,6.41,0,0,0,357.87,129.41Zm-5.32-32c.19-.33.39-.65.57-1A1.87,1.87,0,0,1,356,95.9a1.14,1.14,0,0,0,.71.3,2.37,2.37,0,0,0,2-1.2,2,2,0,0,0-.62-2.83,1.5,1.5,0,0,0-.74-.25,4.27,4.27,0,0,0-2.31.6,3.4,3.4,0,0,0-1.13,1.36A8,8,0,0,0,352.55,97.43Zm-7.06-26.24a13.42,13.42,0,0,1,2.57-3.1c.35.39.67.71,1,1.07a1.17,1.17,0,0,0,1,.56,1.5,1.5,0,0,0,1.25-2.09A2.19,2.19,0,0,0,348,66.51a5.57,5.57,0,0,0-1.71,2A5.72,5.72,0,0,0,345.49,71.18Zm22.43,11.29a10.26,10.26,0,0,0-2.42,3.17A5.44,5.44,0,0,0,367.91,82.48Zm.53,35.3c-.6.68-.6.68-.08.85Z"/><path class="cls-2" d="M386.93,59.33c0-.25-.05-.47-.06-.68a1.26,1.26,0,0,0-.95-1.37,1.45,1.45,0,0,0-1.61.46,3.11,3.11,0,0,0-.35,3.34,2.88,2.88,0,0,0,2.87,1.62,4.53,4.53,0,0,0,2.88-1.35,4.28,4.28,0,0,0,.89-1.63,7.38,7.38,0,0,0,0-5.1c-.32-.87-.74-1.71-1.13-2.56-.55-1.2-1.09-2.4-1.68-3.58s-1.36-2.38-1.91-3.64a28.59,28.59,0,0,0-1.75-3.25c-1-1.76-2.09-3.52-3.19-5.25-.75-1.17-1.58-2.29-2.4-3.41-1-1.32-2-2.62-3-3.91-.28-.36-.64-.66-1-1-.85-1-1.66-1.95-2.55-2.87s-1.66-1.65-2.53-2.42q-4.19-3.69-8.69-7A29.43,29.43,0,0,0,358.09,14c-1.64-.94-3.27-1.92-5-2.74a50.45,50.45,0,0,0-8.61-3.31c-1.17-.32-2.36-.55-3.55-.75-1.38-.24-2.76-.47-4.15-.6s-2.72-.16-4.08-.22c-.67,0-1.33-.05-2,0-.86,0-1.71.11-2.56.22-1.41.17-2.84.32-4.23.57a45.64,45.64,0,0,0-9.1,2.73,59.7,59.7,0,0,0-6.12,2.95c-1,.53-1.9,1.16-2.81,1.78-1.7,1.16-3.41,2.31-5.06,3.53-1.09.81-2.09,1.74-3.11,2.63-.86.75-1.71,1.5-2.53,2.29q-1.79,1.71-3.52,3.49a26.06,26.06,0,0,0-1.88,2.14c-1.29,1.65-2.57,3.31-3.79,5s-2.36,3.48-3.5,5.26c-.74,1.15-1.4,2.35-2.1,3.52-.36.61-.77,1.2-1.09,1.83-1.12,2.19-2.24,4.39-3.32,6.61-.29.61-.38,1.32-.64,2a21.28,21.28,0,0,0-1.18,5.63c-.29,2.49,2.14,5.29,5.13,4.23,2-.71,2.66-3.63,1.12-4.91a2.37,2.37,0,0,0-.46-.32,1.17,1.17,0,0,0-1.3.09,1.08,1.08,0,0,0-.45,1.22c.18.85-.2,1.22-1,1.11a.69.69,0,0,1-.67-.6c-.38-2.12.5-4.36,3.28-4.36a2.94,2.94,0,0,1,3.06,2.93,6.24,6.24,0,0,1-.44,3.63,5.17,5.17,0,0,1-1.4,1.56,8.45,8.45,0,0,1-1.39.84,1.3,1.3,0,0,1-1.08.18.84.84,0,0,0-.56,0c-.8.32-1.46-.16-2.13-.43a5.35,5.35,0,0,1-1.23-.88,3.91,3.91,0,0,1-.44-.48,4.5,4.5,0,0,1-1.14-3.16,22.36,22.36,0,0,1,.47-4.16,27.31,27.31,0,0,1,2.64-7.25,50.53,50.53,0,0,1,2.7-5.05c1.35-2.05,2.49-4.25,3.85-6.3a59.82,59.82,0,0,1,4-5.86c.74-.87,1.39-1.82,2.14-2.68,1.2-1.37,2.42-2.71,3.69-4,.81-.83,1.72-1.56,2.58-2.35s1.64-1.57,2.48-2.33c.64-.57,1.3-1.12,2-1.65,1.29-1,2.57-2,3.9-2.91,1.18-.81,2.42-1.53,3.65-2.28a51.19,51.19,0,0,1,6.94-3.48,43.94,43.94,0,0,1,5.72-2c2-.54,4.16-.79,6.23-1.19a44.43,44.43,0,0,1,5.62-.46,23.65,23.65,0,0,1,2.9.14l1,0a48.75,48.75,0,0,1,7.57,1,28.86,28.86,0,0,1,3.73,1,56.82,56.82,0,0,1,5.57,2.15c1.21.54,2.38,1.15,3.55,1.77s2.42,1.31,3.58,2,2.24,1.5,3.31,2.32c1.76,1.35,3.54,2.69,5.21,4.14,1.93,1.68,3.81,3.41,5.6,5.24a59.83,59.83,0,0,1,4,4.62c1.06,1.32,2,2.77,3,4.12a86.56,86.56,0,0,1,5.38,8.62c.57,1,1,2,1.54,3,1.1,2.24,2.2,4.47,3.25,6.73a12.09,12.09,0,0,1,1.18,3.24,2.32,2.32,0,0,1,0,1.13,1.81,1.81,0,0,0,0,.82A6,6,0,0,1,391,61.66a4.63,4.63,0,0,1-3.37,2.06,4.26,4.26,0,0,1-4.77-1.94,4.91,4.91,0,0,1-.83-4.45,3.51,3.51,0,0,1,3.36-2.51,3.38,3.38,0,0,1,3.09,3.12C388.55,59.12,388.18,59.49,386.93,59.33Z"/><path class="cls-2" d="M323.72,186.21a6.48,6.48,0,0,1-.09-.65c0-.51.14-.77.53-.9a.91.91,0,0,1,1.14.32,2,2,0,0,1,.05,2.4,1.8,1.8,0,0,1-1.76,1.06,2.08,2.08,0,0,1-2.26-2,4.51,4.51,0,0,1,2-4.73,4.37,4.37,0,0,1,6.7,2.87,6.1,6.1,0,0,1-1,5.09,4.74,4.74,0,0,1-2,1.6,15.06,15.06,0,0,1-5.79,1.32,20.52,20.52,0,0,1-3.37-.19,15.88,15.88,0,0,1-3.26-.89c-1.75-.69-3.49-1.44-5.18-2.3a55.35,55.35,0,0,1-4.84-2.8c-1.7-1.1-3.35-2.29-5-3.5-1-.71-1.83-1.53-2.73-2.32s-2.05-1.86-3.07-2.81-1.85-1.68-2.69-2.6c-1.21-1.32-2.34-2.71-3.5-4.08-.58-.69-1.16-1.38-1.7-2.1-1-1.39-2-2.77-3-4.21-1.17-1.78-2.26-3.61-3.41-5.41a51,51,0,0,1-3.27-6.08c-.15-.32-.33-.64-.47-1-1.07-2.46-2.21-4.9-3.19-7.4-.82-2.12-1.52-4.3-2.15-6.49-.89-3.09-1.76-6.19-2.46-9.33a82.46,82.46,0,0,1-1.58-8.85c-.14-1.28-.41-2.55-.56-3.84-.12-1-.14-2-.21-3-.09-1.21-.21-2.42-.3-3.62-.07-1-.14-2-.17-3-.06-2-.15-4-.14-5.95,0-2.72,0-5.45.19-8.17s.47-5.27.73-7.9a37.1,37.1,0,0,1,.45-3.77c.4-2,.88-4,1.42-5.93a45.14,45.14,0,0,1,1.5-4.36,4.73,4.73,0,0,1,1-1.54,8.55,8.55,0,0,1,2.42-1.9,3.8,3.8,0,0,1,2.43-.34,4.39,4.39,0,0,1,3.15,1.93,6,6,0,0,1,.7,1.74,5.54,5.54,0,0,1-.13,3.4,6.16,6.16,0,0,1-1.08,1.81,3.3,3.3,0,0,1-4.15.56,2.53,2.53,0,0,1-1.48-2.62c.06-.4,0-.82,0-1.23a2.06,2.06,0,0,1,.88-1.52c.07,0,.13-.11.2-.15a1.08,1.08,0,0,1,1.26.19,1,1,0,0,1-.27,1.16.88.88,0,0,0-.22,1.11,1.49,1.49,0,0,0,2.38.73,3.3,3.3,0,0,0,1.23-3.86,3.22,3.22,0,0,0-1-1.35,3.14,3.14,0,0,0-4.22.07,7.65,7.65,0,0,0-2.53,3.44c-.67,1.87-1.19,3.77-1.71,5.68A43.72,43.72,0,0,0,267,85.36c-.07.74-.21,1.47-.28,2.21,0,.49,0,1,0,1.48,0,.66-.15,1.31-.21,2s-.1,1.21-.13,1.81c-.11,2-.23,4-.3,6,0,1,0,1.93,0,2.9,0,1.18,0,2.37.1,3.55q.18,3.26.43,6.52c.13,1.7.26,3.4.46,5.09.23,1.94.5,3.88.84,5.81.43,2.44.9,4.87,1.43,7.29.39,1.74.9,3.46,1.37,5.18.38,1.38.74,2.77,1.18,4.13.58,1.77,1.17,3.55,1.85,5.28.82,2.07,1.71,4.1,2.63,6.12.68,1.5,1.48,2.93,2.17,4.42a61.63,61.63,0,0,0,3.83,6.67c1.32,2.11,2.74,4.15,4.23,6.14,1.32,1.76,2.8,3.4,4.2,5.1.52.63,1,1.3,1.55,1.88.72.74,1.5,1.41,2.26,2.1s1.75,1.63,2.65,2.41a51.6,51.6,0,0,0,6,4.61c1.55,1,3.05,2.05,4.61,3a24.24,24.24,0,0,0,2.8,1.45c1.82.82,3.63,1.67,5.51,2.33a15.88,15.88,0,0,0,3.56.63,11.6,11.6,0,0,0,4.62-.47c.82-.25,1.62-.6,2.42-.92s1.24-1.27,1.61-2.08c.78-1.72-.41-3.92-1.4-4.65a2.28,2.28,0,0,0-2.66-.11,2.65,2.65,0,0,0-1.32,2.41C323,186.06,323.1,186.12,323.72,186.21Z"/><path class="cls-2" d="M339.69,186.26c.37.12.6.07.67-.35a2.46,2.46,0,0,0-.44-1.94,2.28,2.28,0,0,0-3.33-.66c-1.15.95-2.3,3-1.42,4.85a4.14,4.14,0,0,0,2.6,2.38,18.72,18.72,0,0,0,3.85.9,13,13,0,0,0,4.48-.33c1.09-.28,2.2-.51,3.28-.81a10.84,10.84,0,0,0,1.82-.66c1.58-.76,3.17-1.51,4.7-2.37a52.94,52.94,0,0,0,5-3.1c2.11-1.51,4.11-3.18,6.12-4.83,1.38-1.13,2.73-2.31,4-3.54a35.41,35.41,0,0,0,2.66-2.87c1.62-1.91,3.22-3.84,4.77-5.81,1-1.25,1.85-2.58,2.73-3.89.7-1,1.41-2.08,2-3.17,1.13-2,2.19-4,3.27-6.07.59-1.11,1.18-2.23,1.71-3.37.69-1.49,1.36-3,2-4.53,1-2.56,1.91-5.15,2.85-7.73.09-.23.16-.47.23-.71.56-2,1.14-4.07,1.66-6.12.44-1.73.8-3.48,1.17-5.22s.77-3.27,1-4.92c.33-2.65.9-5.26,1-7.95.07-1.65.34-3.29.44-4.94.11-1.87.11-3.74.19-5.61,0-1,.17-2.08.21-3.13,0-.6-.06-1.2-.08-1.8a30.45,30.45,0,0,1-.1-3.12,30.79,30.79,0,0,0-.2-4c-.08-1.18-.18-2.36-.32-3.53-.31-2.57-.6-5.15-1-7.71-.3-1.93-.8-3.82-1.14-5.75a7.62,7.62,0,0,0-1.21-3.29A5.78,5.78,0,0,0,391,68a3.43,3.43,0,0,0-2,.47,5,5,0,0,0-2,1.92,1.78,1.78,0,0,0-.11,1.45,3.22,3.22,0,0,0,2.06,2.44,1.73,1.73,0,0,0,2.14-1.75l0-.4a.74.74,0,0,0-.11-.14c-.5-.37-.63-.72-.4-1.06a1.06,1.06,0,0,1,1.46,0,2.52,2.52,0,0,1,.45.68A3.35,3.35,0,0,1,391,76.32a3.66,3.66,0,0,1-3.84-.7,5,5,0,0,1-1.35-4.93A4.39,4.39,0,0,1,389.31,67c.34-.08.67-.21,1-.27a4.87,4.87,0,0,1,3.62,1.08,8.93,8.93,0,0,1,2.58,2.92,2.56,2.56,0,0,1,.27.78c.42,2,.89,4.09,1.23,6.15.46,2.74.87,5.5,1.22,8.26.26,2.08.48,4.17.55,6.26.11,3.55.11,7.11.11,10.67,0,1.71-.06,3.42-.16,5.13s-.29,3.12-.44,4.68c-.1,1.07-.17,2.14-.3,3.21-.16,1.37-.38,2.73-.57,4.09-.12.87-.2,1.75-.37,2.62-.36,1.86-.75,3.71-1.15,5.55s-.78,3.54-1.21,5.29-.8,3.26-1.33,4.85c-.89,2.63-1.83,5.24-2.85,7.82q-1.35,3.4-3,6.69c-1,2.09-2.19,4.1-3.3,6.15-.52,1-1,1.92-1.57,2.87-.37.64-.78,1.25-1.2,1.86-.77,1.13-1.53,2.26-2.35,3.36-.7.94-1.47,1.82-2.21,2.73-.89,1.1-1.73,2.26-2.69,3.29a33.26,33.26,0,0,1-3.95,4.1c-.82.62-1.48,1.45-2.27,2.11q-2.58,2.16-5.22,4.25c-1,.82-2.09,1.63-3.2,2.35a48.86,48.86,0,0,1-6.14,3.45c-1.18.53-2.32,1.16-3.5,1.7a7.91,7.91,0,0,1-1.61.52c-1.68.36-3.37.72-5.06,1a12.51,12.51,0,0,1-5-.35c-.65-.15-1.3-.36-1.95-.53a6,6,0,0,1-3.69-3.23,3.9,3.9,0,0,1-.27-1.2,6,6,0,0,1,1-4.64,4,4,0,0,1,4.21-1.47,4,4,0,0,1,2,.87,4.79,4.79,0,0,1,1.52,2.83,6.42,6.42,0,0,1,.07,1.48,2,2,0,0,1-1.8,2,1.93,1.93,0,0,1-2.23-.89,2.52,2.52,0,0,1,.14-2.55.85.85,0,0,1,1.1-.18.82.82,0,0,1,.37,1Z"/><path class="cls-2" d="M320.48,94.46a6.49,6.49,0,0,0,.52-.8,6.41,6.41,0,0,1,1.88-2.45,2.28,2.28,0,0,1,2.47-.53c.87.38,1,1.22.25,1.78a10,10,0,0,0-2.52,3.17,2,2,0,0,0-.24.61,20.64,20.64,0,0,0-.69,4.64c0,2.48,0,5,0,7.44a13.71,13.71,0,0,0,.15,1.8,1.11,1.11,0,0,0,1.11,1c1.07.05,2.14,0,3.28,0a4.33,4.33,0,0,0,.15-.79c0-2.57,0-5.14,0-7.71,0-1.52,0-3,0-4.55a8.52,8.52,0,0,0-.41-1.66,3,3,0,0,1-.15-.79.67.67,0,0,1,.68-.76,10.92,10.92,0,0,1,1.36-.11c1.49,0,3,0,4.48,0a3.76,3.76,0,0,1,2.35,1,14,14,0,0,1,1.64,1.81,2.14,2.14,0,0,1,.39.72,7.63,7.63,0,0,1-.2,5.63,6.93,6.93,0,0,1-2.3,2.59c-.12.39.13.65.4.89a7.55,7.55,0,0,1,2.26,3.26.63.63,0,0,0,.66.49c.81,0,1.62,0,2.42,0,.56,0,.65-.13.68-.69,0-.41,0-.83,0-1.24,0-2.15,0-4.3,0-6.45,0-1.24,0-2.48,0-3.72a7.36,7.36,0,0,0-.59-3,6.94,6.94,0,0,0-1.33-2.33c-.3-.31-.55-.65-1.09-.5a1.17,1.17,0,0,1-1.36-.46c-.37-.55-.05-1.08.18-1.56a1.14,1.14,0,0,1,1.3-.6,5.39,5.39,0,0,1,1.8.66A10.3,10.3,0,0,1,342.9,94a2.56,2.56,0,0,0,.3.27l.58-.36a3,3,0,0,1,1.86-.42c.63,0,.82.52.45,1a1.55,1.55,0,0,1-.54.47,2.25,2.25,0,0,0-1.2,2.24c0,2.65,0,5.31,0,8,0,3.06,0,6.11,0,9.17q0,4.27-.05,8.53a9.36,9.36,0,0,0,.81,3.5,5.2,5.2,0,0,0,3,2.95,6.4,6.4,0,0,0,1.08.27,8.54,8.54,0,0,1,1.16.31,1.07,1.07,0,0,1,.59,1.08,1.06,1.06,0,0,1-.88.93,6.35,6.35,0,0,1-4.61-.54,8.39,8.39,0,0,1-2.76-2.93,9.33,9.33,0,0,1-.79.68q-1.3.89-2.63,1.74a.84.84,0,0,1-1-.11.91.91,0,0,1,0-1.44,13.13,13.13,0,0,0,1.65-2,6.39,6.39,0,0,0,1.21-3.77c.06-2.29,0-4.58,0-6.87,0-1,0-1.93-.07-2.89-.05-.74-.12-.76-.85-.77h-1.67a.89.89,0,0,0-.21.86,14.15,14.15,0,0,1-.44,6.85,10,10,0,0,1-1.54,3,13.4,13.4,0,0,1-2.66,2.72,6.24,6.24,0,0,1-2.55,1.13,7.32,7.32,0,0,1-3.93-.55,6.22,6.22,0,0,1-.59-.28,1.16,1.16,0,0,1-.53-1.88,4,4,0,0,0,.83-2.81c0-2.5,0-5,0-7.5,0-.17,0-.33,0-.5,0-1-.2-1.15-1.15-1.08-.53,0-1.05,0-1.58.06a6,6,0,0,0-.88.07,1.28,1.28,0,0,0-1.08,1.33c0,1.82,0,3.63,0,5.45,0,1.12-.06,2.25,0,3.36a9.23,9.23,0,0,0,2,5.31,6.52,6.52,0,0,1,.53.73.94.94,0,0,1,.07,1,.89.89,0,0,1-1,.35,2.13,2.13,0,0,1-.68-.24c-.58-.33-1.15-.69-1.73-1-.16-.1-.33-.18-.46-.24-.67.65-1.3,1.27-1.95,1.88a5.55,5.55,0,0,1-3,1.49,2.06,2.06,0,0,1-.64,0c-.37-.06-.77-.1-.86-.6a1.15,1.15,0,0,1,.51-1.14c.63-.42,1.28-.8,1.86-1.28a7.12,7.12,0,0,0,2.68-4.9,25,25,0,0,0,.26-3.68c0-.87-.06-1.75-.06-2.62s.06-1.54.06-2.31c0-5.55,0-11.1,0-16.65a7.64,7.64,0,0,0-.33-2c-.19-.67-.83-1-1.33-1.39l-.07,0c-.39-.18-.91-.33-.77-.89a1.27,1.27,0,0,1,1.11-1A3.2,3.2,0,0,1,320.48,94.46ZM332.24,113H330c-.8,0-.89.1-.89.89,0,1.46-.08,2.93,0,4.38a39.75,39.75,0,0,0,.6,4.64,2.07,2.07,0,0,0,1.66,1.71,2,2,0,0,0,2.24-1.06,12.84,12.84,0,0,0,1.57-4.37,18.12,18.12,0,0,0,.12-5.58c-.07-.49-.16-.61-.66-.62C333.85,113,333,113,332.24,113Zm-3.06-7.85c1.15,0,2.14,0,3.13,0a1.28,1.28,0,0,0,.77-.39,5.59,5.59,0,0,0,1.27-2,6,6,0,0,0-.78-5.18,1.31,1.31,0,0,0-1.13-.7c-.37,0-.75,0-1.13,0a2.18,2.18,0,0,0-2.16,2.37c0,1.29,0,2.59,0,3.88C329.1,103.8,329.15,104.45,329.18,105.17Zm-.08,6c1.81.15,3.56.05,5.36.08a1.87,1.87,0,0,0,0-.5c-.36-.77-.72-1.53-1.11-2.29a.78.78,0,0,0-.37-.31,5.53,5.53,0,0,0-2.74-.54,1.13,1.13,0,0,0-1.1.91C329.08,109.31,329.1,110.17,329.1,111.12Z"/><path class="cls-2" d="M348.77,152.05c-.16.69-.32,1.33-.46,2a1.13,1.13,0,0,0,.64,1.46,1,1,0,0,1,.44,1,.78.78,0,0,1-.77.6,10.35,10.35,0,0,1-1.11-.14,9.33,9.33,0,0,0-1.43-.16,5,5,0,0,1-1.22-.29,9.11,9.11,0,0,0-1.51-.06c-.91,0-1.82-.07-2.73-.12-.65,0-1-.33-1-.87a.75.75,0,0,1,.6-.84,1.54,1.54,0,0,0,1.23-1.78q0-3.09,0-6.18a9,9,0,0,0-.12-.94c-.25.26-.41.37-.47.52-.68,1.7-1.35,3.4-2,5.1-.37,1-.45,1.14-1.25,1.14-.49-.94-1-1.92-1.51-2.91a12.24,12.24,0,0,0-1.68-2.92,11.52,11.52,0,0,0-.17,1.36q0,2.4.1,4.8a3,3,0,0,0,.23.94.92.92,0,0,0,.92.65c.55,0,.74.26.75.76s-.18.85-.76.83c-1.23,0-2.46-.11-3.69,0a1.79,1.79,0,0,1-.58-.17c-.18-1-.19-1,.57-1.39a1,1,0,0,0,.63-1q0-4.76.05-9.51a2,2,0,0,0-.65-1.62,3.6,3.6,0,0,1-.48-.56.6.6,0,0,1,.4-1h.16l3.13.26a.69.69,0,0,1,.64.5c.74,1.76,1.52,3.5,2.3,5.25a4.42,4.42,0,0,0,.43.62c.4-1,.78-1.79,1.12-2.65.4-1,.74-2.07,1.15-3.09a.9.9,0,0,1,.51-.44,2.93,2.93,0,0,1,1-.12c.83,0,1.67,0,2.49.11s.87.48.39,1.11c-.23.3-.47.6-.68.91a5.66,5.66,0,0,0-.67,3.32c0,1.34.13,2.68.16,4,0,.88,0,1.76-.08,2.64a2.43,2.43,0,0,0,.63,1.66c.63.77,1.36.59,2-.3a4,4,0,0,0,.5-1.38c.56-2.42,1.11-4.85,1.65-7.28q.38-1.69.71-3.38a.54.54,0,0,1,.47-.49c.44,0,.89-.05,1.38-.08.16.43.32.78.43,1.14q1.57,5.12,3.12,10.24c.21.68.4,1.37.61,2a2.12,2.12,0,0,0,1,1.51,1.6,1.6,0,0,1,.32,1.67,1.33,1.33,0,0,1-.86.26,1.45,1.45,0,0,1-.67-.25,5.91,5.91,0,0,0-3.32-.81c-.36,0-.7,0-.81-.49s0-.92.43-1.18c1.24-.71,1.24-.71.86-2.12-.11-.42-.23-.85-.39-1.26a.82.82,0,0,0-.35-.42A6.51,6.51,0,0,0,348.77,152.05Zm1.52-4.51a3.51,3.51,0,0,0-.87,2.58,2.2,2.2,0,0,0,1.65-.08Z"/><path class="cls-2" d="M330.73,79.76c-.86.6-1.51,1.07-2.18,1.52s-1.24.77-1.85,1.17c-.29.19-.59.33-.85,0s-.12-.61.08-.91c.57-.83,1.14-1.67,1.7-2.52.27-.4.5-.83.8-1.35a6.06,6.06,0,0,0-.87-.36c-1.08-.23-2.16-.43-3.24-.65-.47-.1-1-.18-1.17-.76a1.09,1.09,0,0,1,1-.71c1.29-.22,2.57-.53,3.85-.81a2.8,2.8,0,0,0,.44-.18c-.28-.49-.51-.95-.78-1.38-.54-.85-1.11-1.69-1.67-2.53a.82.82,0,0,1-.11-1c.16-.23.7-.22,1,0,.94.63,1.87,1.29,2.81,1.93l.9.62a8.7,8.7,0,0,0,.33-1c.22-1.13.4-2.27.6-3.4a1,1,0,0,1,.19-.53,1.39,1.39,0,0,1,.67-.35c.31-.05.39.25.43.49.23,1.24.45,2.49.66,3.73.06.35.06.72.53,1,.37-.25.8-.53,1.21-.82l2.31-1.65a1.74,1.74,0,0,1,.29-.13c.29-.12.59-.19.83.06a.7.7,0,0,1,0,.91c-.47.74-1,1.47-1.43,2.2-.37.58-.74,1.18-1.19,1.89l2,.43,2.9.64c.27.06.47.15.46.46s-.1.53-.43.61-.66.23-1,.3c-.92.19-1.85.32-2.77.53-.34.08-.78.09-.89.69l2,3.1a3.61,3.61,0,0,1,.45.78.8.8,0,0,1,0,.66.69.69,0,0,1-.66.08c-.64-.35-1.25-.75-1.85-1.15s-1.19-.85-1.8-1.24c-.39-.25-.67-.12-.76.35-.18.91-.32,1.84-.48,2.76-.07.41-.19.8-.27,1.21s-.27.67-.7.66-.53-.33-.59-.67c-.18-1-.35-2-.53-3C331,80.92,330.87,80.44,330.73,79.76ZM334,75.87a1.75,1.75,0,0,0-1.75-1.8,1.72,1.72,0,0,0-1.64,1.7,1.7,1.7,0,1,0,3.39.09Z"/><path class="cls-2" d="M315.5,150.22c.21.31.4.64.62.93.68.89,1.36,1.77,2,2.66a11.94,11.94,0,0,0,.9,1.15,2.54,2.54,0,0,0,.77.41.81.81,0,0,1,.57,1,.68.68,0,0,1-.74.62,12.4,12.4,0,0,0-2.78.46,1.81,1.81,0,0,1-.64,0,.65.65,0,0,1-.6-.87,1.64,1.64,0,0,0-.44-1.63c-.86-1.16-1.67-2.36-2.5-3.54a2.75,2.75,0,0,0-.28-.4c-.32-.31-.66-.22-.75.24s-.11,1-.15,1.45c-.07.77-.16,1.53-.21,2.3s0,1.44.82,1.81a.81.81,0,0,1,.44,1c-.08.45-.41.56-.78.57a8.08,8.08,0,0,0-3.3,1c-.63.3-1.09.25-1.29-.15a1.07,1.07,0,0,1,.45-1.35,2.85,2.85,0,0,0,1.2-1.94c.23-1.18.16-2.36.32-3.54s.22-2.29.31-3.44c.08-1,.15-1.92.21-2.88a1.58,1.58,0,0,0-.69-1.56.94.94,0,0,1,.21-1.51,3,3,0,0,1,1.09-.22c.89,0,1.77,0,2.66,0,.59,0,1.17-.12,1.76-.16a3.58,3.58,0,0,1,2.4.41,3,3,0,0,1,1.35,2.06,5,5,0,0,1-.28,3.14,2.7,2.7,0,0,1-1,1.22C316.69,149.65,316.14,149.88,315.5,150.22Zm-3.69-1.14a3,3,0,0,0,2,.06,3.4,3.4,0,0,0,1.23-.9c1.25-1.2,1-2.27.3-3.49a1,1,0,0,0-1-.53c-.5.06-1,.11-1.51.2s-.6.25-.64.78-.1.87-.14,1.31C311.94,147.35,311.88,148.19,311.81,149.08Z"/><path class="cls-2" d="M330.58,147.6a9.76,9.76,0,0,1-.4,3.8,7.87,7.87,0,0,1-3.09,4.39,4,4,0,0,1-5-.49,9,9,0,0,1-2.2-4.24,8,8,0,0,1-.2-3.1c.09-.74.15-1.48.27-2.2a9,9,0,0,1,1.61-3.56,4.93,4.93,0,0,1,3.82-2.27,3.12,3.12,0,0,1,1.11.17,4.93,4.93,0,0,1,3.34,3.27A9.69,9.69,0,0,1,330.58,147.6Zm-2.53.4c-.18-1.23-.32-2.49-.58-3.72a3.72,3.72,0,0,0-.74-1.44,1.26,1.26,0,0,0-2-.15,6.42,6.42,0,0,0-1.87,3.83c-.06.29-.08.59-.15.87a9.49,9.49,0,0,0-.13,3.1,7.33,7.33,0,0,0,1,3.34,1.43,1.43,0,0,0,2.51.21,7.91,7.91,0,0,0,1.1-2.07A17.12,17.12,0,0,0,328.06,148Z"/></g><g id="MPI"><polygon class="cls-1" points="16.64 302.05 11.8 317.91 7.25 302.05 0.78 302.05 0.78 302.87 3.13 302.87 3.13 322.67 0.78 322.67 0.78 323.49 6.57 323.49 6.57 322.67 4.14 322.67 4.14 303.16 4.41 303.16 10.19 323.49 11.01 323.49 17.23 303.16 17.36 303.16 17.36 322.67 14.94 322.67 14.94 323.49 22.95 323.49 22.95 322.67 20.43 322.67 20.43 302.87 22.95 302.87 22.95 302.05 16.64 302.05"/><path class="cls-1" d="M38.21,306.23l2.71,8.62H35.3ZM39,301.5l-7.32,21.17H29.12v.82h6.31v-.82H32.72L35,315.79h6.22l2.16,6.88H40.73v.82h8.17v-.82H46.65L39.81,301.5Z"/><polygon class="cls-1" points="66.13 302.05 66.13 302.87 68.78 302.87 64.11 310.37 59.63 302.87 61.95 302.87 61.95 302.05 53.64 302.05 53.64 302.87 55.93 302.87 62.15 313.25 56.26 322.67 53.51 322.67 53.51 323.49 60.18 323.49 60.18 322.67 57.4 322.67 62.64 314.1 67.8 322.67 65.19 322.67 65.19 323.49 73.62 323.49 73.62 322.67 71.5 322.67 64.6 311.23 69.83 302.87 72.54 302.87 72.54 302.05 66.13 302.05"/><rect class="cls-1" x="80.22" y="316.08" width="7.95" height="2.26"/><path class="cls-1" d="M101.8,312.95c4.42,0,5.86-1.5,5.86-5.31,0-4.11-1.57-4.76-5.79-4.76h-1.5v10.08Zm-7,9.73h2.42v-19.8H94.8V302h7.45c5.89,0,8.8,1.76,8.8,5.55,0,4-3.17,6.2-9.35,6.2h-1.34v8.87h2.55v.82H94.8Z"/><path class="cls-1" d="M117,322.67h2.68v-19.8h-2.58V302h8.8v.82h-2.94v19.8h4.41c3.27,0,4.55-1.24,5.49-5.22h.62l-.36,6H117Z"/><path class="cls-1" d="M147.84,306.23l2.71,8.62h-5.62Zm.78-4.73-7.32,21.17h-2.55v.82h6.31v-.82h-2.72l2.29-6.88h6.21l2.16,6.88h-2.65v.82h8.17v-.82h-2.25l-6.84-21.17Z"/><polygon class="cls-1" points="177.69 302.05 177.69 302.87 180.14 302.87 180.14 317.39 170.98 302.05 164.74 302.05 164.74 302.87 167.12 302.87 167.12 322.67 164.7 322.67 164.7 323.49 170.56 323.49 170.56 322.67 168.14 322.67 168.14 303.26 180.34 324.02 181.19 324.02 181.19 302.87 183.67 302.87 183.67 302.05 177.69 302.05"/><path class="cls-1" d="M209.27,317.75v5.74h-.69l-1-1a8.11,8.11,0,0,1-5.2,1.57c-5.3,0-9.12-4.44-9.12-10.91a12.66,12.66,0,0,1,2.58-8,9,9,0,0,1,6.93-3.49,7.44,7.44,0,0,1,4.74,1.66l1.08-1h.49v5.42h-.69c-.92-3.52-2.91-5.36-5.76-5.36-4.19,0-5.69,3.73-5.69,11.36,0,3.17.2,5.45,1.15,7a4.89,4.89,0,0,0,4.22,2.38c3.1,0,5.3-1.83,6.34-5.38Z"/><path class="cls-1" d="M217.34,302v.82h2.42v19.8h-2.42v.82h8.08v-.82H223v-19.8h2.42V302Zm11.9,0v.82H232l-8.6,9.07v.33l8.14,10.41h-2.58v.82H237v-.84h-1.8l-9.45-11.85,7.49-7.93h2.42V302Z"/><rect class="cls-1" x="241.7" y="316.08" width="7.95" height="2.26"/><polygon class="cls-1" points="256.61 302.05 256.61 302.87 259.32 302.87 259.32 322.67 256.61 322.67 256.61 323.49 265.37 323.49 265.37 322.67 262.59 322.67 262.59 302.87 265.37 302.87 265.37 302.05 256.61 302.05"/><polygon class="cls-1" points="287.21 302.05 287.21 302.87 289.66 302.87 289.66 317.39 280.51 302.05 274.26 302.05 274.26 302.87 276.65 302.87 276.65 322.67 274.23 322.67 274.23 323.49 280.08 323.49 280.08 322.67 277.66 322.67 277.66 303.26 289.86 324.02 290.71 324.02 290.71 302.87 293.2 302.87 293.2 302.05 287.21 302.05"/><path class="cls-1" d="M300.32,323.59v-5.64h.62c1,3.26,3.43,5.16,6.15,5.16a5.21,5.21,0,0,0,5.49-5c0-2.61-1.86-3-5.4-4.14-4.45-1.4-6.83-2.64-6.83-6.43,0-3.46,2.48-6,6.28-6a8.23,8.23,0,0,1,4.28,1.27.4.4,0,0,0,.3-.16l.62-.68h.68v4.89h-.59c-1-3.07-2.91-4.6-5.66-4.6-2.49,0-4.38,1.71-4.38,3.82,0,1.82,1.34,2.83,4.15,3.59,2.52.68,4.51,1.11,5.89,2.15a5.73,5.73,0,0,1,2.16,4.76c0,4.41-2.78,7.28-7.29,7.28a8.24,8.24,0,0,1-4.67-1.47.47.47,0,0,0-.26.17l-1,1Z"/><path class="cls-1" d="M325.66,322.67h2.71v-19.8c-.39,0-.72,0-1.08,0-3.14,0-4.32,1.44-5.13,5.48h-.72l.29-6.27h16.58l.22,6.14h-.78c-.49-3.86-1.93-5.35-5.27-5.35a7.31,7.31,0,0,0-.88,0v19.8h2.65v.82h-8.6Z"/><polygon class="cls-1" points="344.55 302.05 344.55 302.87 347.27 302.87 347.27 322.67 344.55 322.67 344.55 323.49 353.31 323.49 353.31 322.67 350.54 322.67 350.54 302.87 353.31 302.87 353.31 302.05 344.55 302.05"/><path class="cls-1" d="M364.79,322.67h2.71v-19.8c-.39,0-.72,0-1.08,0-3.14,0-4.32,1.44-5.14,5.48h-.72l.29-6.27h16.58l.23,6.14h-.78c-.49-3.86-1.93-5.35-5.27-5.35a7.27,7.27,0,0,0-.88,0v19.8h2.65v.82h-8.6Z"/><path class="cls-1" d="M388.39,302.87h-2.51V302H394v.82H391.5v15c0,3.33,1.6,5.09,4.54,5.09,3.44,0,5.27-2.15,5.27-6.3v-13.8h-2.45V302h5.89v.82h-2.46v13.9c0,4.9-2.29,7.28-7.16,7.28-4.18,0-6.74-2.26-6.74-6Z"/><path class="cls-1" d="M415.34,322.67h2.71v-19.8c-.4,0-.72,0-1.08,0-3.14,0-4.32,1.44-5.13,5.48h-.72l.29-6.27H428l.23,6.14h-.79c-.49-3.86-1.93-5.35-5.27-5.35a7.26,7.26,0,0,0-.88,0v19.8h2.65v.82h-8.6Z"/><path class="cls-1" d="M448,322.67h2.42v-19.8H448V302h16v5.72h-.69c-.33-3.92-1.86-4.9-5.59-4.9h-4v9.24H454c2.82,0,3.93-.91,4.12-3.4h.69v8h-.69c-.22-2.64-1.3-3.75-3.76-3.75-.23,0-.43,0-.65,0v9.69h2.55v.82H448Z"/><path class="cls-1" d="M483.44,295.85a1.62,1.62,0,0,1,1.6,1.57,1.58,1.58,0,0,1-1.6,1.6,1.56,1.56,0,0,1-1.57-1.6,1.59,1.59,0,0,1,1.57-1.57m-6.09,0a1.62,1.62,0,0,1,1.61,1.57,1.59,1.59,0,0,1-1.61,1.6,1.56,1.56,0,0,1-1.57-1.6,1.59,1.59,0,0,1,1.57-1.57m-4.45,7h-2.52V302h8.11v.82H476v15c0,3.33,1.6,5.09,4.55,5.09,3.43,0,5.26-2.15,5.26-6.3v-13.8h-2.45V302h5.89v.82H486.8v13.9c0,4.9-2.29,7.28-7.16,7.28-4.18,0-6.74-2.26-6.74-6Z"/><path class="cls-1" d="M504,311.42c3.92,0,5.55-.72,5.55-4.44,0-3.46-1.34-4.11-4.64-4.11h-2.81v8.55ZM499,322.67v-19.8h-2.42V302h9.09c4.9,0,7.49,1.8,7.49,4.74s-2.36,4.89-6.54,5.09v.26c3.21.55,5.21,2.32,5.56,4.64.33,2.05,0,3.91.46,5.09a1.52,1.52,0,0,0,1.63,1.11,4,4,0,0,0,1.67-.42v.81a7.74,7.74,0,0,1-3,.69c-2.87,0-4-2.23-4.21-6.6-.07-1.5-.07-2.67-1-3.72a4.91,4.91,0,0,0-3.66-1.47h-1.9v10.4h2.49v.82h-8.21v-.82Z"/><path class="cls-1" d="M531.82,302v.82h2.42v19.8h-2.42v.82h8.08v-.82h-2.42v-19.8h2.42V302Zm11.9,0v.82h2.72l-8.6,9.07v.33L546,322.67H543.4v.82h8.11v-.84h-1.8l-9.45-11.85,7.49-7.93h2.42V302Z"/><path class="cls-1" d="M561,302.87h-2.52V302h8.11v.82h-2.48v15c0,3.33,1.61,5.09,4.54,5.09,3.43,0,5.27-2.15,5.27-6.3v-13.8h-2.46V302h5.89v.82h-2.45v13.9c0,4.9-2.29,7.28-7.16,7.28-4.18,0-6.73-2.26-6.73-6Z"/><polygon class="cls-1" points="598.03 302.05 598.03 302.87 600.48 302.87 600.48 317.39 591.33 302.05 585.08 302.05 585.08 302.87 587.46 302.87 587.46 322.67 585.05 322.67 585.05 323.49 590.9 323.49 590.9 322.67 588.48 322.67 588.48 303.26 600.68 324.02 601.53 324.02 601.53 302.87 604.01 302.87 604.01 302.05 598.03 302.05"/><path class="cls-1" d="M613.1,323.59v-5.64h.62c1,3.26,3.43,5.16,6.14,5.16a5.21,5.21,0,0,0,5.49-5c0-2.61-1.86-3-5.4-4.14-4.44-1.4-6.83-2.64-6.83-6.43,0-3.46,2.49-6,6.28-6a8.24,8.24,0,0,1,4.28,1.27.41.41,0,0,0,.3-.16l.62-.68h.69v4.89h-.59c-1-3.07-2.91-4.6-5.66-4.6-2.49,0-4.39,1.71-4.39,3.82,0,1.82,1.34,2.83,4.16,3.59,2.52.68,4.51,1.11,5.89,2.15a5.73,5.73,0,0,1,2.16,4.76c0,4.41-2.78,7.28-7.3,7.28a8.22,8.22,0,0,1-4.67-1.47.44.44,0,0,0-.26.17l-1,1Z"/><path class="cls-1" d="M638.34,322.67h2.71v-19.8c-.4,0-.72,0-1.08,0-3.14,0-4.32,1.44-5.13,5.48h-.72l.3-6.27H651l.23,6.14h-.79c-.49-3.86-1.93-5.35-5.27-5.35a7.23,7.23,0,0,0-.88,0v19.8h2.65v.82h-8.6Z"/><path class="cls-1" d="M680.32,316v.75h-2c0,4.67-3,7.32-8.34,7.32-5.63,0-9.38-4.24-9.38-11a12.3,12.3,0,0,1,2.85-8.13,8.69,8.69,0,0,1,6.8-3.26,8.52,8.52,0,0,1,5.33,1.76l1.17-1.14h.46v5.45h-.69c-.79-3.4-3.08-5.29-6.12-5.29-4.32,0-6.12,3.46-6.12,10.7,0,6.89,1.44,10,5.59,10,3.57,0,4.87-1.72,4.87-5.74v-.75h-3V316Z"/><path class="cls-1" d="M686.62,322.67H689v-19.8h-2.42V302h16v5.16h-.68c-.53-3.49-2-4.34-5.56-4.34h-4v9.07H693c2.75,0,3.79-.85,4-3.4h.69v8.06H697c-.17-2.91-1.34-3.86-4.48-3.86h-.16v9.92h4.55c3.59,0,5-1.3,5.79-5.29h.72l-.33,6.1H686.62Z"/><path class="cls-1" d="M710.82,323.59v-5.64h.62c1,3.26,3.44,5.16,6.14,5.16a5.21,5.21,0,0,0,5.5-5c0-2.61-1.86-3-5.4-4.14-4.45-1.4-6.83-2.64-6.83-6.43,0-3.46,2.48-6,6.28-6a8.25,8.25,0,0,1,4.28,1.27.39.39,0,0,0,.29-.16l.62-.68H723v4.89h-.58c-1-3.07-2.91-4.6-5.66-4.6-2.49,0-4.38,1.71-4.38,3.82,0,1.82,1.34,2.83,4.15,3.59,2.52.68,4.51,1.11,5.89,2.15a5.73,5.73,0,0,1,2.16,4.76c0,4.41-2.78,7.28-7.29,7.28a8.28,8.28,0,0,1-4.68-1.47.48.48,0,0,0-.26.17l-1,1Z"/><path class="cls-1" d="M748.29,317.75v5.74h-.69l-1-1a8.1,8.1,0,0,1-5.2,1.57c-5.3,0-9.13-4.44-9.13-10.91a12.64,12.64,0,0,1,2.58-8,9,9,0,0,1,6.93-3.49,7.48,7.48,0,0,1,4.75,1.66l1.07-1h.49v5.42h-.69c-.92-3.52-2.91-5.36-5.75-5.36-4.19,0-5.69,3.73-5.69,11.36,0,3.17.2,5.45,1.15,7a4.9,4.9,0,0,0,4.22,2.38c3.11,0,5.3-1.83,6.34-5.38Z"/><polygon class="cls-1" points="769.34 302.05 769.34 302.87 771.76 302.87 771.76 311.94 762.51 311.94 762.51 302.87 764.93 302.87 764.93 302.05 756.82 302.05 756.82 302.87 759.25 302.87 759.25 322.67 756.82 322.67 756.82 323.49 764.93 323.49 764.93 322.67 762.51 322.67 762.51 312.86 771.76 312.86 771.76 322.67 769.34 322.67 769.34 323.49 777.45 323.49 777.45 322.67 775.03 322.67 775.03 302.87 777.45 302.87 777.45 302.05 769.34 302.05"/><polygon class="cls-1" points="784.35 302.05 784.35 302.87 787.06 302.87 787.06 322.67 784.35 322.67 784.35 323.49 793.11 323.49 793.11 322.67 790.33 322.67 790.33 302.87 793.11 302.87 793.11 302.05 784.35 302.05"/><path class="cls-1" d="M818.68,317.75v5.74H818l-1-1a8.13,8.13,0,0,1-5.2,1.57c-5.29,0-9.12-4.44-9.12-10.91a12.64,12.64,0,0,1,2.58-8,9,9,0,0,1,6.93-3.49,7.42,7.42,0,0,1,4.74,1.66l1.08-1h.49v5.42h-.69c-.91-3.52-2.9-5.36-5.75-5.36-4.18,0-5.69,3.73-5.69,11.36,0,3.17.19,5.45,1.15,7a4.88,4.88,0,0,0,4.21,2.38c3.11,0,5.3-1.83,6.35-5.38Z"/><polygon class="cls-1" points="839.76 302.05 839.76 302.87 842.18 302.87 842.18 311.94 832.93 311.94 832.93 302.87 835.35 302.87 835.35 302.05 827.24 302.05 827.24 302.87 829.66 302.87 829.66 322.67 827.24 322.67 827.24 323.49 835.35 323.49 835.35 322.67 832.93 322.67 832.93 312.86 842.18 312.86 842.18 322.67 839.76 322.67 839.76 323.49 847.88 323.49 847.88 322.67 845.46 322.67 845.46 302.87 847.88 302.87 847.88 302.05 839.76 302.05"/><path class="cls-1" d="M860.33,322.67H863v-19.8c-.39,0-.72,0-1.08,0-3.13,0-4.31,1.44-5.13,5.48h-.72l.3-6.27H873l.23,6.14h-.78c-.49-3.86-1.93-5.35-5.27-5.35a7.28,7.28,0,0,0-.88,0v19.8h2.65v.82h-8.6Z"/><path class="cls-1" d="M881.48,322.67h2.42v-19.8h-2.42V302h16v5.16h-.69c-.53-3.49-2-4.34-5.56-4.34h-4v9.07h.65c2.75,0,3.8-.85,4-3.4h.69v8.06h-.69c-.16-2.91-1.34-3.86-4.48-3.86h-.16v9.92h4.55c3.59,0,5-1.3,5.79-5.29h.71l-.33,6.1H881.48Z"/></g><g id="Bibliotheca_Hertziana" data-name="Bibliotheca Hertziana"><path class="cls-4" d="M11.58,272.16H17.5c7.49,0,9.67-2.37,9.67-10.19s-2.79-10.74-10.28-10.74H11.58Zm5-22.63c7.56,0,9.6-2.45,9.6-9.79s-2.79-8.84-9.87-8.84H11.58v18.62ZM0,272.16H4.9V230.9H0v-1.7H17.16c10.49,0,15.93,3.74,15.93,10.33,0,5.51-3.88,9.38-11,10.53v.27c7.9,1.29,12.46,5.85,12.46,11.28,0,7.61-6.13,12.23-17.71,12.23H0Z"/><polygon class="cls-4" points="42.69 272.16 48.34 272.16 48.34 230.9 42.69 230.9 42.69 229.21 60.94 229.21 60.94 230.9 55.15 230.9 55.15 272.16 60.94 272.16 60.94 273.86 42.69 273.86 42.69 272.16"/><path class="cls-4" d="M84.3,272.16h5.93c7.49,0,9.67-2.37,9.67-10.19s-2.79-10.74-10.28-10.74H84.3Zm5-22.63c7.56,0,9.6-2.45,9.6-9.79s-2.79-8.84-9.88-8.84H84.3v18.62ZM72.72,272.16h4.9V230.9h-4.9v-1.7H89.88c10.49,0,15.94,3.74,15.94,10.33,0,5.51-3.88,9.38-11,10.53v.27c7.9,1.29,12.46,5.85,12.46,11.28,0,7.61-6.13,12.23-17.71,12.23H72.72Z"/><path class="cls-4" d="M114,272.16h5.59V230.9h-5.38v-1.7h18.32v1.7h-6.13v41.25h9.19c6.81,0,9.47-2.58,11.44-10.88h1.29l-.75,12.58H114Z"/><polygon class="cls-4" points="158.1 272.16 163.75 272.16 163.75 230.9 158.1 230.9 158.1 229.21 176.35 229.21 176.35 230.9 170.56 230.9 170.56 272.16 176.35 272.16 176.35 273.86 158.1 273.86 158.1 272.16"/><path class="cls-4" d="M196.09,254.42c0,12.64,3.81,18.83,11.72,18.83s11.65-6.26,11.65-19c0-16.65-2.11-24.33-11.65-24.33s-11.72,7.81-11.72,24.46m-2.45,13.53a27.26,27.26,0,0,1-5.24-16.58,24.27,24.27,0,0,1,5.24-15.7c4-4.82,8.51-7.27,14.17-7.27,5.31,0,9.67,2.1,13.42,6.46a25.4,25.4,0,0,1,5.93,16.85,26.36,26.36,0,0,1-5.59,16.65,16.4,16.4,0,0,1-13.76,6.59c-6.06,0-10.42-2.17-14.17-7"/><path class="cls-4" d="M250,272.16h5.65V230.9c-.82-.07-1.5-.07-2.25-.07-6.54,0-9,3-10.69,11.42h-1.5l.61-13.05h34.53l.48,12.78h-1.63c-1-8-4-11.15-11-11.15a16.32,16.32,0,0,0-1.84.07v41.25h5.52v1.7H250Z"/><polygon class="cls-4" points="287.4 272.16 292.44 272.16 292.44 230.9 287.4 230.9 287.4 229.21 304.29 229.21 304.29 230.9 299.25 230.9 299.25 249.8 318.52 249.8 318.52 230.9 313.48 230.9 313.48 229.21 330.37 229.21 330.37 230.9 325.33 230.9 325.33 272.16 330.37 272.16 330.37 273.86 313.48 273.86 313.48 272.16 318.52 272.16 318.52 251.7 299.25 251.7 299.25 272.16 304.29 272.16 304.29 273.86 287.4 273.86 287.4 272.16"/><path class="cls-4" d="M342.41,272.16h5V230.9h-5v-1.7h33.24v10.74h-1.43c-1.09-7.27-4.22-9-11.58-9h-8.38v18.9h1.36c5.72,0,7.9-1.77,8.31-7.07h1.43v16.79h-1.43c-.34-6-2.79-8-9.33-8h-.34v20.66h9.47c7.49,0,10.35-2.72,12.06-11h1.5l-.68,12.71H342.41Z"/><path class="cls-4" d="M425.08,261.9v12h-1.43l-2.11-2.18q-4.09,3.26-10.83,3.26c-11,0-19-9.24-19-22.7a26.33,26.33,0,0,1,5.38-16.58,18.7,18.7,0,0,1,14.44-7.27,15.51,15.51,0,0,1,9.88,3.46l2.25-2.11h1V241h-1.43c-1.91-7.34-6.06-11.15-12-11.15-8.72,0-11.85,7.75-11.85,23.65,0,6.59.41,11.35,2.38,14.61a10.21,10.21,0,0,0,8.78,5c6.47,0,11-3.81,13.21-11.22Z"/><path class="cls-4" d="M459,255.85l-5.65-17.94-6.06,17.94ZM434.4,272.16h5.31L455,228.05h1.71l14.23,44.11h4.7v1.7h-17v-1.7h5.51l-4.49-14.34H446.66l-4.77,14.34h5.65v1.7H434.4Z"/><polygon class="cls-4" points="502.14 272.16 507.19 272.16 507.19 230.9 502.14 230.9 502.14 229.21 519.03 229.21 519.03 230.9 514 230.9 514 249.8 533.26 249.8 533.26 230.9 528.23 230.9 528.23 229.21 545.12 229.21 545.12 230.9 540.08 230.9 540.08 272.16 545.12 272.16 545.12 273.86 528.23 273.86 528.23 272.16 533.26 272.16 533.26 251.7 514 251.7 514 272.16 519.03 272.16 519.03 273.86 502.14 273.86 502.14 272.16"/><path class="cls-4" d="M556.21,272.16h5V230.9h-5v-1.7h33.23v10.74H588c-1.09-7.27-4.22-9-11.58-9h-8.38v18.9h1.36c5.72,0,7.9-1.77,8.31-7.07h1.43v16.79h-1.43c-.35-6-2.8-8-9.34-8h-.34v20.66h9.47c7.49,0,10.35-2.72,12.06-11h1.5l-.69,12.71H556.21Z"/><path class="cls-4" d="M616.61,248.71c8.17,0,11.58-1.5,11.58-9.24,0-7.21-2.8-8.57-9.67-8.57h-5.86v17.81ZM606,272.16V230.9h-5v-1.7h18.94c10.21,0,15.59,3.74,15.59,9.85s-4.9,10.19-13.61,10.6v.54c6.67,1.16,10.82,4.82,11.58,9.65.68,4.28,0,8.15,1,10.6a3.19,3.19,0,0,0,3.4,2.3,8.11,8.11,0,0,0,3.47-.88v1.7a16.17,16.17,0,0,1-6.2,1.43c-6,0-8.38-4.62-8.78-13.73-.13-3.12-.13-5.57-2.11-7.74a10.26,10.26,0,0,0-7.63-3.06h-4v21.68h5.18v1.7h-17.1v-1.7Z"/><path class="cls-4" d="M656.7,272.16h5.66V230.9c-.82-.07-1.5-.07-2.25-.07-6.55,0-9,3-10.7,11.42h-1.5l.62-13.05h34.53l.47,12.78h-1.63c-1-8-4-11.15-11-11.15a16.33,16.33,0,0,0-1.84.07v41.25h5.52v1.7H656.7Z"/><path class="cls-4" d="M692.25,271.48l26.08-40.57H705c-5,0-7.36,2.72-8.72,9h-1.84l.74-10.74h30.59v2.11l-26.29,40.84h12.06c8.1,0,11.17-2.79,12.46-11.08h1.77l-.82,12.78H692.25Z"/><polygon class="cls-4" points="737.39 272.16 743.04 272.16 743.04 230.9 737.39 230.9 737.39 229.21 755.64 229.21 755.64 230.9 749.85 230.9 749.85 272.16 755.64 272.16 755.64 273.86 737.39 273.86 737.39 272.16"/><path class="cls-4" d="M789.76,255.85,784.1,237.9,778,255.85Zm-24.59,16.31h5.31l15.26-44.11h1.7l14.23,44.11h4.7v1.7h-17v-1.7h5.52l-4.49-14.34H777.43l-4.77,14.34h5.65v1.7H765.17Z"/><polygon class="cls-4" points="812.22 272.16 817.26 272.16 817.26 230.9 812.28 230.9 812.28 229.21 825.29 229.21 844.36 261.15 844.36 230.9 839.25 230.9 839.25 229.21 851.71 229.21 851.71 230.9 846.54 230.9 846.54 274.94 844.77 274.94 819.37 231.72 819.37 272.16 824.41 272.16 824.41 273.86 812.22 273.86 812.22 272.16"/><path class="cls-4" d="M877.72,237.9l5.65,17.94H871.67Zm1.63-9.85L864.1,272.16h-5.31v1.7h13.15v-1.7h-5.66l4.77-14.34H884l4.5,14.34H883v1.7h17v-1.7h-4.71l-14.23-44.11Z"/></g></svg>