<?xml version="1.0" encoding="UTF-8"?>
<svg id="Layer_1" data-name="Layer 1" xmlns="http://www.w3.org/2000/svg" version="1.1" viewBox="0 0 842.2 109">
  <defs>
    <style>
      .cls-1 {
        fill: #01246c;
        stroke: #01246c;
        stroke-miterlimit: 10;
        stroke-width: .1px;
      }

      .cls-2 {
        fill: #ffaa06;
        stroke-width: 0px;
      }
    </style>
  </defs>
  <g>
    <polygon class="cls-2" points="119.8 86 120.3 86 125.8 1.1 125.9 .8 114.2 .8 119.8 86"/>
    <polygon class="cls-2" points="45.7 24 37.2 31.8 37 32.1 107.1 94.7 107.5 94.3 45.9 24.2 45.7 24"/>
    <polygon class="cls-2" points=".7 95 0 106.8 94.2 104.4 94.2 103.8 1 95 .7 95"/>
    <polygon class="cls-2" points="89.6 92.8 38.4 65.7 38.1 65.6 33.7 75.8 33.6 76.1 89.4 93.3 89.6 92.8"/>
    <polygon class="cls-2" points="92.9 27.7 82.2 31.6 108.6 81 109.1 80.8 92.9 28 92.9 27.7"/>
    <polygon class="cls-2" points="203.3 32.1 194.8 24.2 194.6 24 132.8 94.3 133.2 94.7 203 32.3 203.3 32.1"/>
    <polygon class="cls-2" points="239.6 95.3 239.6 95 146.1 103.8 146.1 104.4 240 106.8 240.3 106.8 239.6 95.3"/>
    <polygon class="cls-2" points="202.1 65.6 150.6 92.8 150.9 93.3 206.4 76.2 206.7 76.1 202.3 65.9 202.1 65.6"/>
    <polygon class="cls-2" points="158.1 31.6 147.4 27.7 131.1 80.8 131.7 81 157.9 31.9 158.1 31.6"/>
  </g>
  <g>
    <polygon class="cls-1" points="261.7 16.5 261.5 10.6 271.9 23.9 276.8 23.9 276.8 .8 270.9 .8 270.9 8.7 271.2 14.3 260.7 .8 255.8 .8 255.8 23.9 261.7 23.9 261.7 16.5"/>
    <path class="cls-1" d="M287.2,20.1h10.8l1.6,3.8h6.3l-10.2-22.8v-.3h-6.1l-10.1,22.4-.3.6h6.3l1.6-3.8ZM289.4,14.8l3.2-7.4,3.1,7.4h-6.3Z"/>
    <polygon class="cls-1" points="302.9 6.1 309.6 6.1 309.6 23.9 315.4 23.9 315.4 6.1 322.2 6.1 322.2 .8 302.9 .8 302.9 6.1"/>
    <rect class="cls-1" x="326.8" y=".8" width="5.8" height="23"/>
    <path class="cls-1" d="M349.1,24.4c7.5,0,12.4-4.7,12.4-12.1s-4.9-12.1-12.4-12.1-12.4,4.7-12.4,12.1,4.9,12.1,12.4,12.1ZM342.4,12.4c0-3.9,2.8-6.7,6.7-6.7s6.7,2.8,6.7,6.7-2.7,6.7-6.7,6.7-6.7-2.8-6.7-6.7Z"/>
    <polygon class="cls-1" points="380.6 8.7 380.9 14.3 370.4 .8 365.5 .8 365.5 23.9 371.4 23.9 371.4 16.5 371.3 10.6 381.6 23.9 386.5 23.9 386.5 .8 380.6 .8 380.6 8.7"/>
    <path class="cls-1" d="M397.5,20.1h10.8l1.6,3.8h6.3l-10.2-22.8v-.3h-6.1l-10.1,22.4-.3.6h6.3l1.6-3.8ZM399.7,14.8l3.2-7.4,3.1,7.4h-6.3Z"/>
    <polygon class="cls-1" points="436.2 18.5 425.2 18.5 425.2 .8 419.3 .8 419.3 23.9 436.2 23.9 436.2 18.5"/>
    <polygon class="cls-1" points="457 14.9 468 14.9 468 9.6 457 9.6 457 6.2 468.6 6.2 468.6 .8 451.3 .8 451.3 23.9 469.1 23.9 469.1 18.4 457 18.4 457 14.9"/>
    <polygon class="cls-1" points="479.2 16.5 479.1 10.6 489.4 23.9 494.3 23.9 494.3 .8 488.4 .8 488.4 8.7 488.7 14.3 478.2 .8 473.3 .8 473.3 23.9 479.2 23.9 479.2 16.5"/>
    <path class="cls-1" d="M520,12.2c0-5.5-3-11.4-11.5-11.4h-9.5v23h9.5c8.5,0,11.5-6,11.5-11.7ZM514.2,12.1c0,2.4-.7,6.3-5.7,6.3h-3.8V6.2h3.8c5.1,0,5.7,4.2,5.7,6Z"/>
    <path class="cls-1" d="M535.9.3c-7.5,0-12.4,4.7-12.4,12.1s4.9,12.1,12.4,12.1,12.4-4.7,12.4-12.1-4.9-12.1-12.4-12.1ZM542.5,12.4c0,4-2.7,6.7-6.7,6.7s-6.7-2.8-6.7-6.7,2.8-6.7,6.7-6.7,6.7,2.8,6.7,6.7Z"/>
    <polygon class="cls-1" points="562.4 23.9 566.6 12.3 571.1 23.9 575.7 23.9 583.9 1.4 584.1 .8 577.6 .8 574.9 8.8 573.3 14.5 568.5 .8 564.7 .8 560.1 14.5 558.4 8.7 555.7 1.1 555.6 .8 549.1 .8 557.7 23.9 562.4 23.9"/>
    <polygon class="cls-1" points="599.5 9.1 593.3 .9 586.9 .9 586.9 23.9 592.7 23.9 592.7 9.3 598.7 17.1 600 17.1 606.2 9.3 606.2 23.9 612 23.9 612 .9 605.8 .9 599.5 9.1"/>
    <polygon class="cls-1" points="622.4 14.9 633.4 14.9 633.4 9.6 622.4 9.6 622.4 6.2 634 6.2 634 .8 616.7 .8 616.7 23.9 634.5 23.9 634.5 18.4 622.4 18.4 622.4 14.9"/>
    <polygon class="cls-1" points="644.6 16.5 644.5 10.6 654.8 23.9 659.7 23.9 659.7 .8 653.8 .8 653.8 8.7 654.1 14.3 643.6 .8 638.7 .8 638.7 23.9 644.6 23.9 644.6 16.5"/>
    <polygon class="cls-1" points="669.8 23.9 675.6 23.9 675.6 6.1 682.4 6.1 682.4 .8 663.1 .8 663.1 6.1 669.8 6.1 669.8 23.9"/>
    <polygon class="cls-1" points="712.5 10.6 702 10.6 702 6.3 713.2 6.3 713.2 .9 696.2 .9 696.2 23.9 702 23.9 702 15.9 712.5 15.9 712.5 10.6"/>
    <path class="cls-1" d="M729.1,24.4c7.5,0,12.4-4.7,12.4-12.1s-4.9-12.1-12.4-12.1-12.4,4.7-12.4,12.1,4.9,12.1,12.4,12.1ZM722.4,12.4c0-3.9,2.8-6.7,6.7-6.7s6.7,2.8,6.7,6.7-2.7,6.7-6.7,6.7-6.7-2.8-6.7-6.7Z"/>
    <path class="cls-1" d="M750.7,16.6h2.9l5.7,7.3h6.1v-1l-5.8-7c4.2-1.7,4.8-4.6,4.8-7.2,0-3.8-2.7-7.9-8.6-7.9h-11v23h5.8v-7.3ZM758.7,8.9c0,1.1-.8,2.7-2.8,2.7h-5.2v-5.6h5.1c1.9,0,2.9,1.5,2.9,2.9Z"/>
    <polygon class="cls-1" points="788.5 23.9 788.5 6.1 795.2 6.1 795.2 .8 775.9 .8 775.9 6.1 782.7 6.1 782.7 23.9 788.5 23.9"/>
    <polygon class="cls-1" points="805.1 15.1 814.1 15.1 814.1 23.9 819.9 23.9 819.9 .9 814.1 .9 814.1 9.7 805.1 9.7 805.1 .9 799.2 .9 799.2 23.9 805.1 23.9 805.1 15.1"/>
    <polygon class="cls-1" points="841.7 18.4 829.6 18.4 829.6 14.9 840.6 14.9 840.6 9.6 829.6 9.6 829.6 6.2 841.2 6.2 841.2 .8 823.9 .8 823.9 23.9 841.7 23.9 841.7 18.4"/>
    <polygon class="cls-1" points="299.7 66.8 270.8 66.8 270.8 40.6 255.7 40.6 255.7 106.6 270.8 106.6 270.8 80.7 299.7 80.7 299.7 106.6 314.5 106.6 314.5 40.6 299.7 40.6 299.7 66.8"/>
    <path class="cls-1" d="M369.2,77.4c0,10.9-4.3,16.5-13.3,17.1-5.2.2-9.4-1.1-12.3-3.9-3.1-3-4.7-7.4-4.7-13.2v-36.8h-15v36.8c0,9.4,2.9,17.3,8.5,22.6,5.4,5.2,13.2,8,22,8s.9,0,1.4,0c18-.6,28.3-11.8,28.3-30.7v-36.8h-15v36.8Z"/>
    <polygon class="cls-1" points="429.8 65.6 410.8 40.7 410.8 40.6 393.7 40.6 393.7 106.6 408.7 106.6 408.7 61.2 428 86.5 430.8 86.5 450.7 61.4 450.7 106.6 465.8 106.6 465.8 40.6 448.9 40.6 429.8 65.6"/>
    <path class="cls-1" d="M516.1,40.5h-16.2l-29.5,65.7v.3c-.1,0,16.1,0,16.1,0l4.8-11.2h33.3l4.7,11.1h0c0,.1,16.3.1,16.3.1l-29.5-65.9h0ZM518.9,81.9h-21.9l11-25.8,10.9,25.8Z"/>
    <polygon class="cls-1" points="594.8 62.7 595.8 82.6 563.1 40.6 563.1 40.5 550.2 40.5 550.2 106.5 565.4 106.5 565.4 85.9 564.9 65 597 106.4 597.1 106.5 610 106.5 610 40.5 594.8 40.5 594.8 62.7"/>
    <rect class="cls-1" x="618.5" y="40.5" width="15" height="66"/>
    <polygon class="cls-1" points="642 54 661.9 54 661.9 106.5 676.9 106.5 676.9 54 696.8 54 696.8 40.5 642 40.5 642 54"/>
    <rect class="cls-1" x="705.3" y="40.5" width="15" height="66"/>
    <polygon class="cls-1" points="743.5 79.8 775.9 79.8 775.9 66.5 743.5 66.5 743.5 54.3 777.8 54.3 777.8 40.5 728.8 40.5 728.8 106.5 779.1 106.5 779.1 92.6 743.5 92.6 743.5 79.8"/>
    <path class="cls-1" d="M816.5,65.9c-7.9-.7-13.9-1.7-13.9-7.6s4.7-7,11.5-7,11.2,1.4,15,5.5v.2c.1,0,9.6-8.3,9.6-8.3v-.2c-6.3-7.2-13.5-10.2-24.8-10.2s-26.1,6.3-26.2,20.2c-.2,15.8,12.5,19.2,26.2,20.5,9.1.8,13.1,3.4,13,8.6,0,4.5-5.2,7.6-12.9,7.6s-14.6-2.4-19.9-9.2l-.2-.2-9,9.4h0c4,6.7,13.5,13.7,28.5,13.7s.3,0,.4,0c12.8,0,27.8-5.7,27.8-21.3s-8.5-20-25.4-21.5Z"/>
  </g>
</svg>