<?xml version="1.0" encoding="UTF-8"?>
<svg width="89px" height="15px" viewBox="0 0 89 15" version="1.1" xmlns="http://www.w3.org/2000/svg" xmlns:xlink="http://www.w3.org/1999/xlink">
    <title>researchspace_logo</title>
    <g id="Page-1" stroke="none" stroke-width="1" fill="none" fill-rule="evenodd">
        <g id="researchspace_logo" transform="translate(0.319149, 0.723404)">
            <path d="M86.7036999,9.55797872 C86.6372107,9.55797872 86.5897184,9.56755319 86.5327277,9.5962766 C86.1812848,9.77819149 85.8203435,9.89308511 85.2504361,9.89308511 C84.2246028,9.89308511 83.6831908,9.33776596 83.5882062,8.47606383 L86.8081829,8.47606383 C87.0741397,8.47606383 87.2451119,8.28457447 87.2451119,8.04521277 C87.2451119,6.77180851 86.4472416,5.63244681 84.9844793,5.63244681 C83.4077355,5.63244681 82.7143482,6.87712766 82.7143482,8.16968085 C82.7143482,9.77819149 83.6262,10.7069149 85.1744484,10.7069149 C86.0008141,10.7069149 86.4187462,10.525 86.8366783,10.2856383 C86.9696567,10.2090426 87.0836382,10.0845745 87.0836382,9.93138298 C87.0836382,9.71117021 86.9031675,9.55797872 86.7036999,9.55797872 L86.7036999,9.55797872 Z M84.9844793,6.36968085 C85.5923805,6.36968085 86.3332601,6.77180851 86.3902508,7.76755319 L83.5882062,7.76755319 C83.645197,6.77180851 84.3765781,6.36968085 84.9844793,6.36968085 L84.9844793,6.36968085 Z" id="Shape" fill="#000000" fill-rule="nonzero"></path>
            <path d="M81.507734,9.52925532 C81.4317463,9.52925532 81.384254,9.53882979 81.2987679,9.58670213 C80.966322,9.75904255 80.7003652,9.89308511 80.2064454,9.89308511 C79.1046245,9.89308511 78.4587295,9.19414894 78.4587295,8.16968085 C78.4587295,7.14521277 79.1046245,6.4462766 80.2064454,6.4462766 C80.7003652,6.4462766 80.966322,6.58031915 81.2987679,6.75265957 C81.384254,6.80053191 81.4317463,6.81010638 81.507734,6.81010638 C81.7072016,6.81010638 81.8686753,6.60904255 81.8686753,6.42712766 C81.8686753,6.28351064 81.7926877,6.16861702 81.6787062,6.09202128 C81.3557587,5.88138298 80.8808358,5.63244681 80.1304578,5.63244681 C78.781677,5.63244681 77.5943699,6.57074468 77.5943699,8.16968085 C77.5943699,9.76861702 78.781677,10.7069149 80.1304578,10.7069149 C80.8808358,10.7069149 81.3557587,10.4579787 81.6787062,10.2473404 C81.7926877,10.1707447 81.8686753,10.0558511 81.8686753,9.91223404 C81.8686753,9.73031915 81.7072016,9.52925532 81.507734,9.52925532 L81.507734,9.52925532 Z" id="Path" fill="#000000" fill-rule="nonzero"></path>
            <path d="M74.3545199,5.63244681 C73.6801295,5.63244681 73.1577144,5.7856383 72.711287,5.97712766 C72.5498132,6.04414894 72.4643271,6.17819149 72.4643271,6.34095745 C72.4643271,6.55159574 72.6258009,6.70478723 72.81577,6.70478723 C72.8537638,6.70478723 72.9012561,6.69521277 72.9392499,6.6856383 C73.2906928,6.57074468 73.6706311,6.45585106 74.2025446,6.45585106 C75.0574057,6.45585106 75.4753378,6.79095745 75.4753378,7.64308511 L75.4753378,7.71968085 L74.3260246,7.71968085 C72.8442654,7.71968085 72.1413796,8.37074468 72.1413796,9.27074468 C72.1413796,10.1707447 72.8632623,10.7069149 73.689628,10.7069149 C74.5824829,10.7069149 75.1333934,10.3335106 75.4753378,9.97925532 L75.4753378,10.2281915 C75.4753378,10.4675532 75.6653069,10.6590426 75.9027683,10.6590426 C76.1402297,10.6590426 76.3396973,10.4675532 76.3396973,10.2281915 L76.3396973,7.51861702 C76.3396973,6.58031915 75.7412946,5.63244681 74.3545199,5.63244681 L74.3545199,5.63244681 Z M74.0125755,9.94095745 C73.2432005,9.94095745 73.0057391,9.58670213 73.0057391,9.175 C73.0057391,8.62925532 73.5471512,8.41861702 74.4400061,8.41861702 L75.4753378,8.41861702 L75.4753378,9.22287234 C75.1523903,9.5962766 74.6014798,9.94095745 74.0125755,9.94095745 Z" id="Shape" fill="#000000" fill-rule="nonzero"></path>
            <path d="M68.9203475,10.7069149 C70.0696607,10.7069149 71.218974,9.79734043 71.218974,8.16968085 C71.218974,6.54202128 70.0696607,5.63244681 68.9203475,5.63244681 C68.2554556,5.63244681 67.7330405,5.90053191 67.2961115,6.36010638 L67.2961115,6.11117021 C67.2961115,5.87180851 67.1061423,5.68031915 66.8591825,5.68031915 C66.6217211,5.68031915 66.4317519,5.87180851 66.4317519,6.11117021 L66.4317519,12.4207447 C66.4317519,12.6696809 66.6217211,12.8611702 66.8591825,12.8611702 C67.1061423,12.8611702 67.2961115,12.6696809 67.2961115,12.4207447 L67.2961115,9.97925532 C67.7330405,10.4388298 68.2554556,10.7069149 68.9203475,10.7069149 L68.9203475,10.7069149 Z M68.7968676,6.4462766 C69.6992209,6.4462766 70.3546144,7.03989362 70.3546144,8.16968085 C70.3546144,9.29946809 69.6992209,9.89308511 68.7968676,9.89308511 C68.1794679,9.89308511 67.6665513,9.58670213 67.2961115,9.175 L67.2961115,7.1643617 C67.6665513,6.75265957 68.1794679,6.4462766 68.7968676,6.4462766 Z" id="Shape" fill="#000000" fill-rule="nonzero"></path>
            <path d="M61.2455675,5.72819149 C61.2455675,5.01010638 61.9769486,4.63670213 62.9362927,4.63670213 C63.5156985,4.63670213 64.0286152,4.74202128 64.4655442,4.89521277 C64.5130364,4.9143617 64.5700272,4.93351064 64.6175195,4.93351064 C64.8549809,4.93351064 64.9974577,4.72287234 64.9974577,4.53138298 C64.9974577,4.30159574 64.8644793,4.1962766 64.7315009,4.14840426 C64.2185843,3.95691489 63.5821877,3.83244681 62.8413081,3.83244681 C61.236069,3.83244681 60.3812079,4.73244681 60.3812079,5.79521277 C60.3812079,8.15053191 64.4180519,7.36542553 64.4180519,8.78244681 C64.4180519,9.61542553 63.6961692,9.88351064 62.755822,9.88351064 C61.9389548,9.88351064 61.3120566,9.68244681 60.8846261,9.49095745 C60.8181369,9.46223404 60.7611462,9.45265957 60.7041554,9.45265957 C60.466694,9.45265957 60.3147187,9.64414894 60.3147187,9.85478723 C60.3147187,10.0271277 60.4381987,10.1898936 60.5806755,10.2473404 C61.131586,10.4867021 61.8914625,10.7069149 62.8413081,10.7069149 C64.3135689,10.7069149 65.272913,9.92180851 65.272913,8.83989362 C65.272913,6.31223404 61.2455675,7.38457447 61.2455675,5.72819149 L61.2455675,5.72819149 Z" id="Path" fill="#000000" fill-rule="nonzero"></path>
            <path d="M57.427188,5.63244681 C56.5818254,5.63244681 56.0594103,6.07287234 55.6604751,6.51329787 L55.6604751,4.0143617 C55.6604751,3.76542553 55.4610075,3.57393617 55.2235461,3.57393617 C54.9860847,3.57393617 54.7961156,3.76542553 54.7961156,4.0143617 L54.7961156,10.2281915 C54.7961156,10.4675532 54.9860847,10.6590426 55.2235461,10.6590426 C55.4610075,10.6590426 55.6604751,10.4675532 55.6604751,10.2281915 L55.6604751,7.35585106 C56.0404134,6.87712766 56.5343331,6.43670213 57.2182219,6.43670213 C57.9591015,6.43670213 58.2630521,6.87712766 58.2630521,7.60478723 L58.2630521,10.2281915 C58.2630521,10.4675532 58.4530213,10.6590426 58.6904827,10.6590426 C58.9279441,10.6590426 59.1274117,10.4675532 59.1274117,10.2281915 L59.1274117,7.50904255 C59.1274117,6.48457447 58.510012,5.63244681 57.427188,5.63244681 L57.427188,5.63244681 Z" id="Path" fill="#000000" fill-rule="nonzero"></path>
            <path d="M53.1992813,9.52925532 C53.1232937,9.52925532 53.0758014,9.53882979 52.9903153,9.58670213 C52.6578693,9.75904255 52.3919125,9.89308511 51.8979928,9.89308511 C50.7961719,9.89308511 50.1502768,9.19414894 50.1502768,8.16968085 C50.1502768,7.14521277 50.7961719,6.4462766 51.8979928,6.4462766 C52.3919125,6.4462766 52.6578693,6.58031915 52.9903153,6.75265957 C53.0758014,6.80053191 53.1232937,6.81010638 53.1992813,6.81010638 C53.3987489,6.81010638 53.5602227,6.60904255 53.5602227,6.42712766 C53.5602227,6.28351064 53.484235,6.16861702 53.3702536,6.09202128 C53.047306,5.88138298 52.5723832,5.63244681 51.8220052,5.63244681 C50.4732244,5.63244681 49.2859173,6.57074468 49.2859173,8.16968085 C49.2859173,9.76861702 50.4732244,10.7069149 51.8220052,10.7069149 C52.5723832,10.7069149 53.047306,10.4579787 53.3702536,10.2473404 C53.484235,10.1707447 53.5602227,10.0558511 53.5602227,9.91223404 C53.5602227,9.73031915 53.3987489,9.52925532 53.1992813,9.52925532 L53.1992813,9.52925532 Z" id="Path" fill="#000000" fill-rule="nonzero"></path>
            <path d="M48.2210348,5.63244681 L48.1735425,5.63244681 C47.518149,5.63244681 47.0242293,6.07287234 46.6822849,6.53244681 L46.6822849,6.12074468 C46.6822849,5.88138298 46.4828173,5.68031915 46.2453559,5.68031915 C46.0078945,5.68031915 45.8179253,5.88138298 45.8179253,6.12074468 L45.8179253,10.2281915 C45.8179253,10.4675532 46.0078945,10.6590426 46.2453559,10.6590426 C46.4828173,10.6590426 46.6822849,10.4675532 46.6822849,10.2281915 L46.6822849,7.31755319 C47.0147308,6.81968085 47.5276475,6.475 48.1545456,6.475 L48.2020379,6.475 C48.4489978,6.475 48.6389669,6.31223404 48.6389669,6.06329787 C48.6389669,5.82393617 48.4584962,5.63244681 48.2210348,5.63244681 L48.2210348,5.63244681 Z" id="Path" fill="#000000" fill-rule="nonzero"></path>
            <path d="M42.3171622,5.63244681 C41.6427718,5.63244681 41.1203567,5.7856383 40.6739292,5.97712766 C40.5124554,6.04414894 40.4269693,6.17819149 40.4269693,6.34095745 C40.4269693,6.55159574 40.5884431,6.70478723 40.7784122,6.70478723 C40.816406,6.70478723 40.8638983,6.69521277 40.9018922,6.6856383 C41.253335,6.57074468 41.6332733,6.45585106 42.1651869,6.45585106 C43.0200479,6.45585106 43.43798,6.79095745 43.43798,7.64308511 L43.43798,7.71968085 L42.2886668,7.71968085 C40.8069076,7.71968085 40.1040218,8.37074468 40.1040218,9.27074468 C40.1040218,10.1707447 40.8259045,10.7069149 41.6522702,10.7069149 C42.5451251,10.7069149 43.0960356,10.3335106 43.43798,9.97925532 L43.43798,10.2281915 C43.43798,10.4675532 43.6279491,10.6590426 43.8654105,10.6590426 C44.102872,10.6590426 44.3023395,10.4675532 44.3023395,10.2281915 L44.3023395,7.51861702 C44.3023395,6.58031915 43.7039368,5.63244681 42.3171622,5.63244681 Z M41.9752177,9.94095745 C41.2058428,9.94095745 40.9683814,9.58670213 40.9683814,9.175 C40.9683814,8.62925532 41.5097934,8.41861702 42.4026483,8.41861702 L43.43798,8.41861702 L43.43798,9.22287234 C43.1150325,9.5962766 42.564122,9.94095745 41.9752177,9.94095745 Z" id="Shape" fill="#000000" fill-rule="nonzero"></path>
            <path d="M38.6784122,9.55797872 C38.611923,9.55797872 38.5644307,9.56755319 38.50744,9.5962766 C38.1559971,9.77819149 37.7950558,9.89308511 37.2251484,9.89308511 C36.1993151,9.89308511 35.6579031,9.33776596 35.5629185,8.47606383 L38.7828952,8.47606383 C39.048852,8.47606383 39.2198242,8.28457447 39.2198242,8.04521277 C39.2198242,6.77180851 38.4219539,5.63244681 36.9591916,5.63244681 C35.3824478,5.63244681 34.6890605,6.87712766 34.6890605,8.16968085 C34.6890605,9.77819149 35.6009123,10.7069149 37.1491607,10.7069149 C37.9755264,10.7069149 38.3934585,10.525 38.8113906,10.2856383 C38.944369,10.2090426 39.0583505,10.0845745 39.0583505,9.93138298 C39.0583505,9.71117021 38.8778798,9.55797872 38.6784122,9.55797872 L38.6784122,9.55797872 Z M36.9591916,6.36968085 C37.5670928,6.36968085 38.3079724,6.77180851 38.3649631,7.76755319 L35.5629185,7.76755319 C35.6199092,6.77180851 36.3512904,6.36968085 36.9591916,6.36968085 Z" id="Shape" fill="#000000" fill-rule="nonzero"></path>
            <path d="M30.8791241,7.09734043 C30.8791241,6.7143617 31.2685608,6.42712766 31.9714466,6.42712766 C32.3893787,6.42712766 32.75032,6.5037234 33.0542706,6.59946809 C33.0922645,6.60904255 33.1302583,6.61861702 33.1777506,6.61861702 C33.3962151,6.61861702 33.5576888,6.43670213 33.5576888,6.2356383 C33.5576888,6.09202128 33.4627043,5.92925532 33.2822336,5.87180851 C32.8927969,5.72819149 32.4273725,5.63244681 31.9049574,5.63244681 C30.6701581,5.63244681 30.0527584,6.28351064 30.0527584,7.14521277 C30.0527584,8.88776596 32.9022953,8.39946809 32.9022953,9.22287234 C32.9022953,9.6537234 32.5793478,9.90265957 31.8479667,9.90265957 C31.2875578,9.90265957 30.898121,9.76861702 30.5561766,9.61542553 C30.4896874,9.58670213 30.4421951,9.57712766 30.3852044,9.57712766 C30.1667399,9.57712766 30.0147646,9.76861702 30.0147646,9.96010638 C30.0147646,10.0941489 30.0812538,10.2090426 30.1762384,10.2760638 C30.6606596,10.5441489 31.2115701,10.7069149 31.9049574,10.7069149 C33.1207598,10.7069149 33.7381595,10.0654255 33.7381595,9.28989362 C33.7381595,7.41329787 30.8791241,8.09308511 30.8791241,7.09734043 L30.8791241,7.09734043 Z" id="Path" fill="#000000" fill-rule="nonzero"></path>
            <path d="M28.4939562,9.55797872 C28.427467,9.55797872 28.3799747,9.56755319 28.322984,9.5962766 C27.9715411,9.77819149 27.6105997,9.89308511 27.0406924,9.89308511 C26.0148591,9.89308511 25.4734471,9.33776596 25.3784625,8.47606383 L28.5984392,8.47606383 C28.864396,8.47606383 29.0353682,8.28457447 29.0353682,8.04521277 C29.0353682,6.77180851 28.2374979,5.63244681 26.7747356,5.63244681 C25.1979918,5.63244681 24.5046045,6.87712766 24.5046045,8.16968085 C24.5046045,9.77819149 25.4164563,10.7069149 26.9647047,10.7069149 C27.7910704,10.7069149 28.2090025,10.525 28.6269346,10.2856383 C28.759913,10.2090426 28.8738944,10.0845745 28.8738944,9.93138298 C28.8738944,9.71117021 28.6934238,9.55797872 28.4939562,9.55797872 L28.4939562,9.55797872 Z M26.7747356,6.36968085 C27.3826368,6.36968085 28.1235164,6.77180851 28.1805071,7.76755319 L25.3784625,7.76755319 C25.4354532,6.77180851 26.1668344,6.36968085 26.7747356,6.36968085 L26.7747356,6.36968085 Z" id="Shape" fill="#000000" fill-rule="nonzero"></path>
            <path d="M23.2592513,9.78776596 C23.2592513,9.25159574 23.126273,7.88244681 22.0719443,7.60478723 C22.9078085,7.31755319 23.3162421,6.60904255 23.3162421,5.87180851 C23.3162421,4.77074468 22.5373687,3.92819149 20.7326619,3.92819149 L18.5195216,3.92819149 C18.2820602,3.92819149 18.0920911,4.12925532 18.0920911,4.36861702 L18.0920911,10.2281915 C18.0920911,10.4675532 18.2820602,10.6590426 18.5195216,10.6590426 C18.756983,10.6590426 18.9564506,10.4675532 18.9564506,10.2281915 L18.9564506,8.00691489 L20.9226311,8.00691489 C22.356898,8.00691489 22.3948918,9.30904255 22.3948918,9.94095745 L22.3948918,10.2281915 C22.3948918,10.4867021 22.565864,10.6590426 22.8318208,10.6590426 C23.0692822,10.6590426 23.2592513,10.4675532 23.2592513,10.2281915 L23.2592513,9.78776596 L23.2592513,9.78776596 Z M20.6756712,7.18351064 L18.9564506,7.18351064 L18.9564506,4.75159574 L20.6281789,4.75159574 C22.0339505,4.75159574 22.4518825,5.23031915 22.4518825,5.93882979 C22.4518825,6.75265957 21.7394983,7.18351064 20.6756712,7.18351064 Z" id="Shape" fill="#000000" fill-rule="nonzero"></path>
            <path d="M12.3617021,6.93297872 C12.3617021,9.28297872 10.456383,11.1882979 8.10638298,11.1882979 C5.75638298,11.1882979 3.85106383,9.28297872 3.85106383,6.93297872 C3.85106383,4.58297872 5.75638298,2.67765957 8.10638298,2.67765957 C10.456383,2.67765957 12.3617021,4.58297872 12.3617021,6.93297872 Z" id="Path" stroke="#000000" stroke-width="0.638297872"></path>
            <path d="M13.9218085,6.91489362 C13.9218085,10.7335106 10.8260638,13.8297872 7.00691489,13.8297872 C3.18776596,13.8297872 0.0920212766,10.7335106 0.0920212766,6.91489362 C0.0920212766,3.09574468 3.18776596,0 7.00691489,0 C10.8260638,0 13.9218085,3.09574468 13.9218085,6.91489362 Z" id="Path" stroke="#000000" stroke-width="0.638297872"></path>
        </g>
    </g>
</svg>